<mxfile host="Electron" modified="2023-12-19T17:27:01.192Z" agent="Mozilla/5.0 (X11; Linux x86_64) AppleWebKit/537.36 (KHTML, like Gecko) draw.io/22.1.2 Chrome/114.0.5735.289 Electron/25.9.4 Safari/537.36" etag="hTNn2Lku2kNUICfclO1s" version="22.1.2" type="device">
  <diagram name="Page-1" id="jr7YSrHJe9vg8GeQViiA">
    <mxGraphModel dx="808" dy="493" grid="1" gridSize="10" guides="1" tooltips="1" connect="1" arrows="1" fold="1" page="1" pageScale="1" pageWidth="850" pageHeight="1100" math="0" shadow="0">
      <root>
        <mxCell id="0" />
        <mxCell id="1" parent="0" />
        <mxCell id="Jru9MgbBaoPBcTM2uQ0Y-1" value="airport (vertex)" style="swimlane;fontStyle=0;childLayout=stackLayout;horizontal=1;startSize=26;fillColor=none;horizontalStack=0;resizeParent=1;resizeParentMax=0;resizeLast=0;collapsible=1;marginBottom=0;whiteSpace=wrap;html=1;" vertex="1" parent="1">
          <mxGeometry x="30" y="30" width="140" height="156" as="geometry" />
        </mxCell>
        <mxCell id="Jru9MgbBaoPBcTM2uQ0Y-2" value="code" style="text;strokeColor=none;fillColor=none;align=left;verticalAlign=top;spacingLeft=4;spacingRight=4;overflow=hidden;rotatable=0;points=[[0,0.5],[1,0.5]];portConstraint=eastwest;whiteSpace=wrap;html=1;" vertex="1" parent="Jru9MgbBaoPBcTM2uQ0Y-1">
          <mxGeometry y="26" width="140" height="26" as="geometry" />
        </mxCell>
        <mxCell id="Jru9MgbBaoPBcTM2uQ0Y-3" value="name" style="text;strokeColor=none;fillColor=none;align=left;verticalAlign=top;spacingLeft=4;spacingRight=4;overflow=hidden;rotatable=0;points=[[0,0.5],[1,0.5]];portConstraint=eastwest;whiteSpace=wrap;html=1;" vertex="1" parent="Jru9MgbBaoPBcTM2uQ0Y-1">
          <mxGeometry y="52" width="140" height="26" as="geometry" />
        </mxCell>
        <mxCell id="Jru9MgbBaoPBcTM2uQ0Y-4" value="city" style="text;strokeColor=none;fillColor=none;align=left;verticalAlign=top;spacingLeft=4;spacingRight=4;overflow=hidden;rotatable=0;points=[[0,0.5],[1,0.5]];portConstraint=eastwest;whiteSpace=wrap;html=1;" vertex="1" parent="Jru9MgbBaoPBcTM2uQ0Y-1">
          <mxGeometry y="78" width="140" height="26" as="geometry" />
        </mxCell>
        <mxCell id="Jru9MgbBaoPBcTM2uQ0Y-5" value="country" style="text;strokeColor=none;fillColor=none;align=left;verticalAlign=top;spacingLeft=4;spacingRight=4;overflow=hidden;rotatable=0;points=[[0,0.5],[1,0.5]];portConstraint=eastwest;whiteSpace=wrap;html=1;" vertex="1" parent="Jru9MgbBaoPBcTM2uQ0Y-1">
          <mxGeometry y="104" width="140" height="26" as="geometry" />
        </mxCell>
        <mxCell id="Jru9MgbBaoPBcTM2uQ0Y-7" value="coordinates (lat/long)" style="text;strokeColor=none;fillColor=none;align=left;verticalAlign=top;spacingLeft=4;spacingRight=4;overflow=hidden;rotatable=0;points=[[0,0.5],[1,0.5]];portConstraint=eastwest;whiteSpace=wrap;html=1;" vertex="1" parent="Jru9MgbBaoPBcTM2uQ0Y-1">
          <mxGeometry y="130" width="140" height="26" as="geometry" />
        </mxCell>
        <mxCell id="Jru9MgbBaoPBcTM2uQ0Y-8" value="airlines" style="swimlane;fontStyle=0;childLayout=stackLayout;horizontal=1;startSize=26;fillColor=none;horizontalStack=0;resizeParent=1;resizeParentMax=0;resizeLast=0;collapsible=1;marginBottom=0;whiteSpace=wrap;html=1;" vertex="1" parent="1">
          <mxGeometry x="240" y="30" width="140" height="130" as="geometry" />
        </mxCell>
        <mxCell id="Jru9MgbBaoPBcTM2uQ0Y-9" value="code" style="text;strokeColor=none;fillColor=none;align=left;verticalAlign=top;spacingLeft=4;spacingRight=4;overflow=hidden;rotatable=0;points=[[0,0.5],[1,0.5]];portConstraint=eastwest;whiteSpace=wrap;html=1;" vertex="1" parent="Jru9MgbBaoPBcTM2uQ0Y-8">
          <mxGeometry y="26" width="140" height="26" as="geometry" />
        </mxCell>
        <mxCell id="Jru9MgbBaoPBcTM2uQ0Y-10" value="name" style="text;strokeColor=none;fillColor=none;align=left;verticalAlign=top;spacingLeft=4;spacingRight=4;overflow=hidden;rotatable=0;points=[[0,0.5],[1,0.5]];portConstraint=eastwest;whiteSpace=wrap;html=1;" vertex="1" parent="Jru9MgbBaoPBcTM2uQ0Y-8">
          <mxGeometry y="52" width="140" height="26" as="geometry" />
        </mxCell>
        <mxCell id="Jru9MgbBaoPBcTM2uQ0Y-11" value="nickname" style="text;strokeColor=none;fillColor=none;align=left;verticalAlign=top;spacingLeft=4;spacingRight=4;overflow=hidden;rotatable=0;points=[[0,0.5],[1,0.5]];portConstraint=eastwest;whiteSpace=wrap;html=1;" vertex="1" parent="Jru9MgbBaoPBcTM2uQ0Y-8">
          <mxGeometry y="78" width="140" height="26" as="geometry" />
        </mxCell>
        <mxCell id="Jru9MgbBaoPBcTM2uQ0Y-13" value="country" style="text;strokeColor=none;fillColor=none;align=left;verticalAlign=top;spacingLeft=4;spacingRight=4;overflow=hidden;rotatable=0;points=[[0,0.5],[1,0.5]];portConstraint=eastwest;whiteSpace=wrap;html=1;" vertex="1" parent="Jru9MgbBaoPBcTM2uQ0Y-8">
          <mxGeometry y="104" width="140" height="26" as="geometry" />
        </mxCell>
        <mxCell id="Jru9MgbBaoPBcTM2uQ0Y-14" value="flight (edge)" style="swimlane;fontStyle=0;childLayout=stackLayout;horizontal=1;startSize=26;fillColor=none;horizontalStack=0;resizeParent=1;resizeParentMax=0;resizeLast=0;collapsible=1;marginBottom=0;whiteSpace=wrap;html=1;" vertex="1" parent="1">
          <mxGeometry x="130" y="280" width="180" height="104" as="geometry" />
        </mxCell>
        <mxCell id="Jru9MgbBaoPBcTM2uQ0Y-15" value="source (airport code)" style="text;strokeColor=none;fillColor=none;align=left;verticalAlign=top;spacingLeft=4;spacingRight=4;overflow=hidden;rotatable=0;points=[[0,0.5],[1,0.5]];portConstraint=eastwest;whiteSpace=wrap;html=1;" vertex="1" parent="Jru9MgbBaoPBcTM2uQ0Y-14">
          <mxGeometry y="26" width="180" height="26" as="geometry" />
        </mxCell>
        <mxCell id="Jru9MgbBaoPBcTM2uQ0Y-16" value="target (airport code)" style="text;strokeColor=none;fillColor=none;align=left;verticalAlign=top;spacingLeft=4;spacingRight=4;overflow=hidden;rotatable=0;points=[[0,0.5],[1,0.5]];portConstraint=eastwest;whiteSpace=wrap;html=1;" vertex="1" parent="Jru9MgbBaoPBcTM2uQ0Y-14">
          <mxGeometry y="52" width="180" height="26" as="geometry" />
        </mxCell>
        <mxCell id="Jru9MgbBaoPBcTM2uQ0Y-17" value="list of airlines&amp;nbsp;" style="text;strokeColor=none;fillColor=none;align=left;verticalAlign=top;spacingLeft=4;spacingRight=4;overflow=hidden;rotatable=0;points=[[0,0.5],[1,0.5]];portConstraint=eastwest;whiteSpace=wrap;html=1;" vertex="1" parent="Jru9MgbBaoPBcTM2uQ0Y-14">
          <mxGeometry y="78" width="180" height="26" as="geometry" />
        </mxCell>
        <mxCell id="Jru9MgbBaoPBcTM2uQ0Y-19" style="edgeStyle=orthogonalEdgeStyle;rounded=0;orthogonalLoop=1;jettySize=auto;html=1;entryX=0.447;entryY=0.988;entryDx=0;entryDy=0;entryPerimeter=0;" edge="1" parent="1" source="Jru9MgbBaoPBcTM2uQ0Y-14" target="Jru9MgbBaoPBcTM2uQ0Y-7">
          <mxGeometry relative="1" as="geometry" />
        </mxCell>
        <mxCell id="Jru9MgbBaoPBcTM2uQ0Y-20" style="edgeStyle=orthogonalEdgeStyle;rounded=0;orthogonalLoop=1;jettySize=auto;html=1;entryX=0.647;entryY=1.007;entryDx=0;entryDy=0;entryPerimeter=0;" edge="1" parent="1" source="Jru9MgbBaoPBcTM2uQ0Y-15" target="Jru9MgbBaoPBcTM2uQ0Y-13">
          <mxGeometry relative="1" as="geometry" />
        </mxCell>
        <mxCell id="Jru9MgbBaoPBcTM2uQ0Y-22" value="" style="shape=image;verticalLabelPosition=bottom;labelBackgroundColor=default;verticalAlign=top;aspect=fixed;imageAspect=0;image=data:image/png,iVBORw0KGgoAAAANSUhEUgAABLAAAAMjCAYAAAC1dOmsAAAAAXNSR0IArs4c6QAAIABJREFUeF7s3Qm8TdX///FPhhKZyqyQKGVIg1mmKMmQNIgSFZEhMjXIFA0IlUIDZSg0SAOaFQnJPGXImMzJGBn+j/f6/q/fdZ1777n3nmGfc17r8biPvt/aZ++1nnvfe/b+7M/6rPNOnz592mgIIIAAAggggAACCCCAAAIIIIAAAgh4VOA8AlgePTN0CwEEEEAAAQQQQAABBBBAAAEEEEDACRDA4kJAAAEEEEAAAQQQQAABBBBAAAEEEPC0AAEsT58eOocAAggggAACCCCAAAIIIIAAAgggQACLawABBBBAAAEEEEAAAQQQQAABBBBAwNMCBLA8fXroHAIIIIAAAggggAACCCCAAAIIIIAAASyuAQQQQAABBBBAAAEEEEAAAQQQQAABTwsQwPL06aFzCCCAAAIIIIAAAggggAACCCCAAAIEsLgGEEAAAQQQQAABBBBAAAEEEEAAAQQ8LUAAy9Onh84hgAACCCCAAAIIIIAAAggggAACCBDA4hpAAAEEEEAAAQQQQAABBBBAAAEEEPC0AAEsT58eOocAAggggAACCCCAAAIIIIAAAgggQACLawABBBBAAAEEEEAAAQQQQAABBBBAwNMCBLA8fXroHAIIIIAAAggggAACCCCAAAIIIIAAASyuAQQQQAABBBBAAAEEEEAAAQQQQAABTwsQwPL06aFzCCCAAAIIIIAAAggggAACCCCAAAIEsLgGEEAAAQQQQAABBBBAAAEEEEAAAQQ8LUAAy9Onh84hgAACCCCAAAIIIIAAAggggAACCBDA4hpAAAEEEEAAAQQQQAABBBBAAAEEEPC0AAEsT58eOocAAggggAACCCCAAAIIIIAAAgggQACLawABBBBAAAEEEEAAAQQQQAABBBBAwNMCBLA8fXroHAIIIIAAAggggAACCCCAAAIIIIAAASyuAQQQQAABBBBAAAEEEEAAAQQQQAABTwsQwPL06aFzCCCAAAIIIIAAAggggAACCCCAAAIEsLgGEEAAAQQQQAABBBBAAAEEEEAAAQQ8LUAAy9Onh84hgAACCCCAAAIIIIAAAggggAACCBDA4hpAAAEEEEAAAQQQQACBmBNYu3at6adu3bqWIUOGmBs/A0YAAQQiTYAAVqSdMfqLAAIIIIAAAggggAACaRYYOHCg9e/f3/bu3WsXXXRRmvcXzB0cO3bMMmXKZK1bt7Y333wzmIdi3wgggIBnBQhgefbU0DEEEEAAAQQQQAABBBAIlgABrGDJsl8EEEAgOAIEsILjyl4RSJWA3q699NJLdvnll9sDDzyQqn3wIQQQQAABBBBAAIHoEiADK7rOJ6NBAIHUCRDASp0bn4oggZMnT9q6dets3Lhx9vnnn9umTZtc7xUkqlOnjjVr1sxKlizp0rLD3f755x/LkSOH1apVy7777rtwd4fjI4AAAggggAACESUwefJk++CDD2zx4sW2c+dOK1iwoN13333WuXNny5Ur11lj8ZWBNW/ePKtUqZJpP9myZbO+ffvasmXL7NFHH3UvGfXvLrvsMps9e7bp81OmTLHjx4/bXXfdZX369LFLL730rGP8+++/NnXqVBs2bJjbz8UXX2x33323denSxYoUKXLWtjfddJOtX7/e1eV67bXXbMyYMe6+dezYsdaiRYtzzoPGtm3bNvfvNdYRI0bYhAkT3L/LnTu3lSpVylq2bGlNmza1dOnSRdR5pLMIIICALwECWFwXUS/wxBNPuJuAEydO+ByrvtD15f7OO++E3YIAVthPAR1AAAEEEEAAgQgWUADpzz//PGcEOXPmtI0bN1r27NnP/LekAlgVK1a0BQsW2KlTp9z2jz/+uA0aNMgFsPLnz28ZM2Z0L0jjN+171apVVqBAgTP/ul69ejZz5kw7ffr0Wduq5tby5cvPCmIpgPX7779b4cKFbeHChWe2f/fdd929asIWP4B17bXXugBZwpYlSxbbtWuXZc6cOYLPKl1HAAEE/idAAIsrIaoFnnzySfe27JJLLnEBqnLlyrm3bwpaHTp0yLZu3Wrz5893NyDaLtyNAFa4zwDHRwABBBBAAIFIFvjll19chpQynS644AJXoP3DDz90AajBgwe7zKe4llQA6/zzz3fZTLfddtuZAu/KtFIAS9P5qlSp4jKjihYtan///bfLfurXr581b97cfU7t22+/dSsc6v5T2xYrVswOHDjg7kl79OhhCjr99ttvlj59ere9Alhz5syxK6+80j7++GP3T/VDLakphPv27XMZV61atbIXX3zRjV3ba+zK6NJ+444RyeeWviOAAAIEsLgGolZAwamrr77asmbNaqtXr3ZT8/xtcSncixYtcqnjX375pf3111+2YcMG96ZMNyhfffWVuynYv3+/5c2b193gKHVcb8PitwcffNBNXdRbv2eeecalkeuGokyZMvbUU09Z48aNz2weP4ClfQ0YMMB0I3beeeeZ3uDp/+vmh4YAAggggAACCCDgn8DRo0ddMOj666+3adOm+RXA6tChg8vgj9/iB7A01bBChQpn/rOOoXvE3bt3244dO1xAqXTp0rZy5UqbO3eum5YY1zQr4MYbb7SlS5e6AJb6pRYXwPr555+tcuXKZx07qQDW4cOHXdBKKxS+/PLLLnBHQwABBKJRgABWNJ5VxuQEunfvbkOGDHFv3IYPH54iFd1AKAVcNx9Ku9bbNr25+uGHH6xQoUIutVs3ErpB0L/XTYu201sy1R1QxldcUwBLQSt9ZvPmze4GQ+noqlWgG6GJEye6OlxqcQGsEiVKuPR3pX1feOGFbv/aXunsuqlRQIuGAAIIIIAAAgggcLaAAkijRo2y999/3/744w93rxXXbrjhhrOm5iWVgRX//izu83EBLN2bKesqYevUqZMLeunlo15U6v5RL1J9bfvmm2+6ulrKDlP9LDXdf65YscLn9skVcde9pLK2NMugfv36bp81atSwPHnycN/ILwkCCESNAAGsqDmVDCS+gOoMKF1bb7V8vcVKTivuDZhSu7/55hsXkIpf/FJv1nRDEj+ApSCVVg7UDckjjzxyVgBLBeS1vd60KQCmAJayt/TmTnUUVO8gfgBLx1J6+T333HMmgHXHHXe4VHTtQ2/0aAgggAACCCCAAAL/J7B9+3Y3LW/Pnj0+WbRojwJEcS2pANZHH31kTZo0OWs/cQGsfPnynVkUKP4G/fv3d9n4s2bNsuuuu85Ud0v3fcrCT9gUbFKQSdMNNe0wLoCl+0Nl/SdsyQWwlNWlF6WfffaZC2QpiKZA25133mmqoUURd35TEEAgGgQIYEXDWWQM5who5UHdwChtW1/munmIa//995+b5qc3dPGb/n/c6jRxASwVw/Q3WKTsKQWjGjRo4FauiWvKwFIAa/r06W6aYfymgpzvvfeeLVmyxPU3LgNLb8vU7/grI+pGSqvWjB492tq0acNZRwABBBBAAAEEEIgn8NBDD7n7qpEjR9rtt9/u7uuUHa/Ak6YQ6mViIAJYelGqchAqxB6/KfNJZSd0/6gyFvrviW3bs2dPVxQ+/v1hXAkLXwEsjUEvTjVNUC9Lk2vK3O/Vq5ervaWSGMoIoyGAAAKRLkAAK9LPIP33KaAMp7Jly7rVXTQVUDcRcU3BLWVIqYimmmoh6N8lDGDpc7o58dW0Mszrr79u3333nXtLFn+FQ9UsUNZXXFMAS+nhR44cOWdX48ePd8si60arbdu2ZwJYuoH56aefztpe9RNUMFTF5lX4k4YAAggggAACCCDwfwK1atVy2fcq6xC/DtTixYutatWqdvnllwckgKVsKE0VVJ2suKbMqeLFi7usfZWB0PHjXmIm3Fb3jqppqpeqmuaolRPVkgpgKRCWIUMGa9q0qSs/Eb/pflX/Pe5FbNx/i3v5+fXXX1udOnW4VBBAAIGIFyCAFfGnkAEkJqCi5zNmzHBvnnwtPRz3OdWZUnApYQArsRRuTfcrVaqUu1HQWz2lZKsmlf6/imgmrK+gm5dPP/3UBacStk8++cSlpw8dOtStipPUKoRxASytLqO3djQEEEAAAQQQ8KaAXqQpyKEXZL6a7h3iyhB4cwSR2avOnTvbK6+84gqmv/32267uqGphdevWzQ3ommuuCUgAS9lQCiZpyuDDDz9sCpDpfk8lJjRdT/9b7d9//3U1qHSf2bt3b/eyUgsLKVNMgSu9kIy/CnZSASztT4Eu1V6dOXOm+9+6jnQfqxqtt956q6kGl17Sauqiyk4owHbw4EGXEaax0xBAAIFIFyCAFelnkP4nKhBXW0A3Az/++GOiBSxTGsBSQUwtcazsK60akzlzZnczETeFUDcIytCKa7qJUX0DrYpYoECBs/qrOgm6+VG6uQJuBLC4oBFAAAEEEIhcAWVvK2CiaWF6Eabgga+mewct7nLVVVe573+VH1BdJVraBJRdH5eFFbcnBXn0knDKlCmuqHogphAqeHTfffe51aHjt1atWrkC8nrBGde0arVqmsZl/sf9+3vvvde9ZFWdqriWXACra9eu7qVnXFNJDC0epCLxyrBS9ln8ljFjRhs8eLALZOlelYYAAghEugABrEg/g/Q/UYG4Qu4qeq4aAMpail9TKu6DKQlgaZ+ajqgioXrLphvQuKY0bd2MqGhnwgCWamDpxuLzzz8/k9KuN7Oqe6UaBUo1174IYHFBI4AAAgggEBkCuidQrU291FLpAP1s2rTJZWSnpilTR8GPxo0bp+bjfOb/CyhQpBeDynBSzSuVdtALxxEjRpgCOu3atTtjNXv2bPeSU5lQcUEnBYTiFtKJX4JCH4or4n7ZZZfZ2rVr3Tn/9ddfXSkJLR6kl5y+mu4ZNY1PLzNVF6t8+fIuSyxhU0Br3759pkCVr6aMPmVWKaNKK1RrfArOqSnrb968ea4/hw4dsrx587opiQqS0hBAAIFoESCAFS1nknH4FFAgSW81deOgWgNK81ZtLN2kqEi6alNpmqHepOmNXPbs2d1+knoD1rFjR3cTVLFiRRcU05sz1dFSqrpuYHSTlDCApVoF2q5mzZquALumGj711FNuVRrdSL3xxhvuuASwuJARQAABBBDwpoCCB3qBpe9urfT2wQcfuP8fyKYaRgkXmQnk/tlX2gTiB7DWrVuXtp3xaQQQQACBFAsQwEoxGR+INAHdCCozSvUBEjallatWgNKxlYkV15IKYOkGtkKFCmelaWs/qrnw5JNPWokSJc4JYOlGV2/59Ln4xdy1Ws3UqVNdHQUCWJF2ZdFfBBBAAIFYEFBGjhZu0YsqvWjSy6rUZln54xXMfftzfLZJXIAAFlcHAgggEF4BAljh9efoIRRQxpV+lFatous5cuSwokWLuhTrhE3TAZQlpYKYvpr+m9K39+zZ46b+aWlm1bdSUU2lhlevXv3Mx1QDS1MHlRKuN7Vr1qxxad86rpY0jl8nQavRqG5G7ty5Xcp7/KbPKwimGlta5YaGAAIIIIAAAsER0Pf8sGHD3MspfdeHqmkFu1AeL1TjipbjEMCKljPJOBBAIFIFCGBF6pmj3xEjED+AFTGdpqMIIIAAAgjEoMCuXbvcwivDhw939YpS2vSCTC+ZVE6gatWqdsstt5zz0kkvs7SysOoVLV++3P1TdZu0Yp4CZvfff39KD8v2IRJQFr7qU+klaN++fUN0VA6DAAIIIBAnQACLawGBIAsQwAoyMLtHAAEEEEAgjQLKelIBbZUCUDFsf5tKCOTMmdPy58/vVpp76KGHTCvD0RBAAAEEEEAg8AIEsAJvyh4ROEuAABYXBAIIIIAAAt4UUF3KTp06mVYSVn0rf5vKBmhhmObNm7uSAFoNLn369P5+nO0QQAABBBBAIBUCBLBSgcZHEEiJwKxZs2zLli3WokWLlHyMbRFAAAEEEEAgSAJr1651C7hoNWLVmEyuKUClqX1aTVirGV9xxRWm7CsaAggggAACCIROgABW6Kw5EgIIIIAAAggggECYBLS63+rVq2306NH25ptv2r///ptkTxSg0srCrVu3tnbt2tkFF1wQpp5zWAQQQAABBBCQAAEsrgMEEEAAAQQQQACBqBVQ4Gr37t0uEPXZZ58lO04FrlTT6vXXX7dGjRoluz0bIIAAAggggEBoBAhghcaZoyCAAAIIIIAAAgiEWGDOnDnWuXNnW7VqlR09ejTZo5csWdJGjBhhN954o1100UXJbs8GCCCAAAIIIBA6AQJYobPmSAgggAACCCCAAAIhEDhw4ID169fPhg8f7teqgnXr1rXHHnvMGjRoEILecQgEEEAAAQQQSI0AAazUqPEZBBBAAAEEEEAAAc8JHD9+3GbPnm3NmjWzXbt2Jdm/Cy+80GVaDRo0yCpWrOi5sdAhBBBAAAEEEDhbgAAWVwQCCCCAAAIIIIBAxAscPnzYGjZsaD/88IOp7lVSrXr16jZ+/Hi79NJL7bzzzov4sTMABBBAAAEEYkGAAFYsnGXGiAACCCCAAAIIRKmAsq5efPFFV7tKxdoTawpUtWjRwtXEKl26tKVPnz5KRRgWAggggAAC0SlAACs6zyujQgABBBBAAAEEol5ARdp79uxpc+fOTTJwpRpXPXr0sBo1akS9CQNEAAEEEEAgWgUIYEXrmWVcCCCAAAIIIIBAlArs37/fnnvuORs6dGiSI8yXL5/bpmnTpkwVjNJrgWEhgAACCMSOAAGs2DnXjBQBBBBAAAEEEIh4gRkzZljz5s1NQaykal117NjRBgwYYNmyZYv4MTMABBBAAAEEEDAjgMVVgAACCCCAAAIIIOB5gT/++MO6dOliX3zxhZ06dSrR/l5//fU2ZMgQU6H2dOnSeX5cdBABBBBAAAEE/BMggOWfE1shgAACCCCAAAIIhEHg4MGD9u6777paV0ePHk20B7ly5TJlXT377LNMFwzDeeKQCCCAAAIIBFuAAFawhdk/AggggAACCCCAQIoFND1w+fLl1qhRI9u0aVOin9dqgmXLlrWZM2eaglg0BBBAAAEEEIhOAQJY0XleGRUCCCCAAAIIIBCxAsq0uv3222327Nl24sSJRMdRsGBBGzdunFtdkOmCEXu66TgCCCCAAAJ+CRDA8ouJjRBAAAEEEEAAAQRCIfDrr79a+/btTf9MrCnrqmvXrtatWzfLnTt3KLrFMRBAAAEEEEAgzAIEsMJ8Ajg8AggggAACCCCAgLnC7GPHjnV1rBKrdaUsq/Lly7vtSpQoARsCCCCAAAIIxJAAAawYOtkMFQEEEEAAAQQQ8KLAoUOHrFq1arZ48eIku6di7i1atKBIuxdPIn1CAAEEEEAgyAIEsIIMzO4RQAABBBBAAAEEEhf48ssvrUOHDkkWar/hhhtsypQpVrRoUSgRQAABBBBAIEYFCGDF6Iln2AgggAACCCCAQDgFjh07Zs8995wNGTLE9L99tRw5cli/fv2sU6dO4ewqx0YAAQQQQAABDwgQwPLASaALCCCAAAIIIIBALAn88ccf1qhRI1uxYoXPYZ933nku22r69Ol25ZVXxhINY0UAAQQQQACBRAQIYHFpIIAAAggggAACCIRMYMyYMS6j6vDhw4kes127djZ06FDLlClTyPrFgRBAAAEEEEDA2wIEsLx9fugdAggggAACCCAQFQIHDx601q1b2yeffGL//fefzzHlz5/fRo8ebQ0aNIiKMTMIBBBAAAEEEAicAAGswFmyJwQQQAABBBBAAAEfAj/++KO1atXKNm7c6NMnXbp0VqtWLdMqgwULFsQQAQQQQAABBBA4R4AAFhcFAggggAACCCCAQFAETp48aQ8//LC99957ie5f0wT79u1rPXv2DEof2CkCCCCAAAIIRIcAAazoOI+MAgEEEEAAAQQQ8JSAalzVrFnTFi5caKdPn/bZtyJFiti0adOsTJkynuo7nUEAAQQQQAAB7wkQwPLeOaFHCCCAAAIIIIBARAusX7/eHnzwQZs7d67PcWTIkMHatm1rAwcOtGzZskX0WOk8AggggAACCIRGgABWaJw5CgIIIIAAAgggEBMCixcvtsaNG9vmzZt9jleF2gcPHmzNmzePCQ8GiQACCCCAAAKBESCAFRhH9oIAAggggAACCMS8gDKuNG3w+PHjPi0uvPBC27Jli+XKlSvmrQBAAAEEEEAAgZQJEMBKmRdbI4AAAggggAACCPgQeOmll6xXr1524sQJnz6PPPKIDR8+3LJkyYIfAggggAACCCCQYgECWCkm4wMIIIAAAggggAACcQL//feftW/f3t566y2fKOeff74NGDDAunfvDhoCCCCAAAIIIJBqAQJYqabjgwgggAACCCCAQGwL7N692+rWrWuLFi3yCZE1a1abNGmS1atXL7ahGD0CCCCAAAIIpFmAAFaaCdkBAggggAACCCAQewJr1661SpUq2b59+3wOPl++fLZ06VLLkydP7OEwYgQQQAABBBAIuAABrICTskMEEEAAAQQQQCC6BaZOnWodOnSw7du3+xyoCrmPHTvWChcuHN0QjA4BBBBAAAEEQiZAACtk1BwIAQQQQAABBBCIbAEVaB83bpx17NjRjhw5cs5g0qVLZ/fcc4+NHj3asmXLFtmDpfcIIIAAAggg4CkBAlieOh10BgEEEEAAAQQQ8KbA8ePHrXfv3qbVBn21DBkyWKdOnWzw4MGmQBYNAQQQQAABBBAIpAABrEBqsi8EEEAAAQQQQCAKBbTSYIMGDeyrr75KNHj1/vvv29133x2Fo2dICCCAAAIIIOAFAQJYXjgL9AEBBBBAAAEEEPCowJYtW6xRo0a2ZMkSnz3Mmzevffjhh3bTTTd5dAR0CwEEEEAAAQSiQYAAVjScRcaAAAIIIIAAAggEQWDOnDl26623+qx3pcOVKVPGZWVpxUEaAggggAACCCAQTAECWMHUZd8IIIAAAggggECECkycONHuv//+RHtfu3Zt++abbyJ0dHQbAQQQQAABBCJNgABWpJ0x+osAAggggAACMStw+PBha9mype3bt88qV65s/fr1C3jBdK002K1bN7eS4L///uvTulevXvbUU09Z5syZY/ZcMHAEEEAAAQQQCK0AAazQenM0BBBAAAEEEEAgVQIKWpUoUcJ2797tPn/eeedZnz593E+g2t69e61Lly6m7KtTp06ds9ssWbLYkCFDrHXr1pY+ffpAHZb9IIAAAggggAACyQoQwEqWiA0QQAABBBBAAIHwC6xYscJKly59VkfSpUtnJ0+eDEjnNm/e7KYMqu6Vr5Y7d24bN26c1a1bNyDHYycIIIAAAggggEBKBAhgpUSLbRFAAAEEEEAAgTAJ/PLLL27aYMJ2+vTpNPdo165dVrRoUdMURV9NKw3Onz/fChcunOZjsQMEEEAAAQQQQCA1AgSwUqPGZxBAAAEEEEAAgRALaOpe9+7dzzrqJZdcYnv27ElTT9asWWMVKlSwAwcO+NxPrVq17IMPPrA8efKk6Th8GAEEEEAAAQQQSIsAAay06PFZBBBAAAEEEEAgRAJ33HGHTZs27ayjtW3b1kaOHJmqHnz66afWpk2bMzW1Eu5E0xNV60r7V70tGgIIIIAAAgggEE4BAljh1OfYCCCAAAIIIICAHwKaJqgaVCqyHr8pM6pp06Z+7OHsTbS6oDKqDh486POzClgNGjTIrUZIQwABBBBAAAEEvCBAAMsLZ4E+IIAAAggggAACSQjs3LnT8uXLd9YWypBatmyZlSxZMkV2//33n5UrV86WLl3q83NaXXDKlCmmjC8dg4YAAggggAACCHhBgACWF84CfUAAAQQQQCCCBU6dOmWHDh1yNZSOHDniVsVTBo9+zj//fMuSJYtlzZrVLrzwwggeZXi77quAuzzXrl1rl156aYo698UXX1iDBg18fkbna+LEidakSROmDaZIlY0RQAABBBBAINgCBLCCLcz+EUAAAQQQiHABBad27NhhygLavn27rVy50tatW2fr16+3bdu2uRpKGTJksIwZM7qAlbJ2FNRSUzDr+PHj7kcBl/z587uV7IoVK2YlSpSw4sWLu6lsyi7SP7Uf2rkCo0aNsnbt2p31H3LkyGGbNm2y7Nmz+02m81GzZk2bPXv2OZ9R5tXLL79sjz/+uN/7Y0MEEEAAAQQQQCBUAgSwQiXNcRBAAAEEEIgAAdVaOnHihKu1pPpKysbRNDX9ewWmlE1VpUoVu/HGG+26665zQagiRYq4wFVyTfvcsGGD259+FET5/fff3fEUWNG+GzZsaC1btrSqVau6gJiCKjSzVq1a2bvvvnsWRd68ee3PP/9MkZEKtzdu3PgcUp1bnevU1NPi/CCAAAIIIIAAAqEQIIAVCmWOgQACCCCAgMcF/vrrL3vvvffcKndbtmyxf/75x2666SarV6+eq5ek7KhLLrnEsmXLFtCpZcrM2rdvnwuYbd682b777jv7/PPPTf0pWLCglSlTxh588EG79dZbYzY76/Dhwy5zLWHB9Ro1atgPP/yQoiurVq1a53xG53X69OnuPLPaYIo42RgBBBBAAAEEQihAACuE2BwKAQQQQAABLwmsXr3aVA9JASNlRCmrSkGr6tWru/990UUXhaW7yvZSMGvOnDkuS0tBGk1jvOWWW6x+/fp2++23x1Q9rWHDhtkTTzxx1rnQdExlsymw5W+bNWuW1a5d22W7xW9t27a1N954g+CVv5BshwACCCCAAAJhESCAFRZ2DooAAggggEB4BJRZtXjxYuvfv7/9+uuvrhbV/fffbw899JDlzJkzPJ3y46jq6/Dhw11QS7W4evToYQ888IAVLVo0RVPo/DiU5zYpX768O1fxm6ZY+qpjlVjntfJg2bJlbdWqVWdtonOuYKGK7NMQQAABBBBAAAEvCxDA8vLZoW8IIIAAAggESEBZTf369bPBgwfbv//+a71797bOnTu7LKtIqjOlKYfKPHr44Ydt4cKFLoD14YcfWunSpQMk5a3dqD6Ygks6Z/Hb0KFDrUsdkREiAAAgAElEQVSXLn53VoX3r7322nOyr7p3726DBg3yez9siAACCCCAAAIIhEuAAFa45DkuAggggAACIRBQLSkFqz777DO34p8CFlqFTrWsIr1pCuTHH3/sAjBXXXWVderUyWVlRVPr2rWrKVgVv2n64NatW11NMn9b5cqV7ZdffjlrcxXe12qShQoV8nc3bIcAAggggAACCIRNgABW2Og5MAIIIIAAAsETUIBj9OjRNnLkSNMUNGXr1KlTJyrrHKm4+SuvvOKK0Gslw759+9ptt91mF1xwQfCAQ7BnTfdU8XxlncVvWpFwzJgxKerBxRdfbH///fdZn5FTnz59UrQfNkYAAQQQQAABBMIlQAArXPIcFwEEEEAAgSAIHDlyxKZMmWLt27d3GVcKdFx//fVBOJL3dqk6Ty+88IK9+uqrdsUVV9iECRNcja9IXVlPNa6qVat2DvRXX33lCtqnpGn6qH40lVRNU0fXrFnjVnqkIYAAAggggAACkSBAACsSzhJ9RAABBBBAwA8BrTKnYuwHDhywadOmWbly5UzTxGKt7du3zwYOHOhW1rv11ltdICtcKyqmxd7XtL+MGTOaxpfS8Si4JxNNR7z66qvtgw8+cPXDaAgggAACCCCAQKQIEMCKlDNFPxFAAAEEEEhEYM+ePW6K4IwZM6xbt24u+4pV5cx+++03e+qpp1zRd2UfabXFSGnHjh2zzJkz26lTp87qcq9evey5556LlGHQTwQQQAABBBBAIGACBLACRsmOEEAAAQQQCL3Al19+aY8++qjLptF0QU2Zo50t8Nprr7mphSpe//LLL1u+fPk8T7RkyRK77rrrzuqnVovcsmWLFShQwPP9p4MIIIAAAggggECgBQhgBVqU/SGAAAIIIBACgRMnTrjA1fjx423IkCFuBT5a4gKadnfzzTfbihUr7Oeff3bTK71cG0sF6Vu2bHnWgPLmzWvr169P8fTBpK6LkydPmrK91DJlymTp0qXjMkIAAQQQQAABBDwpQADLk6eFTiGAAAIIIJC4wMaNG61+/fou2DBp0iQrWbIkXH4IKFCjgF/37t2tXbt29vzzz/vxqfBs0rVrV1evKn676qqrbOXKlaZMrEA01cVSjTAF9HQtaZXKTz75xDJkyBCI3bMPBBBAAAEEEEAgoAIEsALKyc4QQAABBBAIroCKs3fo0MFuu+02Gzx4sGXPnj24B4zCvf/www/22GOPuWLmb7/9tl188cWeG2XdunVNqw3Gb82aNbOJEycGrK+qp6XC7vHbqFGjXGYfDQEEEEAAAQQQ8JoAASyvnRH6gwACCCCAgA8BTfVSsEVFyfWjLCJa6gV27txpDRo0sL///tumT59uxYsXT/3OgvBJBSa1mmT8Nm7cOHvggQfSfLTTp0+7qZQPPvigLV68+Kz9KTNNqzfSEEAAAQQQQAABrwkQwPLaGaE/CCCAAAIIJBBQwEFZV8qO+fHHH61q1aoYBUBAU+iaN2/uMp3mzJljpUuXDsBe076Lo0ePuhUIE7Zdu3ZZ7ty503yAyZMnu3ErKJqwtW3b1kaOHJnmY7ADBBBAAAEEEEAg0AIEsAItyv4QQAABBBAIoICCLMqU0bS3b7/9lnpXAbTVrk6dOuVWKNTqhB988IGrCRXupppUCYOUCmgdPnw4TV07dOiQy95TgMpX8Eo719TK119/PU3H4cMIIIAAAggggEAwBAhgBUOVfSKAAAIIIBAAgePHj9s999xjmzdvti+//NIKFCgQgL2yC18CCup07NjRpkyZYnfeeWdYkV577bVzVpW8/vrr7bfffktVv3bv3m3a50svvWS6phJrKg6v68wLQbxUDZQPIYAAAggggEBUCxDAiurTy+AQQAABBCJV4MiRI3bzzTe7Okia3pYzZ85IHUrE9PvDDz+0Fi1a2IQJE6xJkyZh63fLli3tvffeO+v4jRo1sk8//TRFfdJUxC+++MIVZVetr6SaViHU+MMdvEvRANkYAQQQQAABBGJKgABWTJ1uBosAAgggEAkCJ06csHr16tnq1att0aJFAal7FAnj9kIfVR/qoYcecplYt99+e8i7pHpn5cuXt4ULF5517Pbt29uIESP87s+sWbPc1NNt27a5aZJJNRWM/+abb+zGG2+08847z+9jsCECCCCAAAIIIBBKAQJYodTmWAgggAACCPgh0KpVK5s7d66pFlKuXLn8+ASbBFJAqz127drVvv76a6tQoUIgd53svlTzrGTJkrZu3bqztlWNrieeeCLZz0+cONHGjBnjaqYpGJZUu/TSS23SpElWpUqVZPfLBggggAACCCCAQLgFCGCF+wxwfAQQQAABBOIJdOvWzaZOnepWG1SAgRYegSFDhljv3r1t/vz5IV2dUFNHr7jiCtuxY8dZA9f0QU0jTKxt2LDBFaNX8Cq5wFXx4sWtT58+1rRpU1PdKxoCCCCAAAIIIBAJAgSwIuEs0UcEEEAAgagXUNDhk08+sebNm7ugybXXXhv1Y/byAHU+VA9LmUwrV640TbMLRVOtqnz58p1TbH3ZsmU+A2kKeL366qtudcHkWtasWW38+PFJBsKS2wf/HQEEEEAAAQQQCJcAAaxwyXNcBBBAAAEE4gloymCNGjVc0e1bbrkFGw8InDx50ho2bOiCSaoRFYq2d+9en9NGDx06ZFmyZDnThX/++ccGDBjgMq727duXZNcUfFNG2d133x2yQFworDgGAggggAACCMSWAAGs2DrfjBYBBBBAwIMCmv6lFQdVqFtTCCmk7Z2TtHv3bhdQrFy5sst0CvaUu8QCWLomVBurU6dOrrC/VgzUtkk1rSzYvXt369ixoxUsWNA7qPQEAQQQQAABBBBIhQABrFSg8REEEEAAAQQCJRC34mDmzJlNdY5o3hNQwKh69eouaFS3bt2gdjCxAFZKDnrhhRe64vOaLkgdtZTIsS0CCCCAAAIIeFmAAJaXzw59QwABBBCIeoEuXbrY559/bqtXr7aMGTNG/XgjdYAzZ860O+64w9XDUpH1YLW0BrCKFi1qX375pV111VVk8gXrJLFfBBBAAAEEEAiLAAGssLBzUAQQQAABBMwFQ8qVK2fTp0939a9o3hVQppxqSKlo+ldffRW0ju7fv98KFChgR48eTdExVKB91KhR1rhxY1MGFg0BBBBAAAEEEIg2AQJY0XZGGQ8CCCCAQEQIqPD2DTfcYA8//LD16tUrIvoc6508fPiwXXfddfbII49Yjx49gsKh1Q8HDRpkAwcOtIMHDyZ5DNW4qlmzprVq1cruueceMviCckbYKQIIIIAAAgh4RYAAllfOBP1AAAEEEIgpgX79+tnYsWNdFlb81eViCiECB/vRRx/ZY489ZuvXr7ds2bKFZARagVDHVA2uf//9184//3xXVH7kyJFWokSJkPSBgyCAAAIIIIAAAuEWIIAV7jPA8RFAAAEEYk5ARcGrVatmy5YtM9UsokWOgDKkWrdubYsXL7b58+dbhgwZQtJ5HXfXrl12/Phxd8w8efIEfUXEkAyMgyCAAAIIIIAAAn4KEMDyE4rNEEAAAQQQCJRA7dq1XSHw0aNHB2qX7CeEAlu2bHHnT8X3g70qYQiHxaEQQAABBBBAAAFPCxDA8vTpoXMIIIAAAtEm8MUXX7gMHmVf5c6dO9qGFzPjeeONN2zo0KGmbLpQTSWMGVwGigACCCCAAAII+BAggMVlgQACCCCAQIgEVMuocOHCrki3irfTIlfg5MmTVrJkSVfQvVu3bpE7EHqOAAIIIIAAAghEiAABrAg5UXQTAQQQQCDyBSZMmGCdOnWyzZs3W9asWSN/QDE+gilTpliXLl1s06ZNrAAY49cCw0cAAQQQQACB4AsQwAq+MUdAAAEEEEDA9u7da9dcc41bebBevXqIRInATTfdZFWqVLEXX3wxSkbEMBBAAAEEEEAAAW8KEMDy5nmhVwgggAACUSagmknDhg2z5cuXW6ZMmaJsdLE7nA8//NA6d+5sGzZs4LzG7mXAyBFAAAEEEEAgBAIEsEKAzCEQQAABBBAoUaKEq5Wkmkm06BE4ffq0FS1a1J599ll76KGHomdgjAQBBBBAAAEEEPCYAAEsj50QuoMAAgggEH0C48ePt4EDB9qKFSssQ4YM0TfAGB/R559/bi1atHC1sLJnzx7jGgwfAQQQQAABBBAIjgABrOC4slcEEEAAAQTOCFSqVMluueUW69evHypRKLBv3z4rVKiQTZo0yerXrx+FI2RICCCAAAIIIIBA+AUIYIX/HNADBBBAAIEoFjhw4IAVKFDAZV8VKVIkikca20Pr0aOHq282Y8aM2IZg9AgggAACCCCAQJAECGAFCZbdIoAAAgggIIGHH37Yjhw5Yh988AEgUSxw7Ngxy507t82fP9+uvvrqKB4pQ0MAAQQQQAABBMIjQAArPO4cFQEEEEAgBgT27t3rsq+UlVOrVq0YGHFsD1HnuEKFCvbCCy/ENgSjRwABBBBAAAEEgiBAACsIqOwSAQQQQAABCcyaNcvq1KljO3futIsvvhiUKBd44403bMyYMbZw4cIoHynDQwABBBBAAAEEQi9AACv05hwRAQQQQCBGBNq2bWuHDh2yCRMmxMiIY3uYhw8ftly5crnVCPPmzRvbGIweAQQQQAABBBAIsAABrACDsjsEEEAAAQQkcPToUcuTJ48r3l64cGFQYkSgSZMmdvnll9uQIUNiZMQMEwEEEEAAAQQQCI0AAazQOHMUBBBAAIEYE/jqq6/s0UcftT/++MPSpUsXY6OP3eGOHTvWnnvuOVuzZo2df/75sQvByBFAAAEEEEAAgQALEMAKMCi7QwABBBBAQAJPPvmk/fbbb/bNN98AEkMCy5cvt8qVK9v69euZRhhD552hIoAAAggggEDwBQhgBd+YIyCAAAIIxKBA9erV7a677rKOHTvG4Ohjd8inTp2yHDly2MyZM10gi4YAAggggAACCCAQGAECWIFxZC8IIIAAAgicETh58qTlzJnT1b8qVKgQMjEmoOL9aqNGjYqxkTNcBBBAAAEEEEAgeAIEsIJny54RQAABBGJUYNasWda6dWtbt25djArE9rB/+uknu/vuu2379u2WPn362MZg9AgggAACCCCAQIAECGAFCJLdIIAAAgggECfQvXt327p1q02aNAmUGBRQ4Kp48eK2cuVKK1KkSAwKMGQEEEAAAQQQQCDwAgSwAm/KHhFAAAEEYljg9OnTVrFiRbvzzjutZ8+eMSwRu0M/ePCgFStWzCZMmGB16tSJXQhGjgACCCCAAAIIBFCAAFYAMdkVAggggAACx44ds6uvvtqGDBnigli02BNQDbQSJUqYMvHatGkTewCMGAEEEEAAAQQQCIIAAawgoLJLBBBAAIHYFTh06JCbNvb9999bmTJlYhcixkferFkzy5Mnjw0fPjzGJRg+AggggAACCCAQGAECWIFxZC8IIIAAAgg4gX379ln+/Plt165dlj17dlRiVGDEiBE2ffp090NDAAEEEEAAAQQQSLsAAay0G7IHBBBAAAEEzgj8+uuv1rhxY9u2bRsqMSywYMECu++++2zDhg0xrMDQEUAAAQQQQACBwAkQwAqcJXtCAAEEEEDA3n77bZs8ebJ98803aMSwwOHDhy137tymgu7p06ePYQmGjgACCCCAAAIIBEaAAFZgHNkLAggggAACTuDxxx83FfHWFDJabAvkzJnTli9fbpdeemlsQzB6BBBAAAEEEEAgAAIEsAKAyC4QQAABBBCIE6hfv75Vr17drUBHi22Byy+/3GXjlS9fPrYhGD0CCCCAAAIIIBAAAQJYAUBkFwgggAACCMQJlCxZ0p599llr2rQpKDEuULZsWevfv781bNgwxiUYPgIIIIAAAgggkHYBAlhpN2QPCCCAAAIInBHIlSuXTZo0yWrXro1KjAtUqlTJ2rVrZy1atIhxCYaPAAIIIIAAAgikXYAAVtoN2QMCCCCAAAJO4PTp05YxY0abN2+e3XjjjajEuECtWrXcipQdO3aMcQmGjwACCCCAAAIIpF2AAFbaDdkDAmEVOHbsmK1YscL9bNy40TZv3mx//fWX/fPPP7Znzx73QB3XsmfPbtmyZbM8efJYwYIFrWjRonbllVdamTJlLF++fGEdBwdHIBoE/vvvP7vgggts0aJFpuljtNgWuPXWW10mHvXQYvs6YPQIIIAAAgggEBgBAliBcWQvCARdYNmyZTZnzhxbsGCBbd261bZv3267d++2AwcOWKFChaxIkSKWN29eF4hSoCpr1qzu57zzzjvTtyNHjpiWdo8LbinQ9eeff7rAlx68teS79qHgVunSpa1KlSqmKTDaDw0BBJIXUEA5c+bMLoB17bXXJv8BtohqgXr16lnVqlXt6aefjupxMjgEEEAAAQQQQCAUAgSwQqHMMRBIoYACTUuXLrXffvvNvv/+e/eTKVMmK1asmGlVq1KlSrmfEiVKuP+fLl26FB7h3M337t1ra9assdWrV7tjr1+/3v744w/btm2bC2bdfPPNLpilh/LLLrsszcdjBwhEowABrGg8q6kfkwJYlStXtl69eqV+J3wSAQQQQAABBBBAwAkQwOJCQMADAprmd/DgQduwYYO98sorrgC0AlYFChSwu+++21q2bOkCVeFoCqZ9+umnNnbsWBfYUj+LFy/uHshq1qxpOXPmtAwZMoSjaxwTAc8JMIXQc6ckrB1iCmFY+Tk4AggggAACCESZAAGsKDuhDCfyBJRl1bdvXzc18OjRo9a8eXO3apWCVwoOpU+f3jODOnTokKurNXPmTBs0aJCbwqjAmvrbunVrAlmeOVN0JFwCCkbrd1a/zxRxD9dZ8M5xlbnaqFEj69Spk3c6RU8QQAABBBBAAIEIFSCAFaEnjm5HtsDOnTvt7bffto8//thN0VOWVYMGDVytlIsuuihiBqe6XF9//bVNnjzZ1eW67bbbrFWrVlatWrWIGQMdRSDQAhdffLF99NFHphXoaLEtoOmDbdq0cVm0NAQQQAABBBBAAIG0CRDASpsfn0bAbwFlZqxatcreeecde/PNN+3qq692wZ4HH3zQsmTJ4vd+vLihxvbzzz/b8OHDbfbs2S4rq0+fPi4gRwF4L54x+hRMAdWm69+/v91zzz3BPAz7jgABrUTZr18/l4VFQwABBBBAAAEEEEibAAGstPnxaQSSFVBwRxlX9913n1tFsGLFivb+++9HbSF01QB64YUX7KWXXnKrsb333numOjBemgqZ7EljAwTSIFC3bl13zXfp0iUNe+Gj0SBQtGhR9/def/dpCCCAAAIIIIAAAmkTIICVNj8+jUCSAtu3b7f27dvbDz/84KYJPvHEE3bllVfGRDBHtbI+++wzt3z8JZdc4rIQ7rrrLq4YBKJeoEOHDpYxY0YbNmxY1I+VASYtkCtXLlu0aJEVKlQIKgQQQAABBBBAAIE0ChDASiMgH0fAl8COHTts6NCh9sYbb9gdd9xh3bp1M00licV24MABGzVqlFtdUdMmtXph9erV7bzzzotFDsYcAwIjR450wdsZM2bEwGgZYmIC//77r+XIkcO0+AUrtXKdIIAAAggggAACaRcggJV2Q/aAwBmBEydO2LRp00wZGPnz57dx48ZZqVKlEDJzKyx27tzZpkyZYs2aNbPevXtb3rx5sUEg6gTmzp3rVhPduHFj1I2NAfkvsHjxYpd1umHDBv8/xJYIIIAAAggggAACiQoQwOLiQCBAAnv37rVKlSq51fjGjx/vMq946342blw9MK3OtmXLFlfQ/t577w3QGWA3CHhDYN++fZYvXz7TPyNpVVFv6EVPL0aPHu1Wo/zmm2+iZ1CMBAEEEEAAAQQQCKMAAaww4nPo6BFQrRsVLVfQ6tlnn7WCBQtGz+CCMBJlqk2aNMlNrSxXrpyNHTvWVCuGhkA0CBw8eNAKFy7sFm245ppromFIjCEVAlplVgtZvP7666n4NB9BAAEEEEAAAQQQSChAAItrAoE0CKhI+2OPPWbLli1zK+/dc8891HZKgeemTZusU6dOrsix6oU1bNgwBZ9mUwS8KXDs2DErUaKEq/vGNe3NcxTsXp06dcoFL/X3Td8RNAQQQAABBBBAAIG0CxDASrshe4hBAU2Fmz9/vtWoUcMtjz516lTLmTNnDEqkfciyVMF71cTSio0DBw50K7jREEiJgBYL0JQ9LQ6g2mqZMmVKyccDuq2u6RtuuMHVelOWIS32BFS4vVixYvbuu+9a3bp1Yw+AESOAAAIIIIAAAkEQIIAVBFR2Gf0CCrJoyuCQIUNM00QIuKT9nK9cudLq1avnagb99NNPdskll6R9p+whJgQ0ZU8ZT3/99Zcb7xVXXOGyIi+88MKwjb9jx462f/9+Vw+PFnsCWolWAawlS5a4f9IQQAABBBBAAAEE0i5AACvthuwhhgS0LPqjjz7qAixvvvmm1alTJ4ZGH/yh7tq1y9q1a2crVqxwdbEqV64c/INyhIgXuOWWW84plP3UU0/Z888/H7axzZw507p27WoKzNJiT2DBggWm63LPnj0s5hF7p58RI4AAAggggECQBAhgBQmW3UafgOpd3XffffbPP//Yxx9/7LI8aIEX0PQrTbuaOHGiC2Jp+o2mhdEQSEzg2muvdRlX8Vvu3Lndv9NqgOFoCnbnyZPH1q1b56Y00mJLQH/DFJAfN25cbA2c0SKAAAIIIIAAAkEUIIAVRFx2HT0Ceot+4403upXytLJYOOvrRI9q0iN55513XE2sKVOmWIMGDQhixcqJT8U427Zta6NHjz7nkwpsLVy4MGwZMMog1BTj1q1bp2JUfCRSBRSEV9BSQXiydCP1LNJvBBBAAAEEEPCiAAEsL54V+uQpgW3btlmVKlWsVq1aNmrUKLvgggs81b9o7YweAr/99lu3ituAAQPcdCwaAr4ETpw4YTfddJPNmzfvrP+szD0tsvDDDz+E5ff2iSeesDVr1tj06dM5cTEkoHOuFx7r168PWwZgDHEzVAQQQAABBBCIIQECWDF0shlqygWWL1/uAlctWrRwRdszZMiQ8p3wiTQJ/Pjjj3bvvfeaimI/88wzadoXH45eAQWp9Lvqq915550uGybUmZOfffaZdenSxQUymAYbvdde/JH9999/psClVh8cNGiQtWnTxtKnTx8bg2eUCESZgBbiUAa+VrhV+YjDhw/bkSNH7OTJk6bfdTUt4qPf8SxZsrif7Nmz28UXX+wy9vW/aQgggAACgRUggBVYT/YWRQIqJF69enVX9+rVV1+1dOnSRdHoImsoP//8s91xxx3Wo0cP93DIA2Fknb9Q9Vb10r766iufh6tfv7598sknIV0x9MCBA1agQAH7448/XD0sWvQLJLwGH3roIRs6dCgPstF/6hlhBAqcOnXK/v77b9u7d68LVGnV0EWLFrl//v7776bsXr340I+y7xWs0o9eSMTdhyiYpYxxBbT0c+zYMVMNRAW6tBLuVVddZdddd53dcMMNVrp0aRfYUoArZ86cvNiIwGuGLiOAQPgFCGCF/xzQAw8K7N6920qWLOmmr7311lvcZHjgHM2fP9+tSqjVHx9++GEP9IgueE1ADwyqPXTo0CGfXQtHTaz777/fcuTIYSNGjPAaF/0JgoCydPVAG7/pmtS0Ql0HNAQQCL+Asut1b6cFeRTAUuBJwSxN/a1WrZqbkq6gkwJNenmpHwWt4v6ZcAQKYMX/0b70o3vJxYsXu5Wr9aP/rcCX/k5ogZG77rrLZWkWL148/Cj0AAEEEIgQAQJYEXKi6GboBPQQrBuXmjVr2uuvv062T+jokz2SMrHq1avnMuIefPDBZLdng9gTOHr0qKtZpwcFX00F1RUEDVX7+uuvXSB8586dZOGECj2Mx9EDrh5kE7bMmTPbqlWrrHDhwmHsHYdGIDYFfv31V5s0aZKrk6jMKgWQbrvtNqtRo4ZdeeWVVrBgQcufP3/QM3SVmbVjxw77888/XVB71qxZrkai+qN+VK1a1Zo2bWp62UJDAAEEEPAtQACLKwOBeAKqc6Bpg0r5njBhQshr5nAykhf44IMPrFOnTu783Hrrrcl/gC1iTkB1SmrXrn1OUXdBKMCQMEMmmEAKXGkaod6+K7BGi26BIkWK2ObNm30OUpmjCp4yHT26rwFGF34BvYhcsGCBCw5NnTrVDh48aBUqVHCZVbfccoubyueVuoQKeOuFi6a/z5492/VbU86bNGni7nHKlSsXlkVIwn8W6QECCCBAAItrAIEkBZRCrqwevaFbunSpZc2aFTGPCgwePNiGDBliqlOWO3duj/aSboVTQA8wekhR/amEzVeGTDD7qvpteiAJZeZXMMfDvn0L6DtE04IUsFy5cqXPTKwPP/zQTRuiIYBAYAX0YkJT9pRp9fzzz7sXFSoF8fTTT7tAkFcCVsmNWt9Pn376qek+Z/Xq1abszd69e1vjxo1d/SwC4MkJ8t8DJaD7J02F9dW0YIGyFtUuv/xyt8iBkgDimn7vVP9RLxRTU7dW36eafq+p977u43zd123YsMFN+9UPLboFyMCK7vPL6FIg0KtXL7dSmWojXHTRRSn4JJuGWkA3pjpfY8aMcTd4fFmF+gxExvE0baR8+fLndDbUASw9VGnq2KZNmyjmHhmXTqp6+eKLL9qXX35p3333nVuFsG3btucEsXQzruuA1clSRcyHEPAp8Msvv7gFXnT/pgz6F154wWUu6fctUgJXCQcWV2BeWVlagXnr1q2uvMVrr71mZcqU4UpAIOgC+p7SYjS+ml7MKbvRKwEsTc/Vogl6NnjuueeCbsMBwitAACu8/hzdIwIq5PnYY4+5t16VKlXySK/oRlICmhKgt6p6A6Q3rloZiIZAfIHffvvNFeVN2EIdwNLxr7/+elfbRCtp0qJPQDf5mj44atQou+eee9zqZSrgP3ny5HMGq4dQTRNS3dik4OoAACAASURBVBsaAgikTkBZtioloBdZmrarDPp7773XBXdSk/GRul6E5lP6e6LvM5VQ0JiVWaZ6jvpbc/7554emExwl5gQUwNIsh+7du58zdmVdaTqumq8MLH3HLVu2zC26lJogckozsAhgxdblSQArts43o/UhoGKaKpipN3a6IaBFjoBuYEuUKGHt27e3nj17Rk7H6WlIBLwUwNIqhO+8845boj01N3MhAeMgqRZQ1lWjRo1s48aNZ6Y1Hz9+3K6++mqf0x/09loZv5oeREMAAf8FNCVp2rRpLstCWUrNmzd3dTFjZZXPvXv32ssvv2xTpkxxswWeffZZt7iNsk9oCARSQAGsUqVKmRZQSqr5CmBpGv26devc92LCex5lIWv2hAKzl112mTuGSrcoEK3FFXQtJwxg6TNa+EDfq/qMXgTFNT3HKVPxvvvuc1P09bJQTdMc69ate2Y7TUVcv369m9ao795LLrnELZ6QLVu2QLKxrxAIEMAKATKH8K6A/hBec801VrlyZRs3bpx3O0rPEhXQ1AGtGKlghd5K0hCIE/BSAEtZX7rp0vQP1TKhRY+Azq0y/e6++2578sknzxqYaoB07drV52D1VlvTDqlpEz3XAiMJnoBKByirQw+keiDW79ZDDz0UvAN6fM/6u/PKK6+4AJYewLXirV7oRVv2mcdPQ1R3Ly0BLF81sHTNatqhMiUVvIprSh7Q89j48eNty5YtblXQ+AGsgQMHWrNmzc6yVsalsi/1/fnRRx+579+ETYE1Ba103H79+rkfX9toZVJmcUTWpUwAK7LOF70NsID+KOoGYO3atTHz9i7AhJ7YnQqcaqqO6l+QTu+JU+KJTngpgCUQFeVVbSStOMV16olLJCCdmDFjhrVs2dLdKOuNb/ymh+7+/fu7n4RND+F9+/Z1BZppCCCQuID+lqvMgzIwXn31VZfVESsZV8ldF3v27HFlFBQo10qLmsasF7M0BNIqEOgAlrKu4jKnVKuqWrVqLigdV7Pq0KFD5wSwlC2VKVMmN0Pm9ttvd/9dpRh03c+fP9+9PFLxeC3qpFXkW7VqZW3atHFDv+CCC9zxVHJEBeE1HVLH1e+HPq97MWVuzZw5kwBWWi+WEH+eAFaIwTmcdwSUEqubIL21Un0aWuQK6Euvdu3a7jxqqhYZDZF5LvXGTTffKnoe13QDUqdOHXcTktI3ZF4LYP3111/uxumLL76wKlWqROZJotfnCGj6jor0v/HGGz6nh+rNsgpM678nrL+mbAm9FVbmFpkTXFwInC2wa9cuF/x9//333YOpHlz1IEo7V2D79u0uEKBsFAXU4zKzsEIgtQJJFXHXFMG4QKm/qxCqZptW4lW9YT1/xbXp06e74JTu3RNmYP3999/uvvDRRx89s/0PP/xgtWrVci+A+vTp4/59UjWwtDphsWLFbOzYse53gxb5AgSwIv8cMoJUCOituN5U6SFSGVi0yBfQm1nVMtObFE0ppEWWgIKQTZo0cQFlX003Ug0aNDDVDsqTJ4/bRFlMevumB3+9gdNNim5i4ppqJrRo0eKc3YWjiHtcJ5Q9oKkvehNJzZLIukZ99Va1r1RvQ9lXWbNmTXRA+s6pX7+++/uUsCkTS9kTPHBG/vXACAIjoN8XreiprItLL73UBbC0uiAteYGFCxe6wtk7d+50U7JuvvlmXuolz8YWPgTiVsvVvXXCprIrWrhEzZ8All7kKENZLyL/+eefc15IavEFBcUSBrD0YlPbx38xvW3bNleSQQul6BpXSyqAdfToUbe9+qt6x+qvAuFJfWdzQXhbgACWt88PvQuSgN5464+e5j3z1jtIyGHYrc6rvlQ1JZTzGoYTkMpDagU33byogGdKmh78lRKuGxH9LutGJ35wSv/dV7AqnAGs/fv3uzeBeqOoYqO0yBVQAWllBqqmmd4EJ9f0UK4pE3PnzvW5qQq+KzM4Z86cye2K/45A1Aro77jqXM2ZM8ctfKHaN2RVp+x062+NvmOU+dmwYUOX9UJDIKUCgZxCqIBqvnz5rHz58m7qX8KmYJRW2fRVA0sviOK3HTt2uBXIVfdKixkkF8DSf9dLbr0AjXvu0zOC/ra8/fbbPC+k9MLwwPYEsDxwEuhCaAUUudebvI8//vis1SlC2wuOFgwBPVCWLVvW7rzzTr8eKIPRB/aZMgFlpLRt2zbFwauUHeX/ttZNS/zioandT1o+pzR2BVtVs0GrSNEiU0APhR07dnTnMVeuXH4NIm7VW60k5qvpplxTDXWjTUMg1gTivg/0QmPYsGF2xRVXxBpBQMe7atUq69Chg+m+V/UXtWARDQF/BQIZwNJ3nr4n9aJG12XCphdBn332WdACWDqeAruaaqsg2Y8//mgvvfSSC6qp3AT3Yv5eFd7YjgCWN84DvQiRgAIcmu6hVFPNweatXojgQ3gY1RfStINly5adWc4+hIfnUCkQ0O+g3qCFMqDUuXNn92AU7laxYkW76aabXGF3WuQJ6A2wHq4VjFRdj5Q0Bbw0rUf1fXw1BVk1nVCrFGqpbxoC0S6g7wDVb1INS133yhxioYvAnHVNn9KCRbJVAWt9B2bIkCEwO2cvUS0QyACWnr+0uqAysfT9GVcKQoAqIaFpfSoFkdoMLP0N0fTEZ555xgYMGODXedG9oKbvKyurePHifn2GjbwhQADLG+eBXoRI4Ntvv3XTdjZu3Mg0jRCZh+MwClJqWpqCWQQpw3EGkj6mpvCp1oHeBmt1mIRN50w3M5oCqNoHKuIZiCCXbsZUJ+uSSy4JO4r+Fil4p7R2ihKH/XSkqAO6flV0XRlYepOsFZJS0/TG+fPPP3dvhX01LUyhqe56Q0xDIFoFtBqY6sMpM0IvNVhUJzhnWlMyFWxXdpv+dlH/JzjO0bTXQAaw5PLiiy/aU0895b4/n376aZf1pFUGtVCDXub5KuKu1Ub9mUKo/eu7WNf4mDFjzgrS6n5LQTK9NNSYdBz9fwW7Xn/9dVu/fr0VLVo0mk5d1I+FAFbUn2IGGF9Ab72vvPLKRFeLQis6BJYsWWKVKlVyb1UKFSoUHYOKolGo/kGNGjXOKrgeNzzdWGgK1SOPPOICWLrJUJBLqeW6ydGbu9Q21QKZNm1aaj8e8M/pTfhXX31lul612iItMgS0ApKm+CkY6u/UQV8jU1D2rbfessceeyzRgeshUzffqhtCQyDaBJYvX+5WE1NQRWUd9LBKC56AgoX6HtTfrnnz5rkXRTQEEhMIdABLLyOV6aRMK71I1EI2mhGjF5UKXC9YsMC2bt1qBQoUcDVN9XIvJQEsrYqoYJSyu5TJrMLtCtzq/lHf2dmyZXNBM91bKjNR/dEiEXqRyKI6kfV7QAArss4XvU2DwCeffOLS0nXDxJunNEBGwEeVIdGuXTv3RfbNN9/4XNo+AoYRlV1UjRNlyOmGJWHTtAatNqXMpMSaAlj16tVzQR+dZ92kKDU9ucLscYVsvTQt5a+//rLSpUu76R3xl4iOyhMfJYNStpRutG+77Tb3NjkQ7aeffnK/E7oefDXdbCvYqWkRTCkMhDj78IKAii8//vjjbsq/prZ56W+zF3yC1Qe9FNIUZQUMR48e7f6W0RDwJRDoAJaOoSmCffr0cUElBa+0Irx+/1977TX37zTFUC+GUhPAmj17tvXu3dsFwo4cOeICtMre0ssiZTu/9957pu9bvRQtXLiwW4BFz4WqPUmLLAECWJF1vuhtGgRuvPFGl6buz2pRaTgMH/WIgL4E9aZHS3ErbZgWfgEVzdQNg956JWy6UZo0aZLfCyvoJlw3I126dHE3Ook1pYUPHTrUGjVqFH4AHz3QDZdW3NI/mTrjyVN0plMKXikwrvp6eqsbyDoyWp1SQSxl5CXWdKOvB05fS5p7W47eIfB/AnqYnDhxoqs9o7pX+p2ihV7g+eeft+HDh7uMZy18Q7mF0J8Djvg/gbhgk+7r9F2oWlY0BJISIIDF9RETAkoP1cOhaiyQoh4Tp9wNUjdlmpqlpXlp4RPQA4umDdasWdNnsEkp3VoFRtN7k2vKtNIbvBtuuMESW8lN+9DNuKZd6W2bl2+GNJ7mzZu7bMG5c+cGNCiSnCX/PWUCv/76q1WrVs2dp+uuuy5lH/Zza72J1oNlYhmFupZVF0u1HJV9SEMgkgSULatMix49erjsaP0+0cInoCwsff9oMYp7772XIFb4TkXMHFlBKt2X6/tL2cXHjx93WVODBg1ytbFeeOGFmLFgoKkXIICVejs+GSECenhWJo6m6OiPIy12BDTPXhk4P//8s5UsWTJ2Bu6hkX799dduVSlN3fX1UJ4zZ05TTSF/skr0u6ypDy+//HKSWVeqaaAinqqtEgkP+UqjV02wq666ymWV0bwnsHbtWhcQHTlypN13331B66CyvJSF1aRJE5814nRg3fSrwLsC815YkCBoGOw46gR69uzpgiWzZs0y1auhhVdA38kKyN96661uWpe+q2kIBEtAwSq9qNSLmCxZsriAqe7TVfdK9aqUbJDaRVGC1Wf2600BAljePC/0KoACixcvdtkarDIRQNQI2pVWJFFxRgIDoTtpCjRpBchXX33VNG1Qb919NT18f/TRRy54k1xTbYSXXnrJ3Wwn1lQfqFOnTu7tvgJjkdQ0La1OnTruLeSDDz4YSV2P+r5qlSTVXVNBWU19CkVG359//unqXun3I7GmQK2WAWf6T9RfghE/QH0HKHil63ny5MksSuCxM6qAYrNmzax9+/ZuZTYaAsEQ0AsarUI4Y8YM27Ztm6tFpe/VW265xSUY6CUeDQF/BAhg+aPENhEt0LZtW9u4cWOStUUieoB0PkkBreDVokUL27x5c0gePGP5dKgWlbKpVGful19+SZJCBXsV3KpYsWKi2+kGR4HnhQsXuoefxAJh2oGmCKs+kGrdRWpTvTYVm1fGYFIukTq+SO23AoqrVq1yhWGV/RTKpiW+dcOvG31fTW+wFejSkuRkY4XyzHAsfwX0vTBkyBB75ZVXXE1KvVCkeU9AQSwtoNKvXz83YyESspe9p0iPEEAgFAIEsEKhzDHCJqBC3oUKFXKrWlD7KmynIewH1g3zww8/nORy9WHvZIR3QCuoaZqmrwLtCYemG2OlihcrVizRUR84cMDy5cvnljpOqimgoCLtyryKhiK0Wtmuf//+9vvvv7uUelp4BTStRteXzoeW9g5HUwZYmTJl3GpKibWCBQu6hQC06hINAS8JKAirxTZWrlzpyjnQvCswb948q1Klin344Ycus5OGAAIIeFGAAJYXzwp9CpiAVlhRvYUlS5aE/M15wAbBjtIs8O6777r0ZGXiaTohLXACKqSuZYhVDFYP2kk1Fe7UeVAB6lKlSiW5rabTKXsuqaai8JpWqKyrUGfGBE7w7D2pJokyBpcuXeoysbJmzRqsQ7HfZATef/99N51TWYVVq1YNq5cCuqr9puBmYk3XigK5CrqFYppjWEE4eEQIjBo1yhVonjlzJqusRsQZM/f3TqsFv/322+67moYAAgh4TYAAltfOCP0JqED16tVdcUpNr6DFrsCmTZtcto+CAhRzD8x1oIwrTdlTAElFyJNquXPntvvvv98ViM2fP79fHVBQSisT+mrK4FKmkqZOZciQwa/9RdJGmnKjBwdljn733Xeu2CkttAKffvqpCyROmDDBTev0StOiCG3atHFTohNr9evXd9N4marllbMWm/3Q3y4teDBixAhTLUpaZAjoJcpbb73lAuGffPKJVapUKTI6Ti8RQCBmBAhgxcypjr2B7tixw6644gpTMVymD8be+U844sqVK7tCkXqwo6VeYM+ePfbcc8+5pdB9rSoYf88qpN60aVMbPHhwioMwiQWwVOdn0aJFbmpwNDfVPFIAXgE6PQiSiRW6s63abApaDRgwwDp27Bi6A/t5JC2ScMcdd7isFhXF9dUU5FWxbG1HLRs/YdksYAJ6aXTddde574oOHToEbL/sKHQCypzTDIYVK1ZY9uzZQ3dgjoQAAggkI0AAi0skagWU7aG6JVq9jIaACoErgLVr166ozNoJ9hlWllWTJk1szpw5pulMybXbbrvNxo0b5wpLp2Z630MPPeRunhM2TaPSlMVYaPv373cPgQrWaTol08KCf9a1am21atXshRde8PSDt4JYyo649957E0VR4Er1bPQdyANo8K8djvA/Af3duuaaa1xBcNWPI4AamVeG/saodqiKu2sRCzKBI/M80msEolGAAFY0nlXGZPriVdFb1QPRKoQ0BBSAKVy4sCtOqgdUmv8CKsKrwJFqiCXXtBS3Vk1LrsZVcvvRNDrdPE+cONGtPqgHcL3J1wpJsfRA9M8//5imhCkT64svvuAhIrkLJw3/XdMGFRBSdmHr1q1TFXhNw+FT9VEthqDfk7lz5yb6eRV2HzhwoJvORUMg2AL6DtCCA6qlRM3JYGsHd//79u2zcuXKuVIcb7zxRnAPxt4RQAABPwUIYPkJxWaRJaA3gMpa+PXXX+2qq66KrM7T26AIaLqbAlc333wz0wj9EFYA6fvvv7eePXu62mHJNU3XffXVV02ZV6nJuEpu/7H83xXEUg2Zbdu2uWljrE4Y+KthzJgxbqU0BWoVEIqka1gBXgWNhwwZ4oK9vppW6HzkkUfctEjVpKMhEAwB/f7oe0CZjBdffHEwDsE+Qyywe/duVztU9S5btWoV4qNzOAQQQOBcAQJYXBVRKaApE926dbO1a9dG5fgYVOoEdGOtaTdKiaedK6CH3yNHjtj8+fPtgQceMBVqT67pIWX8+PFWr1695Dblv6dB4Pjx464uk1YmXLBggV199dVp2BsfjRNQDSkVK9ZUpylTprhst0ht+rummlea4ptYfTplxGg6asWKFU1BLRoCgRJQ3dErr7zSZc02aNAgULtlPx4Q0Hf8448/7spyEAD3wAmhCwjEuAABrBi/AKJ1+MqyUb0jZY/QEIgT+Pvvv61gwYKmN4pereegWl16oE4seKTMkGuvvda9Ca1QoYKdf/75aT7BethVwWdNFdSUpL179yZboF0Zju+9955b6YwC42k+BX7tQFlxzz77rL355ps2cuTIJOsf+bXDGN/o8OHDbrVHBWy1up8WDoj0puCVFqoYNmxYokPJlCmTq2enFRZpCARCQFmiytJRlp++vyIpgzEQ44/2fege4bHHHnN/K+fNmxeQ+45oN2N8CCAQPAECWMGzZc9hEtCNVK5cudz0wbJly4apFxzWqwK6Jp555hlXYNYLTQ/RWmZc0/RUx2bLli3JBo/i+q1siuLFi7tsHD08KLClH9X6Sq6pmP306dPdj1a5U60Lf5qO1a5dO/egQn0Tf8QCv80777zjgvOPPvqo9erVi/OQCmL9vslPD9qTJk3y63cmFYcJ20c01bRz584uYyKxpr8do0aNslq1aoWtnxw4OgQ0hfXjjz92910sGBAd5zThKHTPoMxNff9rkSQaAgggEC4BAljhkue4QRNQBouWn9+wYYPly5cvaMdhx5EpoOLMChq9//77YR2AAq0KHOlmUDeGXm/6XZKdAiaByPry+ni93j89KKoulgKKysbyJ2jp9TGFon9a4EPBHa1yefvtt5tqX0VrtsihQ4dcpubnn39ux44dS5T3ySefdAHRHDlyhOIUcIwoE9DUVU0ZXLFiBX+HouzcJhyOpq9XrVrVZWJphVwaAgggEA4BAljhUOeYQRXQVCilOu/cudOt3EVDIL6AMg70s2jRorDVgFGtnZYtW9rRo0cj4uS0aNHClPXD75O3TpfqN2m6tB4qVPevdu3a3uqgx3qjKZhaIe2jjz5ytfAaN27ssR4GpzuqeaXaXkkFsTSl+ptvvrFKlSoFpxPsNWoFNPVW141W76RFv4CmH2uhJL2AoyGAAALhECCAFQ51jhlUARWa3LNnjyskSkMgoYDqN6jQ8datWy1jxowhA1LmxxNPPGFfffWVrVu3zu9pgiHrYIIDlSlTxtq0aePqAmkZbQo+h+tMJH1cXVeqZaS/e8o8VUaRplDTzhb49NNPrWvXri4r991333VTb2Op/fnnny7LSpmniRV4l0fRokVd/UgtgqKVRWkIJCXQu3dvFzzX96pqq9GiX0ALvZQuXdpNUe7YsWP0D5gRIoCA5wQIYHnulNChtAqosLXm56s4Lw2BhAKaVqNVdDRtL1TFx1UUPW4qT3JnRIGiEiVKuALtl1xyyTmbK7NQhdb1c/DgweR25/d/17TA8uXLW506dVyATzeo0Tq1ym+UCNpw/fr17oFi+fLlpodKXW8EHc02bdpk/fr1sxkzZrgAln5i1UUZewre6frYvn17kld3+vTpXUZf06ZN3QqjefLkiaDfBroaCgEtGFCsWDEbPXp0zGQzhsI1Eo6hjOyBAwfaqlWrCFxGwgmjjwhEmQABrCg7obE+HE0RUQFRreBGIdFYvxoSH7+CM0OGDLFbb7016Eh6UNRxVB8ksaZAUf78+d00jJdfftnvOiJLlixx9XyU1aXi71pdMSVBLU0JvPzyy11Be71JpWZc0C+HoB9AGViqU6YgrbJtrrrqqpic+qmHa2WmKZNICxuowHSBAgWC7h8JB9ixY4cLTP34449+dVeZNap/p3p9+ntBpo1fbFG90alTp9wqqMrG+fLLL6N6rAzOt0C1atWsVKlSbvViXnZxlSCAQCgFCGCFUptjBV1g5cqVLoMkubfLQe8IB/C0gFYfy5w5c5JLzQdiACq0rSwGPUwn1vQwqDfYyhhUn1Lbjh8/7h4mkqpzk3DfykRRoJei7KlV9+bnFMTU2/FXXnnFTSscP368C2jFStN0QQVbNEVYKwxq5axYzbpK7Jxr6qlqgTVv3twUjPCnyVN/L5Td99JLL/HQ6g9alG6zePFil7G7bNkyt5AELfYE5syZ46Ybr1271i699NLYA2DECCAQNgECWGGj58DBENBbdk0X0U0VDYHEBBQwevPNN+23334LGtLQoUPtmWeesX///dfnMZTtNGDAALvzzjstZ86cQesHO45NAdU5UtafrsOpU6fabbfdZn379nUZWdHYNN6xY8e6bADVt3vxxRdNxYbJxE36bGs1sR9++MEt0qBpqP62smXLukw/GdNiT0DfW3r5oixHgsOxd/41Yk1JVrmBiy++2N57773YRGDUCCAQFgECWGFh56DBEtBDi1Zc0g8NgcQEfvrpJ6tVq5YLLgV6ZT1lQqkW0ciRIxM9AZp68dZbb4WsBhdXQmwLKFviueeec6vMNWrUyE0H01LoqnMU6U3Ztqpv9cILL7gH6QcffNDVQCSrMGVnVhlZclSNLP191EIo/jRlPPfp08dNfyaQ4Y/YudsoEKCp4KqVqJcZCjYH+nspdT3z/alZs2a5wKUWBmA6aSBlI29f+vurBTGUjXXddddF3gDoMQIIRKQAAayIPG10OjEBTRvRTeCUKVNAQiBRgaVLl9oNN9xgKojuq1B6aulUg6py5cqJZjJccMEFNmrUKGvZsmVqD8HnEEi1wN9//21t27a16dOn24UXXuiuRU1x1WIGkVTDREFijUUZZar5lTdvXpfN+MADD0TUOFJ9IoP8QU1DViab6gQqkKXaksm1Bg0a2PDhw900aF1LOXLkMP29oyUv8OSTT7opmXFN3w/KJvRqa9iwoQu0kXXj1TMUun4p81XfIVq9VC/laAgggEAoBAhghUKZY4RMQG8FixQp4gph0xBITGDDhg1uKpVqN+jGKxBtwYIFLp1eCwj4anrIVrH1MmXK8JAdCHD2kSoBPXAo0KpsrKefftoOHz7satg89dRTbrEBL2dlKWg1bNgwmzhxosv+0IO0Hv7VfwXkaIEVOHr0qG3cuNHVUtOUa3+bMrEKFy5szz77rKuXRUtaQNdu/Knmyr7SdE4Zeq398ccf7jts3bp1buERGgKasn3NNde4FQkvu+wyQBBAAIGgCxDACjoxBwilgKYz1K1b1y2VTkMgMQEFmRToXLhwoWlFwrS0zZs3u4dq1dVKrN6Vpmsp26VkyZJpORSfRSCgApo29vPPP7tVxFQ/UNevrtUaNWq4t+rFihULa7BVmVazZ8+27777zk1r01RI9a9x48ZWr149K1SoUEA92FniApoqpIybESNGpGiRFK1aeM8991ibNm0C9rIg2s6TAn4KLMdv5cqVc9e+l7LYVOy/fv36Lkih7zsaAnEC+pusWliqpUdDAAEEgi1AACvYwuw/pAIVKlSwjh072v333x/S43KwyBJQJoeKqGsZea1QltKmh43ly5e7oJR+Ej58xO1P2SyaWjNu3DjqXaUUme1DLjBv3jxXA0nZhMpS1PRaPbDqxYCCRcoi1GqGwcjSOnTokO3atctlMGoRDgXVvv/+e8uVK5ddeeWV7vdIUwT1kEQLn4D+diqzSllw+/fv97sjCtJoxcMOHTq4Wjla0ZD2P4EqVarY3Llzz+F47bXX7LHHHvNMbTFlbqrekep1peZ7k/MdvQKalq7aisrGohZe9J5nRoaAVwQIYHnlTNCPgAgotV21JFQElYZAYgKaNqWHc92IK9vE36ZAlTKudH2tWbMmyY+pDkz//v3dSl00BCJRQIV5NXVs8uTJpmwtXf8KPKhgt35vypcv74IRCmyp+VNHS/tQTSX9/iijSplVCiRrapI+r4cfPSSrGPujjz7KCp0evXB0HhXcVOH3xAL4iXVd51g1tnR+/blmPEoQsG4pYHvttdf63J+y3lq0aBGwY6VlRyrNoP6wynNaFKP3s3rRoJWX9bebhgACCARTgABWMHXZd8gFNOVFGQSaZkJDIDEBPUCrcPW0adNc3R9/2meffebq7axevTrZzfWQr30TSE2Wig0iQECrpCk7Sj87duxw2YdLliyx33//3dXqOXLkiKtBpelOWv1PGVr6UXBCgS81TQfU75221b8rUKCAC1RpWm3ZsmXd/1Z27uIfVgAAIABJREFUV548eSx79uwRoEIXFbjSNGwFWJIL6PvSUhasMnlUf03B0FhuWkFZDgmb6mH17NnTLVIQznbw4EE3dXDq1KlWs2bNcHaFY3tUYMKECdapUydXn5CahB49SXQLgSgRIIAVJSeSYfxPQDdYn3/+uXsgoiGQmIAevLRa1kcffWS33357klAq9K5AlDJE/Gm6Bj/55BO78cYb/dmcbRCIeAFlNO7bt8+tDKjC3/pRsEqBr0yZMrmsqixZsthFF13kMqqU/RiMaYgRDxkFA1CQU1OmNcVQq736m52lv5fNmjVz9c1UnzDWmqbOKoNFU2kTNv3+KIDVvXt3U0ArHE1TxFSaQd+DWmGShkBCAU0f1MIDv/76q1vlmYYAAggES4AAVrBk2W9YBPRWX6trUSw7LPwRdVBlYI0fP96tHJhUK1GihMs0SarpIV1TQPSQoeLXNAQQQCDWBb7++mtXL0sZewpq+tu0mnC3bt3c97j+TsdKUxBY3yPbtm3zOeQePXpY7969XTA41K1ly5ZukYdJkyaF+tAcL4IEatWq5YJXgwcPjqBe01UEEIg0AQJYkXbG6G+SApqSMGvWLFPQgYZAUgIqBq2VlO6+++4koZKr0aI6MCNHjnRLipNVwjWHAAII/J+AsvA0/UzBl7ffftvvjCz9LVXGnmqsKaNLma2x0JTBpum0Bw4c8DlclUlYtGhRSAN7Cj4qa1LT55VhQ0MgMQFlrCuAtXfvXjednIYAAggEQ4AAVjBU2WfYBMjACht9xB1YD0eq2ZBcBpaWgd+0adNZ41NQq127dta+fXu75pprIm7sdBgBBBAItYAeblWw/6233nLTjPxtCmYpqHP99dfbXXfdZXXr1o3qGjsqkq6aYMeOHfNJpO8kWYZqOuHYsWPtlVdecXXvaAgkJXDq1Cm74oor3PXSsGFDsBBAAIGgCBDACgorOw2XADWwwiUfWceNq4H14YcfupW0kmpaKU11slS8WlM3VKfl+eefd2+kaQgggAACKRf45Zdf7J133nFT/rds2ZKiHagGk/4m33zzze5zeqGgzKDq1au7emvR0DZs2ODGo4LYvppW0PV3AZK0ejRq1MhlwI0YMSKtu+LzMSCgl4IFCxZ0K43SEEAAgWAIEMAKhir7DJuAiqDqbWGVKlXC1gcO7H2B1KxC6P1R0UMEEEAgsgSUsfHxxx9b3759XYFw1VlKbcuVK5f16dPHFHBJbup3ao+R2s9ly5bN9BO/aWVOLYCgKXrKplL/4wfg9KJFL1hmzJhxztRLbbdz5073mWA3FdVXsDEuYBjs47H/yBbQIja9evWyVatWRfZA6D0CCHhWgACWZ08NHUuNQKlSpVzxSK0aR0MgMYEjR46YamDpLXaNGjWAQgABBBAIo4BeKijbSAtrDBo0yOdqfGHsXpoOrWBa7ty5XZBOBeq/+OIL+/TTT11x+/3797saYaoXpGCViqTHD2JpGqGCAUOGDDmnD0WLFrUVK1YEdTrlmjVrrGrVqi4DOVRTFtOEzYfDLqDf5Tx58rhabZruSkMAAQQCLUAAK9Ci7C+sAhUqVLBOnTpZ8+bNw9oPDu5tgb///ttU8P+nn34yXTM0BBBAAAFvCCioM3XqVFcnS8GerVu3eqNjIejFzz//bJUrVz7rSMq00iIhyshK2LQqYb9+/YLWM9V6VIbYu+++G7RjsOPoE2jQoIFbgKF///7RNzhGhAACYRcggBX2U0AHAilQu3Ztl33VtWvXQO6WfUWZwF9//eVqpvz2229WunTpKBsdw0EAAQSiR2DOnDkuM0t1s1S8PLHi5tEw4mnTpp0pfq2AlRYQWbBggbVq1coFkhK2jh072quvvhqUoSuTRrWMVJD7vvvuC8ox2Gl0CmgmxOTJk921Gy116aLzTDEqBCJTgABWZJ43ep2IgNLzlbLsK90eNATiBFRrRfXS9DCkaRg0BBBAAAHvC6huVLdu3eztt9+2kydPug6rjtaJEye83/lkeqiphqobpBUXv/32W7vzzjtN092TasEMYG3fvt2KFStmc+fOtbJly0a8LwMIncD3339v999/v61fv94yZ84cugNzJAQQiAkBAlgxcZpjZ5BKd9+3b59780NDIDEBLVOuJdk1NYPVBLlOEEAAgcgVUKBF9aR69Ojh/ulrqp3XR6cXKpoK+N1337mVGTdv3uxXl4MZwFq6dKn7nvznn3/soosu8qs/bISABHQfrmmvynZXvVEaAgggEEgBAliB1GRfYRd4/vnnTW9+9PaShkBiApqSouLtmpKRMWNGoBBAAAEEEAi4gDKoXnvtNVeYXg/1agoGVa9e3S699FKXnaIMMmWqaLVB/e+UNBWG18qLwWivv/66m7o5b968YOyefUa5gLL2VKNNmYQ0BBBAIJACBLACqcm+wi6g5bhVNFJvDmn/j72zALeq6tb/uICENNJId3dJSUoISIOUgJQoHSINiiClIEiLICApJQ3SIQiSgqSkNEiH//t/3vnd47f3Wutwdu8V73gen+9ezlozfnPtvecac4x3kEBkBKZOnSpTpkxRGlg0EiABEiABEggEATigTp48aVhFEZFhiBDbunWr+u/ChQs+d4l0Q+g37t27V2LHju1zOy+7sXbt2srR1r1796C0z0btTaBv374qknDevHn2nihnRwIkEHICdGCFHDk7DCYBlJSGkDtKPtNIIDICHTp0kFixYilxWhoJkAAJkAAJ+EsAzqu33npLtmzZEnBNrtSpU8vIkSOlRo0aAucVDJFcMWLE8HfYkd4fP3582b9/v2TPnj1ofbBh+xJYv369NGrUSFD1mUYCJEACgSRAB1YgabKtsBOAwGvixIkFmhgJEyYM+3g4AHMSyJ8/v4wYMUJVrKSRAAmQAAmQgL8E9u3bJ8WKFfO3mX/vh5j7Bx98IKVKlZIiRYr867gKWAcvaQjRYbly5ZLLly9zLxUK4Dbs48SJEypKEM9Q8uTJbThDTokESCBcBOjAChd59hs0AthAInS5Tp06QeuDDVuXADRJICp648YNwQkzjQRIgARIgAT8JQABdkSA+2M4gKtYsaK0bNlSHbBEjx7dn+Z8vnfbtm3SuHFjVpHzmSBvxEEynLBIc82TJw+BkAAJkEDACNCBFTCUbMgsBFCVB1VzZs+ebZYhcRwmIoDNFLQ9Ll68SAF3E60Lh0ICJEACViZw/vx5yZEjhzx9+tSjaSAVECLuceLEUf9bsGBBJZpuhoOV77//XoYNGyaQZWChE4+WkxdpCNy/f18VKli6dKlyytJIgARIIFAE6MAKFEm2YxoC8+fPl65du6qw5WDqQ5hmwhyIVwQg3j5p0iQ5ePCgRIsWzat7eTEJkAAJkAAJREbgjz/+kCZNmsiBAwcML0FEFV7mGzRoIKVLl1bpedCyihs3rql+j0aNGiULFy4UpEXSSMAXAtCES5kyparCCS0sGgmQAAkEigAdWIEiyXZMQwAbrjfffFPOnj0rKVKkMM24OBBzEGjfvr2K0Pvhhx/MMSCOggRIgARIgARMRKBLly5y7do1/k6aaE2sOJQyZcpIzZo1pXfv3lYcPsdMAiRgUgJ0YJl0YTgs3wmg4gkEI+HIKlCggO8N8U5bEihUqJDaTEHfg0YCJBA4Av/7v/8rO3fulNu3b6u0qPLlyzMKNnB42RIJhIwAImaQDjlkyJCQ9cmO7EegY8eOqvgAot5pJEACJBAoAnRgBYok2zEVAZz6QOeoZ8+ephoXBxNeAn///bdybuIFG5ojNBIggcARgG5O8+bN/22wRIkSyqHFVN3AMWZLJBAKAhUqVJCmTZtKmzZtQtEd+7ApgTFjxqjfAOhg0UiABEggUATowAoUSbZjKgI//vijqkSIMr40EoggMHHiRFmwYIGgwhKNBEggcARQNAMvuy9evPi3Uej9nD59WjJkyBC4jtgSCZBA0Ankz59foINVpUqVoPfFDuxLAHtxPEe7du2y7yQ5MxIggZAToAMr5MjZYSgIQOMI1U8gpIoyvjQSQHoTtNHKlSsnQ4cOJRASIIEAEMDnat68edKhQwd58OCBrkVEYcFhzEpmAYDNJkggRAQyZsyoomZQGZFGAr4S2L17tzrYOH78uK9N8D4SIAES0BGgA4sPhS0JPH/+XPLly6eqEUK0m0YCT548UZEgEG+HI4tGAiTgHwE4r9auXSt16tSRp0+fRtrY4sWLpV69ev51xrtJgARCRiBZsmRKR5TRkyFDbsuOUJUT6aiXLl2y5fw4KRIggfAQoAMrPNzZawgIdO/eXc6dOycIYaaRwMGDB1X0FfSvYsSIQSAkQAJ+Eli2bJlyTKFc+ssM0bBnzpyRmDFj+tkjbycBEggFgcSJE6tKzvhfGgn4SuD69euSLVs2uXv3rq9N8D4LEkA0NqKvL168KG+88YasXLmS+24LrqOZh0wHlplXh2PziwC+OPPkySPnz5/nJswvkva4Gc6rsmXLyrBhw+wxIc6CBMJIALom/fr1E0S7emLt2rWTKVOmeHIpryEBEggzAVQRvXnzpsSNGzfMI2H3ViYAOY/UqVPLw4cPrTwNjt0LAo8ePVJOy8uXL/97V8OGDZX+LI0EAkWADqxAkWQ7piSAaoRvv/229OnTx5Tj46BCQ+DChQuSKVMm+e2335RTk0YCJOAbAaQNIiWwWbNm8uzZM10jSD1CRNatW7fc/oZKhEuWLJF33nnHt455FwmQQMgIQLMOL6LUrgsZclt2BOmGBAkSGP5W2HLCnJT67cc+AHuFCPuf//kf+euvv1QVcBoJBIIAHViBoMg2TEsAJXznzJkjSB/DFyjNmQS+//57pYeGqDycLNNIgAS8J4AN6bp166RmzZpu1QYjWkqTJo0cO3ZMkFrYunVrXWohTuKR1s1UQu/Z8w4SCCWBWLFiqbQv/l6Gkrr9+kIqGZwZjx8/tt/kOCNDApDpiDjIcr0A72OQdqGRQCAI0IEVCIpsw7QErly5oiJv4PlPlCiRacfJgQWXQNGiRVXESJcuXYLbEVsnARsTQAGEli1bGp6mx4sXT44ePSrp06dXJ6/4vKE6oashCmvHjh1SsmRJG1Pi1EjA+gSQOoj9U8KECa0/Gc4gbAQQjYOKln///XfYxsCOQ0sAsgK5c+eWU6dOuXWcOXNmOX36dGgHw95sS4AOLNsuLScWQaBt27Zy7do1WbFiBaE4kMDPP/8sTZo0UdFXTIdw4APAKQeEwOzZs+WDDz4w1DKB82r9+vVujqlDhw5JwYIF3dIIMJAUKVLI1atXGREbkFVhIyQQHAIQbz9+/LikSpUqOB2wVUcQgAYtDizwnU9zDoFvvvlG7RdcDVkwiMDGIReNBPwlQAeWvwR5v+kJHDhwQIoUKaIq6rAktOmXK+ADbNy4sap+gjRCGgmQgHcEoGc1d+5cadOmjaFgO15wt23bJlmyZNE1PGDAAPn00091/37y5Ekl8kojARIwJ4G0adPK2rVrVSQFjQR8JfDrr79Ko0aNGHnjK0CL3vfixQulfaZNHYWUx7hx4yw6Kw7bTATowDLTanAsQSHwzz//CMq49+jRQ3r27BmUPtioOQmg8g0iPvbs2UPxdnMuEUdlcgKbN2+WihUrGo4yZcqUcuLEiUjTjOCoQtEEbGZdDdUIUZWQRgIkYE4CcFwhigKVe2kk4CsBOEFRrRaOLJqzCLz77rsyf/58t0kjiAB7Bmjs0UjAHwJ0YPlDj/dahgBE3CtUqKCisBAaT3MGAaQO4uV50aJFzpgwZ0kCASSAl47KlSvLnTt3dK0i8grpudmzZ4+0Rxwe4O9nzpxxu6ZAgQKqsAaNBEjAnARKlSolH374oUq/p5GArwQmT54sK1eulJ9++snXJnifRQlAM1P7/RE9enSlrcdqhBZdVBMNmw4sEy0GhxJcAoUKFZK6detK//79g9sRWzcFAQj3I00Jm6dy5cqZYkwcBAlYhcDly5dV5BWiqLQGzatdu3ZJ3rx5o5zOrFmzpFWrVm7XQQsD4r48TIgSHy8ggbAQqF27tsCJ1bt377D0z07tQQDPz82bN2XmzJn2mBBn4TEBHHy99tprOh1MZEQUL17c43Z4IQkYEaADi8+FYwjgNKBv376qzPurr77qmHk7caKogoZce+ifQZ8HL8w0EiABzwigYtQbb7yhviu1Fj9+fPW5MtK8Mmodn0WkC6AykavBsYWKhjQSIAHzEYhI8Z06dar5BscRWYZAzZo1BYfHQ4YMscyYOdDAEcA+QRuBPWrUKMq5BA6xY1uiA8uxS++8ieNFqnz58kqUdOLEic4D4KAZHz58WJ3w/P777xTud9C6c6r+E3j27JlA28oobRCOKKT+5cyZ06uOUIUKp66uhhcbVob1CiMvJoGQEYDDYePGjbJ9+/aQ9cmO7EcgXbp0ynmljcK130w5IyMCHTt2FKSRulqtWrVk+fLlBEYCfhGgA8svfLzZagQgKAlhwdOnT0uSJEmsNnyO10MCzZo1Uy/geEFGzj2NBEjAMwLffvuttG7d2vDiBQsWSMOGDT1ryOWqXr16yejRo93uS506tSBNkUYCJGA+AtOnT1fVwnAYxN9Q862PFUaECnT4nkcV2+rVq1thyBxjgAlMmzZNV7AF715IK2VmRIBhO6w5OrActuBOny5KwtepU0eltKA6Bjdm9nsiNmzYoJyUR48eVRUIaSRAAp4RgNO3YMGC8ueff+pu+PLLL6VLly4vbej27dtKrBeFE6CfhdN3GPSyoKfjati84vuYRgIkYD4C69atk7Zt28off/whsWPHNt8AOSLTE7h+/bpkypRJtmzZIkWKFDH9eDnAwBOAhIeRBi00MBlEEHjeTmqRDiwnrTbnqghcunRJVcZCdE5k5eGJypoE8EJcuHBhqVatmgwfPtyak+CoSSBMBIwipTAUbEBRcfBlJ6b37t1Tn70IvQs4j48cOSLJkiVTIq7RokXTzQr/TiMBEjAfAZS6h9P5/PnzAt07Ggl4SwC/Bbly5ZJTp079e5jhbRu83toEoKOJYi/a33ocMEPOhUYCvhKgA8tXcrzPsgTwRTpo0CBZsmQJw+Mtu4rGA//0009l9uzZal15amyzxeV0gkoA0Vdp0qQRpH24Gk7Q8TL7yiuvvLT/MWPG6IRZGzdurCJdYUbOLzqwgrqkbJwEfCbw9OlTQbXRixcvKk08Ggl4S2Dv3r1SunRpefToUZS/H962zeutQeDKlSuSNm1aXbQ1NLCghUUjAV8J0IHlKzneZ2kC//zzjwpprly5snzxxReWngsH/x8CSHXASc+qVavUutJIgAQ8IwBHEr4PUV1Qa9AvQUpuVNazZ0+BE8vVEJG1f/9+9U90YEVFkH8nAXMRQCEUVPNt0qSJuQbG0ViCADTUkOmA6F2aMwk8efJEOcLxzuVq0Nhr06aNM6Fw1gEhQAdWQDCyESsSQF5+/fr1ZevWrQxlteICuoz54cOH8tZbb0nmzJll1qxZFIe0+Hpy+KElcO3aNUG56wcPHrh1XKlSJYGmnCfmiwMLKb8UcvWELq8hgdATGDBggIq+XLRoUeg7Z4+WJ1C1alV5++235cMPP7T8XDgB3wm89tprAn1MV+vWrZuMHTvW90Z5p+MJ0IHl+EfA2QCGDRsm48ePl7Nnz1LnwcKPAtZx5syZcvLkSYkZM6aFZ8Khk0DoCeCkvHv37rqOkf6HNEBPzBcH1ubNm6V8+fKeNM9rSIAEQkxgx44dSicUKWAseBNi+BbvDoU84saNqyp+I4WM5lwCH3/8sYwcOdINwJtvvsnIPOc+EgGZOR1YAcHIRqxKAJE7SHOBWOmMGTOsOg1Hj3v79u3qlG/jxo1StGhRR7Pg5EnAWwLQvsILBr4LXa1EiRKCz1aMGDE8ajIqB9brr78uly9fdmurQIECcvDgQY/a50UkQAKhJQAB95w5c6piDIjQpJGApwSQjg4pB1S0RQoZzbkE9uzZIyVLlnQDkCBBArl79y4jsJ37WPg9czqw/EbIBqxOAD+whQoVktGjR0urVq2sPh1HjR8v3ahk8v7770v//v0dNXdOlgQCQWDatGnSrl07t6ZQMRAOYW+io6JyYBmJvMM5Bu26jBkzBmIqbIMESCCABPD7isIOiMREZV8aCXhKAL8rSBGD89PTQxBP2+Z11iIA/StE46EwhKshOg+yHzQS8IUAHVi+UOM9tiMwb9486dKli3ppy58/v+3mZ8cJIa0BJ3wJEyaUlStXMsXBjovMOQWVANI80qdPL6gU5GopUqRQqR/enJxH5cBCpBUOCrS2evVqvhwHdZXZOAn4TgDakijw8Nlnn/neCO90HAEIdOP35bvvvnPc3DlhPQFEeV+6dMntDwsXLpQGDRoQFwn4RIAOLJ+w8SY7Eujdu7csXrxY6WHRzE9g8ODBqoIkfhSTJEli/gFzhCRgMgJ4uXjvvfd0o5o8ebK0b9/eq9FG5cBCpcNXXnlFV40IhTQoEu0Val5MAiEj8NNPP0mvXr3k+PHjIeuTHVmfAKJqUVCnXLly1p8MZ+A3AUi1aKsc9+3bV4YPH+5322zAmQTowHLmunPWBgQeP36sXuYgBL5t2zZBjjbNnAQgvI8fvt27dzP9yJxLxFFZgECmTJnk3LlzbiNFROOtW7e8jmiMyoGFTj799FNBZTNXg1MLadypUqWyADEOkQScRQDpP8mSJZNdu3ZJjhw5nDV5ztYnAnBU1KxZUy5cuOD174hPHfIm0xPA87Bq1Sq3cdapU0eWLl1q+rFzgOYkQAeWOdeFowoTgZs3b0qZMmWkWLFiMmXKFIkdO3aYRsJuIyOwYsUKpXmF9cEPII0ESMA3AtC6QmSUq8ERNWrUKK8b9MSBde3aNeVwxmGBq40YMUL69OnjdZ+8gQRIIPgEypYtK0gl7NevX/A7Yw+WJ9CpUye5fv06I2stv5KBmwAyJoYMGeLWIFKT9+3bF7hO2JKjCNCB5ajl5mQ9IfDs2TN10ojKdl9++aXgJY9mDgKHDx+W0qVLy7hx4wQaCzQSIAHfCfzP//yP7uYHDx4owVVvzRMHFr5bs2fPLqhu5mrQxvrll194Wu8tdF5PAiEggBfPrVu3yubNm0PQG7uwMgEciOTLl08++ugjXXEQK8+LY/ePwNq1a3ValylTppSrV6/61zDvdiwBOrAcu/Sc+MsIXLx4UQmX1q1bVyZNmsRSryZ4XPbv3y9vvvmmqhaJqml0LJpgUTgESxMwcmBpI7I8naAnDiy01ahRI4F4q6thHNBLadGihafd8ToSIIEQEYDDGdV+79y5IzFjxgxRr+zGigRQXCdx4sQqNT116tRWnALHHAQCd+/eVc+F9ncf3ymQLaCRgLcE6MDylhivdwwBOEyqV68urVu3VhV4okeP7pi5m22iO3fulMaNGyvHFYQfWZbZbCvE8ViRAHT+7t+//+/Q8cJx+fJln6Zi5MAqUKCAEm51dZQhfTBnzpxK98rVqlSpIuvWrfOpb95EAiQQXAIVKlRQVX/x+0sjgcgI4Hfg1KlTsnz5ckIiATcCGTJk0P3uL1myRAUK0EjAWwJ0YHlLjNc7isChQ4ekYsWK0qFDBxk0aJCqokXzjwAiPFB1DExx+hJhiKjCBhl6OAhBj4iwgiOxVq1a0qpVK5by9g897yYBNwKo4glhdTixkiZNKnPnzhU4knwxIwcWTlb/+OMPSZ48uVuTOBDo37+/278h5QTFGWgkQALmIzBjxgy1Bzp9+jS1Qc23PKYY0b1795TgP3RKq1ataooxcRDmIVCjRg1ZvXq124BQ7RhVj2kk4C0BOrC8JcbrHUfgxo0bkidPHqWJNXXqVEZi+fkEYAOcK1cuef78eaQt4e+oBIlrUYZ52LBhqpQ3jQRIwJwE8IKL4gpaK1q0qNK3cjV89kuVKqWis+DQzpYtm/z2228SK1Ysc06OoyIBhxNARbmsWbPK0aNH1f/SSEBLADpplSpVUrpGOBChkYArAezhIQHiaqiEjH2+kZwB6ZHAywjQgcXngwQ8IIB8fkQmpE+fXlauXClx4sTx4C5eYkTAKFLD6LpUqVLJw4cPlQYZdHOYNsjniQTMS+Cff/5Rlco2bdrkNkhsTP/f//t/uoEjlfDs2bPqb/heRTojjQRIwLwEmjRpoqKvvv32W/MOkiMLGwGkgqVIkUK++eabsI2BHZuXgNEhV5IkSVRaYbx48cw7cI7MlATowDLlsnBQZiSAL9lmzZqpiIHZs2cLTg5o3hFYs2aNIIzYU6HoN954Q0ViUX/MO868mgTCQQCpI7Vr19Z17ennPRxjZp8kQAKeEYC2Uf78+eX48eMCPRsaCUQQ+P3336VkyZLKGUFRbj4XRgS2bNki5cuXd/vTq6++qjTTKPjPZ8ZbAnRgeUuM1zuawJMnT6Rhw4YCbSxU0ipevLijeXgz+cOHD6vKji9LHdS2h4pH69evV2mENBIgAXMTMCqVjRG/ePGCTmhzLx1HRwJREnj27JkUKlRIWrZsyZT+KGk564KuXbvKkSNHdBG4zqLA2b6MAKq7p0uXzu0SHE7juUFhFxoJeEOADixvaPFaEvg/AkOGDFHixwiVNtJ9ISg9ASMBR1yVMmVK5RDE3yHYrjWkIJ05c0YyZsxIrCRAAiYmAGcz0gi1hs8vI1ZNvHAcGgl4SADV5VCA5cqVK9St8ZCZ3S9DhC3E2xcsWKCKHtFIwIgAnpP48eMraRBXW7x4sdSrV4/QSMArAnRgeYWLF5PAfwjgi3jDhg2q/CvKSyO3Gz/gtMgJVKtWTRCh4Wo4fdm8ebMcPHhQhg4dKrdv3zZsAKcz27dvl9dee42ISYAETEoAFQezZ8+uGx1Sh1mVyqSLxmGRgBcEsPdBFNa7777LKCwvuNn5Uohzo1AHUsQoxm3nlfZ/bkYH2R07dlRatzQS8IYAHVje0OK1JKAh8Ndff0nr1q1VFY2xY8f3tKdMAAAgAElEQVSqKCL+gBs/JkYOLKRgZs6cWelcIRLLKAIrorXcuXPL999/LwUKFOBzSAIkYEICSDFC9an79++7ja5///6qkiiNBEjA+gRQ9h77HTisac4m8ODBA7WHQzYCDnRpJPAyAqhCqK0oDiH3W7duERwJeEWADiyvcPFiEjAmMGLECMF/TZs2VZFEjBTSc0KI8NKlS3V/wGnuxo0bVXQWRPKNKpZF3IRKhDNnzpQ6deqwagk/jCRgQgLt27eXqVOnuo0MFUWRckQjARKwPgFo2mXNmlUGDBigDvBoziUwatQolYFw7Ngx6hw69zHweOZ79uxRYv9aY6EXjxHywv8jQAcWHwUSCAABfPlCoBD5/zdv3pRp06ZJ/fr1A9CyfZo4evSo5M2bVzchiOJDOwEMv/vuO2nVqlWUk0a0Fk5y4DCkkQAJmIdAZJ9zRKnipJ5GAiRgfQKoONq4cWNVdY7yCdZfT19mcP78ecmRI4fs3LlTChcu7EsTvMdhBCDYni9fPjqwHLbuwZguHVjBoMo2HUvgn3/+kdmzZ8vAgQOVFszIkSP5w/5/TwPSilCC+9y5c27PR6JEidS/4X9xsos0TIhBR2VI1cyTJ4/UrFlTBg8eLK+88kpUt/DvJEACQSaA78AECRLIo0eP3HpC0Yt+/foFuXc2TwIkEAoC+HzjQAoRWPxch4K4+fro1q2b0ibdtWuXoGI0jQSiIkAHVlSE+HdPCdCB5SkpXkcCXhC4du2a2tTNnz9fpcV16dJFcuXK5UUL9rn03r17KnUQOjjRokWTS5cuuU0Ojqhvv/1WleaG4frkyZML9HQ8tXfeeUcWLlxIJ5anwHgdCQSJACIpy5Urp15sXK1YsWKyd+/eIPXKZkmABEJNAGljJUqUUALeKLRCcw4B6JVWrlxZfv31V1aYdc6y+z1TOrD8RsgG/o8AHVh8FEggiARQVQ+phDihQrrb8OHDVbg9HDl2N5zQ/vTTT9K2bVs1XzipKlWqJClSpNCV0Y0dO7bA6YfIDRhSE5BW6I2BMxyG0MmikQAJhI/AlClTpEOHDm4DwHcAorNoJEAC9iAAZzUipuPHjy8//PADC9jYY1mjnAXWvXz58iolHPpXNBLwlAAdWJ6S4nVREaADKypC/DsJ+EkAaXEnTpyQPn36yI4dO6R06dIyZswYpR1gR4PjKkLYExudcePGSdWqVf8VXV+1apXUqlVLaV65GtIte/furf4JQu5ICXyZoLuWHSK5UKEQUR5MJ7Tjk8U5WYXA48eP5dVXX9UNl0KtVllBjpMEPCOA6mGoEDxx4kRBoRaa/QngMBIR9YjAg/QDjQQ8JUAHlqekeF1UBOjAiooQ/04CASKAlzc4V1BFb9GiRVKkSBEVlYWKegkTJgxQL+FpBo6m3bt3y5w5c2T58uWSJUsWQTWy2rVrq9PZCEPY+axZs1SVsufPn7sNFhuhq1evCqKxYL5EYeG+NWvWKIcZjQRIIHwE4FDWGh1Y4VsP9kwCwSIwfvx4dSiHg7o4ceIEqxu2awIC2KMhXXTy5Mlqj0YjAW8I0IHlDS1e+zICdGDx+SCBMBDAqeXnn38uiEZC1UJU3kMKHHSyXB0+YRiax13iZRSVxaB1M2HCBLl8+bIqj9uzZ08pU6aMrp1Dhw5J0aJFdY4r1wuHDh2qSnPDnjx5ohxgGzZs0EVr4e9JkyZV7LQ2aNAgwX9GL9AeT44XkgAJ+EWADiy/8PFmErAMARxGvfnmm5I1a1aZPn060/gts3LeDRS6pE2aNFE6pevWrZPo0aN71wCvdjwBOrAc/wgEDAAdWAFDyYZIwDcCCMPu3Lmz/Pzzz2pD0Lx5c/nss88kZcqUpnTCYBODEHKI1MMRB00rOOMgwv4yba+3335baWK9zBCJdvfu3X8vgWZOlSpVZPPmzbrb0qVLJxcuXDBsbuXKlYL+aCRAAuEhQAdWeLizVxIIB4GzZ8+qyJxly5ZJtWrVwjEE9hlkAtC7ghQG1jpCrzTIXbJ5mxGgA8tmCxrG6dCBFUb47JoEIgggmumvv/5SmgIQIoeAeeLEiZVIZoUKFVSaIXQmwiH+fuPGDZWWh9TA33//XS5evKjKZ7dr105VIMqUKZNHJZSh/bVz584oFx36WD/++OO/c4WGGMTft27dqrsXPIx0srp27aq0t2gkQALhIUAHVni4s1cSCAcB7GHmzp0rPXr0UFUJ06dPH45hsM8gETh16pSKsIcTC5HxNBLwhQAdWL5Q4z1GBOjA4nNBAiYkgCgnpOZt27ZNbQYPHjyoKnhBpDxfvnxKAD5jxoyCKKQ0adJI3Lhx/ZoFnERwVP3555/qP2xWjh8/rkokX7lyRZ2sFipUSAnQI1Xg9ddf97q/7Nmzyx9//OF2H/SukCroanjxRQQVqhtFGHQXsHnC2LSGqDVtdbNJkyZJx44dvR4jbyABEggMASMHFsTdIzTuAtMLWyEBEjATgQYNGqgUs7Vr14blwM1MLOwyFhwSFitWTOm2QvuKRgK+EqADy1dyvE9LgA4sPhMkYBECcCohEgrpdHAE3b9/X/2Hqn9JkiRR+hM49YRz6bXXXlP/4WURoqqoyvf333+raKXbt2+r/+AUunTpkpw5c0bOnTundCugv4XQ8GTJkilnFdL38L+xYsXymxLGeOfOHbd2unXrZhgphfEiTN3VUYYIsHfeecdwHBgzXo7x0ozyztAWw3xoJEAC4SGA6EitaDsiI8eOHWvK1OjwUGKvJGAvAg8ePJCCBQuq32pUFg5H1Li9iIZ3NjjcREEeFCDat28fRfrDuxyW750OLMsvoWkmQAeWaZaCAyEBzwlgUwHhVERq4X+R1oeIKTh9zp8/r6KpIHAO59bDhw/VNdCXQrQSxM/hoELkFqK4smXLpiKs4OiKGTOmcnbhv0CKoMN5hiqD2hdanNQiUmrevHm6yaNM87Bhw/79dzjf8ufPL0ePHtVdi00yyng3bNhQOeDovPL8WeKVJBAMAnCmazXq8B0D57svEZzBGCPbJAESCDwBVBuGvACisJD+T7Muge+//15atGghJ0+eVIekNBLwhwAdWP7Q472uBOjA4vNAAiQQdAKLFi1SziVXg74XqhjCiYWUSGiAuRpE2JFK6GqIHEMoO6LGtIboMVxfrly5oM+HHZAACbycALT83n33Xd1F0NHD551GAiRgXwJLliyRNm3aqKhxpP/TrEcAa9esWTOlSVq2bFnrTYAjNh0BOrBMtySWHRAdWJZdOg6cBKxDABvZmTNnug24bt26gk0urHfv3jJq1Ci3vyMFEmmOiAZzNTi8oMP122+/6QAg8mrLli1SqlQp68DhSEnAhgQQHWqUekwHlg0Xm1MiAQ0BREyjYh2qEq5fv15Fe9OsQ+DEiRNKQgIR8n379rXOwDlSUxOgA8vUy2OpwdGBZanl4mBJwJoEkK4IMXhXGzJkiAwcOFD9E1IdkWKIVEdXQxRH48aNdZO+fPmyEpW/fv267m8QtD9w4IBKjaSRAAmEj4BRGjIdWOFbD/ZMAqEmgAieQ4cOKf0kFnAINX3f+oNWKSpN169fX7788kvfGuFdJGBAAN8DyKLQmlZehPBIICoCdGBFRYh/JwES8IsAhObhnMKJrKstWLDALa0QaQZ79uxxuwZRWIcPH5bUqVPrxoATwjx58ugqEOLClClTqk1z8uTJ/Ro7byYBEvCdAB1YvrPjnSRgBwI4nMIhFArF7Nq1SxWKoZmXALRTixYtqqLYp0+fTqejeZfKkiODrAAOpl0N2rzQ9aWRgDcE6MDyhhavJQES8JoANq7Qu9KesOzYscMt1a9Tp04yadIkXfuvvvqqtG7dWlVV/Pjjj902VEgjrFixoqqqqDWI1ePviP6ikQAJhJ4AHVihZ84eScBsBOAUqVGjhqqWjJdXHGjRzEcA6wRpBxTzQepnvHjxzDdIjsiyBCAJki5dOp2zqkuXLoz0s+yqhm/gdGCFjz17JgFHEICjqkyZMrq5wrGVIUOGf/99xYoVUqdOHV2kluuNadOmFaQgIU0wwlatWiVNmzYVVDrUGiqhQRPLtR9HQOckScAEBOjAMsEicAgkYAICT58+VQdWqEA6e/ZsVS2YZh4Cd+/eldq1a6sKzhs3bgxoFWrzzJIjCScBfO5btmzpNgQ4S7Gnz5QpUziHxr4tSIAOLAsuGodMAlYisGnTJsNS2tjQ4sfL1XDqhxPAyPLh8UKMH7vs2bO73Ycqh40aNTK8Dyc+EI7khtlKTw3HagcCdGDZYRU5BxIIDAHICBQuXFiQMgS5ADhLaOEn8ODBA8mdO7eKjtm6datEixYt/IPiCGxHAAfU2OO7GmQ+Ll68qHsXsN3kOaGAE6ADK+BI2SAJkIArgcgcWEZOKvzb5s2bDR1eEW1C+0rrwMJ948ePl65duxrCz5kzp/zyyy8MieejSQIhJEAHVghhsysSsACBGzduKO3LW7duyYYNGyRFihQWGLV9h3j+/HmpWrWqknmYO3cu0zvtu9RhnRk+74i+fPLkids4Ro4cqaqQ00jAWwJ0YHlLjNeTAAl4RcAbBxYahjMK4uzHjx/X9YPTGjiwEidOrPvbP//8I1988YUMHTpU9yOJi5FOiNNF/C+NBEgg+ATowAo+Y/ZAAlYjcO/ePWnevLlcunRJpRPi954WegI41ENKV5EiRZRge6xYsUI/CPboCALDhw+Xfv36uc0VWRGoTu4qCeIIGJxkQAjQgRUQjGyEBEggMgLeOrDQzuPHjwXVSrDBjTA4rxYuXBjlj92YMWPUDyVSFLWGEPnt27erUHkaCZBAcAnQgRVcvmydBKxMoEWLFkpvCTqWBQsWpO5SiBYTqZxwXr399tvSrFkzCmiHiLuTu8mXL5+S8nC1SpUqqShMGgn4QoAOLF+o8R4SIAGPCfjiwPK4cYMLEcE1Y8YMadu2rWEzEHQ/dOgQNbH8gcx7ScADAnRgeQCJl5CAQwnAkfLll1/KJ598It9++600adLEoSRCO+0JEyZI9+7dZdasWYo5Na9Cy99pvY0aNUr69Omj06j9+uuvBdXHaSTgCwE6sHyhxntIgAQ8JhBqBxYGho0xNmcdOnSQ58+f68YKvYddu3YJorpoJEACwSFAB1ZwuLJVErALAfxWr1mzRho3bqwKscC5EidOHLtMz1TzePjwobRp00a2bdsmCxYskNKlSzPqzVQrZL/BrF27VqpXr65zXmFvAF0sIzkQ+1HgjIJBgA6sYFBlmyRAAv8SCIcDC50jEmvs2LHSv39/Q00sVEA8duyYZMmShatFAiQQBAJ0YAUBKpskARsSOHXqlNLFgkMLekxIOaIFhgD2QkgZfO+99yRVqlQyc+ZMQSQ6jQSCSQCZDuXKlRNo3mmtQYMGShKERgK+EqADy1dyvI8ESMAjAuFyYEUMDk4shC+/ePFCN14Iuu/du5eVkDxaSV5EAt4RoAPLO168mgSCReDOnTty//59lS6WMmVKiREjRrC68rldOK/at28vc+bMURHUdevWFRw00XwnAC1QOAS7desmH374oYwePZopg77j5J0eEoCObdGiRdUhsdZQjRBFmuLHj+9ha7yMBPQE6MDiU0ECJBBUAuF2YGFTDH2N999/33Ce2bJlk19//VXixYsXVA5snAScRoAOLKetOOdrRgKIgECk8c2bN5XzIleuXOo3z4zOIVQT3rNnjxIYRxTWkiVLJGnSpGbEavox/fXXX1KzZk1V6Q1pmqj2SL0r0y+b5QeIw+LKlSvLli1bdHNJkSKFEnNPliyZ5efJCYSXAB1Y4eXP3knA9gTC7cACYDixICTZt29fXS4+/p49e3bZunUrI7Fs/zRygqEkQAdWKGmzLxIwJpAxY0Y5f/682x/hGEKEk1nt4sWLKv1/9erV0qNHD+natavEjh3brMM11bgePHig9jsQyEdaJjgi6o5GAsEmgMgrHBbPnz9ft9dOlCiRQBOrePHiwR4G23cAATqwHLDInCIJhJNAZA4sOJWMXnCDNVboQAwcOFCF0D958kTXTbp06dSJETb7NBIgAf8J0IHlP0O2QAL+EEC0Q4ECBdQhjqvNnj1bOTfMbj/++KOSAIDYM5wyZcqUCem+wex8XMeHPc7GjRuVww8GB1aFChWsNAWO1cIEEOn30UcfydKlS3WziB49ukyZMkUVEaCRQCAI0IEVCIpsgwRIIFICmzdvlooVK+r+Dj2OcKTtoXRv586dDSOx0qZNKxCeZGUUPtAk4D8BOrD8Z8gWSMBXAogqhgND67xCe1ZxYEXMvXv37qpCYdmyZWXZsmVq7xDKAzBf1yAU98FxdePGDXnrrbfk6NGjMnjwYOnXr18oumYfJKAIXL16VQoXLqz+18jwTA4aNIi0SCBgBOjAChhKNkQCJGBEAFobEHPEJsvV/vzzT0HUU6gNm/nvvvtOnQRpx4SxIJ1w3759FJgM9cKwP9sRoAPLdkvKCVmAAH7XkC4/ceJEQTqZka1atUpq1Khhgdn8d4inT5+WoUOHyooVK6R27doyYsQIVVXPyXbhwgUVcbVhwwZp2rSp9O7dW1CchkYCoSIwbdo0gYM5su8aVLyEaHucOHFCNST24wACdGA5YJE5RRIIJwFsOiGUrnUW/fbbb5I/f/6wDA1OrEmTJkmvXr0M0wmRRoh0wnA42MIChJ2SQBAI0IEVBKhskgReQgAi6AMGDFDOHaMDGqTyIM0HqfT4v61mmNOOHTtk3LhxSrcSTpu2bdtK3rx5rTYVv8a7f/9+gePghx9+UI5IaIQVK1bMrzZ5Mwl4Q+Dy5cuqsiUiIiMzpC9v3749LNkW3syF11qPAB1Y1lszjpgELEUAlXDSpEmjS2P4+eef5c033wzrXLCJR6j9s2fPdONImDChqoaUI0eOsI6RnZOAVQnQgWXVleO4rUgABzPjx4+Xbt26GQ4fv2lfffWVtGzZ0orT040Zh2BdunQROHNQtfDjjz9WFRZjxYpli/lpJwGB7IgUQTgFENk+efJkyZo1qy3ny0mZk8Dz58+V8/jdd99VqatG9sorryjn1tixY805CY7K8gTowLL8EnICJGBuAg8fPpQECRLoHFgQeqxTp05YB4/TXAhLduzY0XAcr776qqqaAuFYGgmQgHcE6MDyjhevJgF/CAwbNkzpHxlpXqGC386dO6VQoUL+dGG6e/EbfvfuXeXImjdvnkr9/+KLL6R169aWjDAzAoyoOjgehwwZotK0sF/57LPP1L7KUx0wcEKUFrTPUA0OMglJkyY13XpyQOYmcOfOHalVq5b6LjGK8MTo4bxat26dOqD29Pk096w5OjMSoAPLjKvCMZGAjQjgRw4bLW1+PE4O27dvH/aZYrM/c+ZMtSl88eKFbjzI2+/UqZPaMMaMGTPs4+UASMAqBOjAsspKcZxWJoDfsA4dOqjfMTg7tIaIJEQr2T2a+OLFi4KiMUgvhJg0IpSQYvjOO+9YTn8HRW4WLVqkUgQPHDigoqzgpINTIGXKlF4/rtDJApcIp0OMGDHk8OHDkjNnTq/b4g3OI4DvGFQBxTN07dq1SAHkyZNHFi5cyOfKeY9IyGdMB1bIkbNDEnAeAWgz4MTP1T755BPlFDKD4ccZP8xIQTByYmGMiBZDWWrqYplhxTgGKxCgA8sKq8QxWp3AnDlz5L333jOMvMILJdLNEHXjJNu1a5eKyIKWJWQMqlatKtWrV1cRaHAGmU3/C/uOEydOCIre/PTTT7Jx40ZBVWRUkYQTrkiRIn4tHxxWWufmypUrVeoljQQiI4B0QURTIR0QhZdeZqiCic9ckiRJCJQEgk6ADqygI2YHJEACEFmdPn26G4jmzZurcHYzGUTd4aSKzImVOnVqWb9+vdLZYGi0mVaOYzEjATqwzLgqHJOdCODlEs4ZI8udO7fs3btX4saNa6cpez2XkydPKi2e1atXC1KgEBHeqFEjwR4E+pzx4sUTyAWE6jcdUVCQVkBU+rlz5wQOSEStPH36VBInTiz16tVT0Vao3hYoM5obqjnWrFkzUF2wHRsRgOMKDtUWLVqo6M3IDM8V9sXz58+n1IaN1t8KU6EDywqrxDGSgMUJTJgwQTp37uw2i7JlyyohSDMZIrF2794tlSpVMqxOiLFCS2TgwIEqWitUG14zMeJYSMBTAnRgeUqK15GA9wTwYlmuXDn5+++/dTcjCuL333+X5MmTe9+wTe+AgwgOrCNHjqhIkQULFqhILDiwXnvtNcUS+5ISJUpI+vTpA0rh7NmzqigMIsK2bdumdLuQJojIKDjTEGWFFE84sIIhVUAHVkCX09aNYQ8MDTlUEI/sMDcCAApGQHcPTmEaCYSSAB1YoaTtgL5wsvTHH3+okFP8SG/atEn9UBsZflBx+rVq1SrJnz+/A+g4d4p4FrA5dDWcLuL00Yx25coV9QOO5zgya9CggUycOFGSJUtmxilwTCQQdgJ0YIV9CTgAmxJA9S9oPBml9cAZg8p8gYzgsSNGHFidOXNGTp06pf6DJhScfvi/nzx5okTO8fuO9EtUcIyI1EJEGw6yYPiOw74XFQIfPXqk/oNj6t69e2rve/36dbl586a6F6mLiIrLmzev+r/xX8aMGUNyEEYHlh2f4MDNCc879rNIX8V+3UhLz7W3woULK9kNFjgK3BqwJe8I0IHlHS9ebUAAp3/4wkNVClSWgwPLW0uRIoVKJ6tSpYq3t/J6CxDAqSc21a5VS1CpBJs+s2lRRODEWBFlhZTCZ8+eGVLOnj27TJs2TUqXLh2STagFlppDJIF/CdCBxYeBBAJPAE4RaCJBtFxrr7/+uvzyyy+SKlWqwHfskBbx2w+nE6Km4ODCgRZE4W/duqUcU9gPaCNTEEmFyCk4uuD4QloV1iJTpkzqv3DrAtGB5ZCH14tp4jlGFCdSSadOnSpwikdlSLXF4S6qYkaLFi2qy/l3EggaATqwgobW/g3jBxxCkxCBjMpb7wkNlD+G2Ca+IGn2I4B1hcPK1bABxybPzIY0R4hTIv3AyLAx3LBhg1SsWNHM0+DYSCDkBOjACjlydmhzAnjpLFWqlIqw0hocKBAvR3QEjQRcCdCBxecBBBB1CP01OKxQSCmyw1mj7xY4rqAlh8rcNBIINwE6sMK9AhbsH84qiE6OHDlSRVvhCzFQhmguOLJo9iOAKDucHLsaovbeeOMN00/2woULqgohylkbGdIJ8DeWpDb9UnKAISRAB1YIYbMrRxBo2LChLFq0yHCurCrniEfAp0nSgeUTNtvcBKfVt99+q/7DexsKCHhicIqjuFH79u3VYTN1Xz2hxmtCQYAOrFBQtngfCKeGzgJKMeM/pAkilDoYRgdWMKiao80sWbKocHxXQ+WSxo0bm2OAUYwCGwCkFH799deGV0L4FZFY0LqgkQAJ/EcfRmvQmIFYMY0ESMBzAjgoRGU6o98fpONPmjRJ3n//fc8b5JWOIkAHlqOWW00WTipoWi1fvlzWrl2rChh4aoiy+uCDD6RTp05Kp41GAmYjQAeW2VbEJOOBoN+hQ4dUxZTvv/9ejh496vHI8EOJaJt06dKp8s4oVQznhat98cUX0qdPH12bdGB5jNlyFxYqVEgOHjzoNu5PP/1U+vXrZ6m5zJ07V9q0aWOYUojy14sXL7bUfDhYEggWATqwgkWW7TqJAKLep0+frl4otRHv0JBEJTDsqRgd4aSnwru50oHlHS+rXo0iAihCMGvWLJkyZYpOtuNl84KmFQo/oMjAzJkzw67bZtU14LhDQ4AOrNBwtlQv58+fV1UBUUnFVXQ7qkngB7JGjRrqJBAOLJwKvmxDZfQ3OrCiomzdv6MKIcT+Xa1JkyaqnLXV7NixY+ozotV+wzM9ZswY9UJBIwGnE6ADy+lPAOcfCAKQbGjZsqXhfgyHKSgkQudVIEjbtw06sOy7tpgZ3p1Gjx4to0aNUrpW3ki7RLy7TZ48Wb27oSABjQTMToAOLLOvUIjGB40fREQhxBQioHBeeWqoujJixAipW7euJE+e3KPbcEqAUsRaowPLI3yWvAjOzdWrV7uNPWXKlHLp0iXTViJ8Gejx48erlA6tUdTdko8nBx0EAnRgBQEqm3QUAURRGEVeAUKjRo1UpAQL3zjqkfBpsnRg+YTN1Dfdvn1bZsyYoVIEUU0QMheeGrStkCEDB3jRokVZtdRTcLzONATowDLNUoRvIBD0Q8iop9UoIkaaOHFi+fDDD5Xjy8gZ9bIZGTkzcD0dWOF7DoLdM1JRkU6qtc8++0xVQ7Gi4cXim2++0Q0dJbMRbZY7d24rTotjJoGAEKADKyAY2YgDCSD6HXqj7733nqHgMlLyobmI3xoaCURFgA6sqAhZ4+/QH960aZNMnDhRaRJ7kyWDrBhUMK1Zs6ZyfqdJk8Yak+YoScCAAB1YfCzUFyEcUVEZIq2SJUum0gRRkcKfimvQbTAKcaUDK6pVsPbfS5cuLag86GpwhCJtNUGCBJabHCIJUbL8xIkTurEXL15cacihQiGNBJxGABtraGpojSLuTnsSOF9vCeCzg5dU7LWMDhahU4ODR7yQ0kjAEwJ0YHlCyZzXILIKhbTGjh2rIi69dVohLRAOq/79+0uiRInMOUmOigS8JEAHlpfA7Hh5VA6sChUqqLzq9OnTKydDIDZNkek10IFlxyfsv3OCAHqzZs3cJolnAamFCGe2ot28eVNy5colN27c0A2/YsWKsm7dOkumSFpxLThm8xC4evWqpE6dWjcgOHuzZ89unoFyJCRgMgKIvII+pJHzCvsvOIEzZ85sslFzOGYmQAeWmVfHeGw4IK1fv74cOHBAVX5/8eKFx5OIFSuWqkrao0cPgVQHqgrSSMBOBOjAstNq+jgXVKxACuHTp0/dWqhVq5agShz+FijDyQG0g7p27WrYJL6kGRIfKNrmawfaalmzZpVr1665DQ4vtEeOHAmIczQcs0Yod5D+d+oAACAASURBVPXq1XWpHtg0IloRTmKjaJRwjJV9kkAoCCDSEhGXroZNNCJHXn/99VAMgX2QgOUIoKhJhw4dDHVIEUmxbNkyKVGihOXmxQGHlwAdWOHl703vKA6EYlgIHLh48aLHt0LKBVrEqIZdpkwZvkt5TI4XWpEAHVhWXLUgjBlfktAhghMLP3QFCxaUXr16BTRyBCmDqKbTtm1bef78ueEssmTJIvv27WOYaxDW2CxNohx4u3btdGHQiMKqVq2aWYbp9TgiHLNG4d3QycJLCY0EnEJg9uzZqnKaq7322mty7tw5iR8/vlMwcJ4k4BEB/G6sWbNGGjZsaCjGDPmGrVu3+iXd4NFAeJEtCdCBZf5lRTQ/tFOhC4uoK08McizFihWTxo0bq99bSL3QSMAJBOjAcsIqm2CO2Jx99dVX0q1btyhHg02cVdPJopwcL1Cpdkh/0Fa6xMnRkiVLLE0ITipUjTIyiNg3bdrU0vPj4EnAUwKDBg2SoUOHul2eNm1apXfHaERPKfI6pxDYvHmzVKlSRRB9oTU4r06ePCnQi6R5T+DJkyduGQb4/okXL546rHWK0YH1n5V+8OCB22cMKbnhquKJQ33oW+3Zs0dGjhwpP//8s6E2sPYZhdMKjipksiDwAP8/jQScRoAOLKeteJjmixSqzp07e/TlbPVInDAhtky3cGYirW7atGluY8ZGAqWAoSdlVbtz546q7PL48WPdFLBh/vHHH6VSpUpWnR7HTQIeE8CJ8IIFC9yuR2rD4sWLPW6DF5KAEwgsXLhQVRs0+t1A2iBebP0pmuMEhpHN8fbt21KgQAG5dOnSv1HfKKyCCsJjxoxxDBo6sERmzZqlClbBaRRhkCzB5ytfvnwhexawB96xY4cMHDhQdu/erZNviWwgcFrhkBQ6sjgEpq5VyJaMHZmQAB1YJlwUuw0J6YJ58uRR2idRGbRRfv31V0mePHlUl/LvFiZw7949QSWlu3fvus0CL73z58+38MxEUIgA2j/Q9NIaNAo2btxIDRNLrzAH7wmBbNmyCfQVXe3rr7+WTp06eXI7ryEBRxD44YcfVEq9NiIZk8c+CBHphQoVcgSLQE1y6tSp8vHHHwsOlCIzRGH169dPBg8e7IiIUKc7sCCADmcwHJpaw6EjHJzBtitXrqj9LT7z+/fv97g7HOri0Jcpgh4j44UOIEAHlgMWOZxTRDh869atBXooWsuYMaPSPDp+/Lg6GcMJ4+jRowUv+TT7E4DWx6JFi9wmCo0c6LFZ/WQJIvWlSpWSM2fO6BYSc0PIeChP/Oz/NHGGZiKANA1UrNXqwR07dszSEZZmYsyxWJsAPhtIG0SxHFQb0xpetnft2iWZMmWy9kRDOHow3bJli7z11luR6qy6DgdOLDgSoPlqd3O6AwsSDs2bNzdcZrBBOl8wDLrCeMeZMWOGQP9VWyzrZX0mTZpURQrCyeqkdNdgrAPbtB8BOrDst6ammhE2B6iYo9V1iBEjhjrxwCaN5kwCCJ1+4403dJOvUKGCbNq0yfJQzp49Kzly5DDcSGNjglLo+F8aCdiNAFLGkaqhfVk00vex29w5HxLwhMD69euV1qdR0Q8c5Jw4cYK/D56AdLkGFRqhpWnENLKmIJqNim12N6c7sPAesnfvXsNlLlKkiCoeFUjDM7h8+XL56KOPBJFX3jrIEHWJ1EYcBNFIgAT0BOjA4lMRNAKIQsHJ1tWrV3V9IIwW6WI05xLADzw28NjIa190L1y4oLSkrG4HDx5UTjqIyGoNYeFIl4UeB40E7EIAn2u8EO7cudNtSiVLllQRJTQScDoB7H9QjdlViyeCCQ711q1bJ/nz53c6Jq/mP3PmTMXUW0cBfp+R1m/1qO+oYOHQWHuAgIigNm3aRHWr5f9++fJlpRmljX6CU6948eKyatUqgdPYX8NvHwoRIeMEFUMhJ+GppU+fXvr06aPGkzVrVlbq9RQcr3MsATqwHLv0wZ94kyZNVK631pA6Nm/ePFbOCP4SmL4HPB94TrQ2fPhw6du3r+nH78kAEU3WoEEDQz2O3Llzq41OIDZPnoyF15BAsAngJSl+/Pg6QerPP/9c6dLQSMCpBPCCi0IeEGw30rxCRO6GDRuU6DjNMwJRMY1oBdIURg5D/B0phytWrJCYMWN61qkFr0JEDw7UXK13796q+p3dzUiPEUV1oNGYMmVKv6aPqtoQZP/pp59k6dKlL9Vd03YEHdjatWsrmZW8efMyTdCvleDNTiNAB5bTVjxE88VLDDYD2tMwpk6FaAEs0g0ik9KmTSs3b950GzEqEv7555+SKlUqi8zk5cPEiXurVq0M9Q8qVqyoNs/hKuVsC8CchGkI4Lsfp/1aO3funCrcQCMBJxKAowWHGW+//bbh7wAir1CF198XaiexBVM4DurUqSMQ6dYaDoYOHz4sqVOnVn/CdUgzNDI4EaBTZFdDdM8XX3zhNr133nlHOVTtbMgEwfpr30VQTARFRXwxCMHD+fXll1+qiCsUqvLUEHEP/V8c5rz77ruGv5WetsXrSMDJBOjAcvLqB3HuTZs2VVFWWlu9erUSbqeRQAQBnAoWLVpUF97es2dPGTVqlG1AoYQznFhGVq9ePVm8eLFt5sqJOJdAZA4sb3RpnEuPM7crAThHUEnMSAcO1QahwZMuXTq7Tj8o80L0cvny5Q01r3AIdvToUUH0TYThUCwyJzoqZcOBGD169KCMNdyNLly4UBo1auQ2DMgYoLCGnQ3puJCq0BrSBmvUqOHx1PH7hedt0KBByimK9EBv0lWRroj9X//+/QXV1vF80kiABHwnQAeW7+x4ZyQEkGeeMGFCw3xzb77wCdgZBHB6hfB2bDZdDdF6OOVKlCiRLUDg2Z8wYYL06NHD8CUGaSV4yUFlJBoJWJUAHVhWXTmOO1gE5s6dq9KEnj17pusCEVc42HNCJbxA842sshyi2RBZBN09V0OF48ichEgp++uvv2xbBRsRsNqKlrFixRJUjDWKmA30WoWrPTip8PlyNTiM4cyMSn/08ePHKjoezxL0G/H8eGvoa+DAgaraKLINaCRAAoEhQAdWYDiyFRcCQ4cOVacUWoOTAqLVNBLQEoCQe/Xq1XWOnXbt2snkyZNtow2Al/vu3bur0HWtMxcndNjo9OvXj6dz/IhYlgAdWJZdOg48wAQiUtxQsMZIfylZsmSyZcsWQSQMzXsCc+bMkRYtWrjdiN/RQ4cOKU0hrb3MgYVrkWYH/U07HiLh+UNKpVbIHAVz7OpYOX/+vHLaaaN/v/nmG+nQoYPhAwdNK1RPh9NqwYIFXgmxo0FEVmXPnl3KlSunUgThRDWqAOn90847SIAEXAnQgcXnIaAE7ty5I0mSJNG1mThxYsGPCUvCBhS3rRqrUKGCKhvsaniWzp49qyL67GTvv/9+pHobcG598MEH3PTYacEdNBc6sBy02JxqpATw0ozfMwiEG+kzodABHCp2+20L5SNh5MBCCqARb4wrKgcWrkG0HArL2M3pEJne6LZt21TVWDsaJCggVO9q+Nwh+grvJK5269Yt5XTyJaUSTit8jlu2bKm0rZA9QCMBEgguATqwgsvXca1PmjRJII6oteXLl6sQWhoJREYAodqoyKK1Dz/8UKXe2ckQmo7y1RB31xpOfwcPHiwDBgyw05Q5F4cQoAPLIQvNab6UADQNmzdvLnAcaA0V8eA4QFQ6zXcCRimEcCYYpWqiF08cWHCAIYPAbr+/YAI9MDhvXA1OwGbNmvm+CCa9E6mRiIS6cuWK2whRXArVn7VRdpcuXRIIvntjSA+EVmtEeiAL8XhDj9eSgH8E6MDyjx/vdiEAYcM33nhDFyqPkyxU7bCLlhEXPTgEkFKHKCwIZboanp+TJ09K1qxZg9NxmFq9e/eu2vhs375dNwJshE6cOGHb0P4wIWe3ISBAB1YIILMLUxNA6lHbtm3l/v37unHipReaPIULFzb1HKwwuNOnTytnRITDCk6JqVOnqsMhI/PEgYX74GBExoCdImnwvVygQAGd1uiwYcOUsLgdDNFTKB6FPdUvv/xiWO3Tn3ni+QJD7NuqVKkiJUqUsF2knj98eC8JhJIAHVihpG3jvuB8QKj8xo0bdbPEZmL69Ok2nj2nFigCO3bsMAxnt1tFwgheSHUoVqyYoBKj1nA6v3v3bsGJIY0ErEIAESdx4sTRDZdVCK2yghynrwQi0gZr1qwpjx49MnRe7dy5U7JkyeJrF7xPQwDC66juiKjmOnXqSMeOHSNl5KkDCw1UrFhRRowYoaLk7KKJhVRB7LFcDY5WOP2sbmfOnJEiRYoIDgYDadh/4fAUh6t4tnLmzBnI5tkWCZCAjwTowPIRHG9zJ/D555/LJ598osOCL35Ul+NLOJ8YTwjAEQrRTW2YO6Kw8G92FBvFC3/q1KkF+nFaw2ki9DhoJGAVAn379lUvflqjA8sqK8hx+koAB3iIzDB61iGgjUhi/C8tPAQic2BBF8koWg77jvHjxwtkDOxgOEyeOXOm21QQTQSJD6sb9KuQlhtIQ0Ed/IdqhXbTRAskJ7ZFAuEgQAdWOKjbrE+U582TJ4/uxBFh2KjmkSNHDpvNmNMJJgFtWkBEXyhDPmPGjGB2Hba2EfKODZj2xQcbp3379qnPF40EzE4AL4gZM2bUVRNF6XqtU9rsc+H4SMAbAj/88IOgOIdRtcEUKVIIKu3my5fPmyZ5bYAJRObAWrNmjVSrVs2wN6TzQxspXrx4AR5N6JsbN26cqoLsasWLF5c9e/aEfjAB7hHzQNpgoAz6dbNnzw5Uc2yHBEggwATowAowUKc1d/36dfVyjdKzWhsyZIgMHDjQaUg4Xz8JwImDcG2UF3c1aKjhBBsaInY0RK0gilHrxELY/4YNGyRWrFh2nDbnZCMCKEGPE2utoST5O++8Y6OZciok8B8C+L5eunSptGrVyjCKBzpKcF4VLFiQyMJMIDIHFjS0EGUVWSpd6dKlVUXJGDFihHkG/nW/bt06qVq1qlsj6dOnV3pfVjd8BuvVq2c4Dcw5V65cHk8REfGdO3cWFASgkQAJmJMAHVjmXBdLjAo/+igbi5NHreXNm1d+/fVX/gBYYiXNN0johLz55pu6ctjQuEB1J7toUriSR9UcbLKwydZa48aNlTgpw9jN96xyRP8hgAgrpP8iDdjVXn/9dYE+CdPI+aTYjQCEsVetWiX169fX/VZhrilTplRR6GnSpLHb1C05n8gcWB988IF069ZNHcY+ffrUcG59+vQxTI22EghU2tPKMCDKG3ptVt5b4DcHunMojqC1okWLyt69ey09Pys9YxwrCYSKAB1YoSJtw34g/mgkzo4fQqRElSpVyoaz5pRCRQDOqmXLlrl1B3HoU6dO2faFAKkKcAJoBYDhsOvSpYuMHTs2VPjZDwl4RaBr167y1Vdfud2D5/bAgQOSP39+r9rixSRgBQK9evWSMWPGGGpeIVIYzis76jZaYW2MxggHDtKZtVHOiLTBgSzkC3CI9Pz5c93tWE/8PlvZMG+kQmr3F4jAQiSWVQ06u4hwRFEcV0uSJIlA4iRBggRWnRrHTQIkEAkBOrD4aPhEYPTo0dK7d2/dRgAvLPgbXrbtGCXjEyze5BMBpBCWL19ed2+zZs1kzpw5PrVphZuMhFYx7ojPFk6KaSRgJgJ4IYLjVfuClz17djly5Agjcc20WByL3wSuXr0q7777ri7NPaJhRF5BV6lAgQJ+98UGAkcAlQpz586tnBpai3BqIV0fewzIY7hau3btZMqUKYEbTJhaypYtmzoEdDWIuEPM3YoGzTlUivzjjz90w0d0ZI0aNaw4LY6ZBEggCgJ0YPER8ZoAqrVkyJBBbt++rbsXOgITJkzwuk3eQAJGG0psPvAioLWDBw/a9uUAVQnhuItMWHXatGlKLJhGAmYggBc/OFW10VcYG34L7FLBywysOYbwEkCq0tq1a5Xz6t69e4aDQfEafHez8EZ41yqy3rF/NYrIcY3KQiQPouu+++47Fa0EOYOVK1fawhGPvYVWX3To0KEyYMAAcy5YFKNClUgcmGvN7gedllwsDpoEAkiADqwAwnRKU9C8atKkiW66cDbgxINGAoEicOLECYGemjY0HFFKRumrgeo33O1g01ysWDE5duyYbihI0YUodu3atcM9TPZPAnL37l3JkiWL3Lp1y40GhI+RSk4jATsQQIrZsGHD5NNPP410OkjPQhoaqg7SzEvASO9Jm1Zo3tH7N7KmTZsqPU1XK1u2rGzdutW/hsNwNyLpsmbNqqt6i88hCv5AjJ1GAiRgTwJ0YNlzXYM2q5s3b6pUEZxiuVr06NFVJRMI9tJIIFAEIJKLzdWuXbvcmoRmBaKwkA5gV4NjAE4sbbg/5ovS3ps3bxaUjqaRQDgJoPITKkBpbdGiRUrcmkYCVicAYW9Uxt29e7eh3hXmV6lSJfn222+5B7LAYjvZgQXpj1GjRrmtEpxAv//+u2AfbxXDOwj2f0ZFbyZOnCgQ5qeRAAnYlwAdWPZd26DMDCeQAwcOdGsbm4HZs2cr3QAaCQSaAByj2KhohUffeecdFYlkZ4MOR+XKleXw4cO6acaKFUs2btwoiHShkUA4CFy4cEGlk2ujF4oUKaKczixDHo5VYZ+BJLBixQqVsn3jxg3DZvGMDxkyRFDEAEVGaOYn4GQHFpxXcGK5WrJkyVSl2Pjx45t/8UTk+PHjUrJkSfn7779144UeFiqg00iABOxNgA4se69vQGeHDRxEee/cuePWLqKucHqDsF0aCQSDQN26dXXOKkQhnT171vbpGthY4nQfjjytJUyYUNavX68itWgkEGoCw4cPl379+um6RTnzatWqhXo47I8EAkYAgt942R80aFCkbaKi3eTJk/msB4x6aBpysgMLVWELFy7sBjpmzJhqL5UmTZrQLICfvSBiDKm6WkOhG0hLtGrVys8eeDsJkIDZCdCBZfYVMtH4EGE1d+5c3YjwAo0oERoJBIsAyiRDC0trTjltQ4UdOI+NDBEAiNRKlChRsPCzXRLQEXjw4IHg5B5FB1wNzyNOxmPHjk1qJGBJAnim8duCg7nIDJGviIBFJCzNWgSc7MBCIQIcNsNB62oLFiyQhg0bWmIhjdYPA4c+ndGBiiUmxUGSAAl4RYAOLK9wOfdiRF2lTZtWULLW1d544w3ZuXOnc8Fw5iEjAOH2mTNnuvWHE7fffvvN0LkVsoGFqCMIupcpU0YXAYnuc+TIoTTB6DQI0WKwG+nRo4eMHTtW93ncu3evIIWQRgJWJPDTTz9J48aNBQ5aI4ODdsyYMSqtkCmDVlxhESc7sLBiRhHtderUMdQyNOMKR+bAQgVQHOYhOp9GAiRgbwJ0YNl7fQMyO+ibIPpDKyaNHxGkilStWjUg/bAREngZAaPQd1yPjdeSJUsMN6V2IxpRwl2bxovPIk4eUQ47ss2d3VhwPuEjgIOMzJkzy7Vr19wGAcfVvn37wjcw9kwCfhBAYYy3335bF50S0SSe+a+//lreeustfs/6wTnct+LgS6vbB51JoyjvcI81GP2j2EDr1q3dmsbhF/YVVjgEQ3XBq1evGqJBdFmvXr2UiHvSpEmDgY9tkgAJmIAAHVgmWASzD+HSpUuSPn16Qeixq9WuXVuWLVtm9uFzfDYigBB3VDfT2rZt21R0khNsxowZ0rZtW8NqWCtXrlQvYDQSCCYBvMAjddzV4DhdvHixOt2nkYCVCMCZAQfGm2++Kaj+amSohotqm6+99pqVpsaxGhCAbuvly5fd/oICRf3793cEL0StQwdLu6dHlHeuXLlMzwBZH9BY1FZD93bgiNRq3769fPbZZ4ym9BYeryeBMBOgAyvMC2CF7qF7ZVRhkC/LVlg9e40Rp24Q8NSmsuKlGVFYTjC8bI0fP15VvdIadLBOnDhhe2F7J6yzWecI7RSIV9+8edNtiHAgb926lZEpZl04jitSAnhxL168uO53BTfAMTtu3Djp1KmTxIgRgxRtQMDoIAxyGDt27HDE9xf2UTiUfv78udtqwkGLiHYr2L179+TLL7+UwYMH+z3c7t27q7RgGgmQgHUI0IFlnbUKy0hxQpM7d271UuxqcCJAWBvVS2gkECoCeB7r1auni/yDLgk2n06pxgcnQvXq1WXLli069BUrVlTiwjQSCAYBVMOE5trTp0/dmkc1Npxm00jASgSgedW0aVPBC7HWkE6FAzxGFVppRaMe68iRI+Xjjz92uzBDhgyCYinYS9jdXrx4IalSpdIdQkCGAELoVjE44HCY8tdff/k15AQJEhh+/v1qlDeTAAkElQAdWEHFa/3GN23aJJUqVXKbCE4kly9fLjVr1rT+BDkDyxHAZgWabKh05mqoCoUIEOhbOMHgQMiZM6ecO3dON92BAweq8u9OYeGE9TbLHGfNmqUrU47IFKSap0iRwizD5DhI4KUE8BKPSNbevXvLP//8o7s2YcKEKiVWu/8hVusT2L59uyAl1NWQTgZNP2goOcFw2DB16lS3qSKKFnIMVrI1a9ZIixYtdM44b+bAYlTe0OK1JGAOAnRgmWMdTDsKCD1C8NHVkidPLmfOnHHMD71pF8fBAzOqSIiT09OnT6sTOacYIq0QiaVNBYBDAZv0EiVKOAUF5xkCAkhfLViwoBw6dMitNxxmrFixIgQjYBck4B8BPMNnz55VQuzYxxgZnBmI6MWzTrMfgWfPnkn8+PEF/+tqOLCtUKGC/SZsMKPdu3cLHDeuhj0Uqm9aNbMCDucOHTrIrVu3PFpDHMYnSZJEdu3aJdmyZfPoHl5EAiRgDgJ0YJljHUw5CpxQwlmlrXiGEtPz5s1zhFaAKReGg1IvHthwaEVIIUAKMd7o0aM7htLw4cNVBUKtJU6cWCDW6iSHnmMWPUwThYMYnzttBa9169ZJlSpVwjQqdksCnhPo3LmzijzRpsBGtIDIKzj/8+TJwz2O51gtdyW+rzZs2OA27pIlSypnhhMM3+F41rVC6FZ34iEyH9HA2t8oozVFhHqyZMlYrdAJDzznaDsCdGDZbkkDN6FRo0ap8HpXwwnN8ePHJUuWLIHriC2RgA8EevToIWPHjtXd+fPPP6tqUk6xR48eCSqCGuleoSIhImNw0kgjAX8JGJVfR7TKqVOnBKXNaSRgRgI46EDFZKRWQ7A9MkPkKoqB1KpVy4zT4JgCSGD06NHSq1cvtxbh0EBUllMOwOCk1X4erKaDFcBHgk2RAAlYiAAdWBZarFAOFSlJ+HGDqKWrlS9fXjZv3hzKobAvEjAkgJdmaGFpT9oqV64sa9eudZT+040bN9Tn9fr16zpWQ4YMUS9uNBLwlwBe7FF91tUyZcokJ0+eZIU2f+Hy/qAQwB5mwIABsnDhwkjbh+OiQIECqtqgVhspKINio2EnAO0kpN9r7cqVK0rg3Alm9H1etWpVARsaCZAACZiZAB1YZl6dMI4NQtlp06YVpBG62jfffKNyzGkkYAYCRlpYGBcqSxltTs0w5mCN4eDBg1K0aFGdIDH0LODsYyphsMg7p11EqGgFr0eMGCF9+vRxDgTO1BIE8JwivXrw4MG6VHPXCSA6dejQoSoNm5GqlljagAzy999/F0gOaG3//v1SuHDhgPRh9kaMsiyQIo4DCRoJkAAJmJkAHVhmXp0wjq1evXqydOlStxEgVeTy5cuSKFGiMI6MXZPAfwlAvyFjxow60U4IsULLwWkGR8IXX3yhmzb0sI4ePco0L6c9EAGer9ELPjRHIIhMIwGzEECUIFLModn2Mi0cOPWRMlikSBGzDJ3jCBGBu3fvCn4XtYZUU6TkO8FQjAORh66GA6979+5J7NixnYCAcyQBErAoATqwLLpwwRx2ZCdT0AswejkO5ljYNglERcAoCgsaFnBglStXLqrbbfV3CBOjIpxWnBaTrF+/viq+AB07Ggn4QsDIgeWJWK4vffEeEvCWwPnz56Vly5aybdu2l976+uuvS//+/eW9996TWLFiedsNr7cJAWQZQPDb1ZyUco/v7hQpUggkCFwN6bYNGjSwySpzGiRAAnYkQAeWHVfVzzlNnDhRPvzwQ10rSFHSntb42RVvJwG/CeC0MH369OrU0NXwkgL9kzhx4vjdh5UaQNQByr+jHLbWmO5lpZU031jpwDLfmnBEooS3odsDJ71W9sCVD6LIGzZsKJBCYIQJn5yOHTvK5MmT3UBUqlTJ8ADIrrSMdLDwb8uXL7frlDkvEiABGxCgA8sGixjIKeBEBilZf/75p1uziGh58uQJhXoDCZttBYyAUeocXrb37t2rdKGcZnA2FytWTPcyh2gDaHxA8J1GAt4SoAPLW2K8PtgEsC9B1CmKy6DaYGSGQw5UqM2QIQO1roK9KBZpf/Xq1VKjRg230ULnD0WMnGI41Orbt6/bdJFaCTF7Onmd8hRwniRgPQJ0YFlvzYI64u+//16aN2+u6+O7776TFi1aBLVvNk4CvhK4cOGCejHRpjNlzZpVDh8+7LiNGF7kunTpIl9//bUOKTgdOXJE4sWL5ytu3udQAnRgOXThTThtfMfNnDlTVRhE0ZnIDBXlIH3QuHFjHsCZcB3DOSTo9yVMmFA3BCelRaPgzdtvv+3GAFHrKPySJk2acC4P+yYBEiCBSAnQgcWHw40AxK9xSulqKJOOtCRW6OHDYmYC77//vsyYMUM3xAULFqi0EacZXvDKly9vqAcDfYs5c+ZQ/8VpD4Wf86UDy0+AvD0gBM6ePas0rObPnx9pe4gar1OnjkyYMEFSpkwZkH7ZiL0IIHrPSGLASQ4s6MYh68LVokWLpqLXWdzAXs87Z0MCdiJAB5adVtPPuVy8eFH9kGnLpCM9C2HGNBIwMwGEvGfJkkUeP37sNsxChQrJL7/8InihcZqdOXNG8uXLJ48ePdJNferUqdK2bVunIeF8/SBAB5Yf8Hir3wSwN9m4GVDbcgAAIABJREFUcaM6kED0TGSG6oI//vij4LufRgKREaAD6z9kIOR+/fp1N0yjRo2Snj178uEhARIgAVMSoAPLlMsS+kHhxAnRV1u2bHHrPEGCBHL58mWmG4V+SdijDwQGDRokQ4cOpbPGhQB0PpAioD1VxskzPu/QyqKRgCcE6MDyhBKvCQaBW7duqcpoqDCoPWRz7Q/Vkvv162eYGhaMcbFN6xKgA+s/a/fBBx+owgau9sYbb8jOnTutu7gcOQmQgK0J0IFl6+X1fHJXr14V6AU9fPjQ7SZUI0QIPo0ErEAAFagQhaUtQpA7d245evSoFaYQ8DGCyUcffaSrtoSOkB4MjbC4ceMGvF82aD8CdGDZb02tMKNZs2bJ4MGDdd/rrmPPli2b0vyrWLGiIAWKRgJREYjMgQURd4i5O8U2bdokqL7oaohYh9PYSCPMKVw4TxIgAfMSoAPLvGsT0pF9+umnSgxVa0i9cmIVt5DCZ2cBJTBkyBD1sqM1FCho2rRpQPuyUmPQs/j11191Q0aKIT7nqFBII4HICDx9+tSwGIKT9GL4dISWAGQNUCFt7ty5kXaM762WLVvK+PHj+R0W2uWxfG+RObAWLlyoov2cYvicwQEMHq6GdF04hGkkQAIkYDYCdGCZbUXCMJ47d+5I0qRJdSWokVKIkxkaCViJAMTLX3/9dUFUoashZQ7/5tQTRaQCI8pSqxEGRnBgf/LJJyzUYKUHPcRj3bBhg1SpUsWtV0S6vCydK8RDZHc2IQCn6KRJkwQR4C+zV199Vfbt2ye5cuWyycw5jVASePbsmdJ/unv3rlu3+J5bt25dKIcS1r7u37+v9G8RceVqI0eOlN69e4d1bOycBEiABIwI0IHF50KmTZsm7dq1cyOB8OHt27dLyZIlSYgELEdg8uTJ0rFjR7dxI/0JZdffe+89y80nUANGlEKXLl10zcERMX36dGnVqlWgumI7NiOA5wbPj6vlzZtXpaDSSCBQBOC8wn4EFWVfFt3Xo0cPFTXu1AOJQPF2ejudO3fWyWTEjBlTjh8/LpkzZ3YEHnzO4MDSSi80b95cZs+e7QgGnCQJkIC1CNCBZa31Cvho8cOF1KIDBw64tZ0qVSo5deoUtXECTpwNhoLA7du3JWfOnLrKOog0/P3331XEoRMN2h7vv/++zJkzR/dyiIINy5Ytk/LlyzsRDeccBQGI+u7evdvtKqTkIjWXRgKBIHDz5k1VGXX58uWROq/gNB0zZoxUrlw5EF2yDYcTwDMH3cx79+65kXjrrbfkp59+ckz14u7du8u4cePcGIAL3gNoJEACJGA2AnRgmW1FQjyelStXSq1atdx6ZaRKiBeB3QWFwJIlS1S5daQUutqIESOkT58+QenTCo1CywiCrTt27NANN02aNPLbb7851sFnhfUL1xiRlos0VFdDpGP79u3DNST2ayMCp0+fVnsRHDAYGVLA69evL1OnTjXUYrMRCk4lxATwHYbnytWgrfbHH39IunTpQjya8HR36dIlSZ8+vW6/dP78efXvNBIgARIwEwE6sMy0GmEYC6IttmzZ4tZzhgwZ5OzZs9TDCcN6sMvAEYDWE1IAtFpYyZMnVy/iTqoypKWKSKz8+fMbviy+9tpr6vOPiCwaCYAANFISJUqke7mB08EpaTZ8EoJHADpWcKr//fffhp288sorsnPnThUtblQJM3gjY8tOILBnzx5DuYwpU6bo5DXszAN7f20aIdLGUcWYRgIkQAJmIkAHlplWI8RjuXbtmuAHS1t5pFu3bjJ27NgQj4bdkUDgCSxevNiwmhDC5ZGG4mQ7ceKElC1bVm7cuKHDUKpUKVXAgZUJnfyE/Hfu+D2A5pCr8aCDz4a/BCBhMHHiRBUR++jRI8PmqlevLt98841jImH8Zcr7vSeAKG1oQF24cMHtZgi8w6HjlN9BfNbWrFnjxgD/hlRKGgmQAAmYiQAdWGZajRCOBRtHaEkcO3bMrVdU9UEIv1PCpkOInF2FiUCxYsVUpSpXw8b03LlzgrQUJ9v69esFG1SjSnIQSB46dKiT8XDuIkqLKHfu3LpovTZt2ijhfxoJ+EIADit8x0R2WIaoqw4dOqi/Ozla1he2vMd7AnDS1KxZU6e9hoMcVOR2gg0cOFCGDRvmNtVs2bIJDrsY+eiEJ4BzJAHrEKADyzprFdCR4qQJqR8vXrxwa5cvJQHFzMZMQGDu3LnSrFkz3Uhw6v/55587fmOGKkOtW7fWObGQQggNEDj7aM4lgNLqSLvVasnhuUGVKhoJeEsAKanvvPOObN682fDW2LFjy6hRo+TDDz/0tmleTwI+EYCYO7SetJGAnTp1kq+//tqnNq12Ez6PFStWdBt23Lhx5c6dOwKHMo0ESIAEzEKADiyzrESIxzF69Gjp1auXrtcff/xRbSxpJGAXAoguQgW1X375xW1K0aNHVw6aTJky2WWqPs0Djolq1aoJorG0hug1aM8wAsIntLa46fDhw1KgQAFdZAKiGqFJRCMBbwhcvHhRkKKM/zWyaNGiqe+c4sWLO/5wwRuuvNZ/AjjowoGXq8WPH18gt+GEaG0UeIHWoVZWZO3atYKqjDQSIAESMAsBOrDMshIhHMft27dV2WCcqrgaXlL27t0rMWPGDOFo2BUJBJ/AunXrpGrVqrqOsGGdM2dO8Adg8h6wYS1Tpozs37/fbaRw8k2aNMlRQrYmX6qQD2/evHnStGlTt37hZMDvB4X+Q74clu5w+fLlgihvRPUZWaFChQS6hdAjopFAqAmg4AuePThyXG3ChAmOiQbEPgn7JVerXbu2LFu2LNTLwf5IgARIIFICdGA58OFAOLS2qgheVHfs2CElSpRwIBFO2e4Enj17pjTfEHHlatB1gIg5Ku853Xbt2qXSB7Snr+By4MABKViwoNMROXL+7777rsyfP99t7uXKldNVr3UkHE7aYwKoZoZCAFrZgogGEPn9/fffC1KWaCQQLgKI/NNGaxcuXFh3uBOu8QW7X6OCHXg/QNqvE6LQgs2X7ZMACQSGAB1YgeFomVYgyIsf44MHD7qNGbn/EGqE9gSNBOxI4OzZsyryEJ8BV8OGDZU3aaIEk7XV5sAF3OD8o5Crs54SfFYSJ04s9+7dc5v4zJkzpVWrVs6Cwdn6RODx48dqz4HiMEaGaL6ePXvKyJEjfWqfN5FAIAngOfz444/dmsTvHhw4TnCubtmyRcqXL69DevLkSYGgO40ESIAEzECADiwzrEIIx7BixQqlcaV9iUeaUMeOHUM4EnZFAqElgJN/VFPTRmHlyJEj0per0I4w/L09ePBAsmfPLleuXNENBqXsURWM5hwCiLyD88HVIOZ7/vx5SZ06tXNAcKY+EYBcAV6GoaNmZHAI/PDDD0qDD1EeNBIIN4G7d+9KkiRJdHtkpFEjQtDudvnyZXn99dd101yzZo2hDIPdeXB+JEAC5iRAB5Y51yUoo4KYdcmSJQXiu66GnP9Tp05xAxkU6mzUTASQxtKlSxe3IeF09fr165I0aVIzDTVsY0GkWq5cuXQ6IOnSpZNjx45JvHjxwjY2dhxaAp999pn079/frVNUpTx9+jSfg9AuheV6w56icePGKv3YyBDVOWPGDClbtqzl5sYB25tAnTp1dJpPyE5A9e5kyZLZevIo6oLCNn/++afbPBGZjeJPNBIgARIwAwE6sMywCiEaw6VLl1QqkFagEuHSn3/+eYhGwW5IIHwEEIUFB4z2MzBmzBjp3r17+AZmsp7fe+89+e6773Sjqlu3rixcuJDObpOtV7CGY/Qc5MyZU44ePSpI/aKRgBEBPB8VKlRQ+oJGli9fPlm9erWkSZOGAEnAdAQ2bdoklSpVchsXDrqWLl3qiCrdgwYNkqFDh7rNH5HZSAOmjIDpHlcOiAQcSYAOLActO36Q8cPsavgxQrpQypQpHUSCU3UyAaTQohqWqyG1EGkufCn/DxVEa0L0Xqtbg+8LiL2z2IMzPkGIxNM+A/Xq1VOV4mgkYEQAewxUMotMrB3fK4gCjxUrFgGSgCkJ4PcPKdKIzHY1OO+PHz9uyjEHclBIEUcUllZqBP8OvVwaCZAACYSbAB1Y4V6BEPWPH128pGuta9euMm7cuBCNgt2QQPgJGKURJkiQQJA6x2qE/12fVatWSc2aNXULFj9+fBWBg5RCmn0JQAsFLyt4mXM1pJHCsUUjAS2Br776Sj755BN59OiRIZw+ffqoyI6YMWMSHgmYmgAijRs1aqQb47Zt26RMmTKmHru/g4MWZoYMGeTWrVtuTc2dO1dQlZZGAiRAAuEmQAdWuFcgRP1DfHnKlCm63g4dOiQI56eRgFMIHDlyxPCZR+nsokWLOgVDlPPE6WuLFi0MhWsRxbZo0SKJESNGlO3wAmsSwMGGNq0WTkutNoo1Z8dRB5LAs2fPZPjw4QLNNKPIK0S24uCgU6dOgeyWbZFA0AigAEHmzJkFou6uhr00CprY2fAZxnuBNvr2ww8/lAkTJth56pwbCZCARQjQgWWRhfJnmEgRRFURbTgwfqB+++035rT7A5f3WpLAq6++Kijv7moNGjRQ+k60/xKITNAdV/Tt21e9tNLsRwC/FaVLl1bpoq4Gx+WPP/5ovwlzRj4TQLQVBJ4nT55s2AaiW1H9uFy5cj73wRtJIBwEEIGMSGRXQ4VCRKdC1N3O1qpVK5k1a5bbFEuVKiU7duyw87Q5NxIgAYsQoAPLIgvlzzDbtm0r06dP1zWBl1NUIKSRgNMIII0FQqWuhjLu2JiiyhrtPwTgyNiyZYsStEV1IleDhs3OnTulcOHCxGUzAnDuZsuWTVD4w9VGjBghSAOjkQAIINUIenhIKzUyVGzbunWrQDuIRgJWI3Dx4kWVSqf97fviiy+kV69eVpuOV+NFkYUaNWq43YMCOH///TcPvb0iyYtJgASCQYAOrGBQNVGbeCGHXgl+dFwtR44cSscGL+00EnAaATz7+fPn121MkWbbrl07p+GIcr69e/eWUaNG6a5LmDChEr+nHlaUCC11AarHIWoXqWGutnv3bgr4W2olgzfYc+fOSfny5SNNKS1YsKD88MMPyhFKIwGrEihbtqxs377dbfjQk4X8hp33z6jUnDRpUuWkdrUNGzboKjRadW05bhIgAesSoAPLumsX5cghvosTlHXr1rldC92a9evXq80njQScSABpLxBsf/Lkidv0s2bNKgcPHpS4ceM6EUukc8YJdPXq1XXfJbihYsWKsmzZMsHpLM0eBKZNm6Zz5MJZCcfWK6+8Yo9JchY+E9i4caPUqlVLl4aNBlGpFC/9SDVNnDixz33wRhIwA4FJkybptNvwHfjHH3+o6Cw7G1IGtWnkrVu3lhkzZth52pwbCZCABQjQgWWBRfJ1iDghReg+TlJcrW7durJkyRJfm+V9JGALAngBW7lypW4uAwYMUJWyaO4EkE6WJUsW3fcJrkI6BdIqaPYgUKhQIeXIdbVmzZrJnDlz7DFBzsInAkgphnOzffv2hvfDeVW/fn1qCfpElzeZkQDSqRGJpK2sWbVqVUGaHZ55u1rnzp11ou045ENVcxZwseuqc14kYA0CdGBZY528HiU2mij1C40are3Zs0eKFy/udZu8gQTsROD58+eCVFpowbla8uTJlRYWN2j61d6/f7/6XtFGrsWMGVNVK4QQPs3aBK5fvy4pU6bUFf1AgQOur7XX1p/RIwoT6dWzZ88WfHcaWdeuXWXkyJGC7wMaCdiFAAqWQP/P1eC4wt7BzlFYc+fOFRxcuBoirVGJFmL2NBIgARIIFwE6sMJFPsj9IkXwrbfe0vXSsmVLXWWRIA+FzZOAaQlMnTrVMJqgXr16smDBAltrXPiyKHCMf/rpp0oAX1vVFILN0AVJlSqVL03zHpMQgN4LUsC0duTIEcmTJ49JRslhhJIAnJooBoOIVe3nHuOIEyeODBkyRLp160bHfygXhn2FhACiURGVqrVvvvlGOnToEJIxhKMTOOgyZ86s6xoaotABo5EACZBAuAjQgRUu8kHs98WLF0rfSlvuFnn7J06ckEyZMgWxdzZNAtYigCpae/fudRs0xFnxb6ywZ7yWtWvXlhUrVuj+iO8WbPYTJEhgrYeAo/2XwPjx46VLly66z8Pdu3epc+aw5wRRV9DAqVOnjty8edNw9qlTp1bO/tKlSzuMDqfrFALQk0UxAm20Npw7SKezc8QhIq4ePnzottQ9evSQ0aNHO2X5OU8SIAETEqADy4SL4u+QcBI6ePBgXTNNmzZVaT40EiCB/xJYu3atVKtWTYcEabZIt6XpCdy/f1/pYSEyQ2tIIxo3bhyxWZQAIncRwetq+HxA74XmHAL37t1T1cYOHDigq9YaQSFjxozK0Y/oSxoJ2JkAHLkQNdfaV199JdCKsqtB31LrrIJTC98P0aJFs+u0OS8SIAGTE6ADy+QL5MvwatasKatWrXK7FZomp0+fZnU1X4DyHlsTQMQiih3g86E16L00b97c1vP3dXKRbeihDQJB9549e/raNO8LEwGUTIdgsbbwBxxalStXDtOo2G0oCaBYAzR/UEVQG3nhOg6kWU+ZMkVVc6WRgN0JPHv2TB3aXLx40W2q77//vipsYFfbtm2blCtXTjc9RJ5h30QjARIggXAQoAMrHNSD3GfevHkFOequxuirIENn85YmcPLkSSlQoIBOnBwbVgiXJ0yY0NLzC9bgkW6GdAI4AV0NKYTY6DOVMFjkg9PuvHnzBL8VrobT9v/P3lmAaVV1b3/R3V0ijXQjpXQISEqHgDRIKCEpXUpJgyMNkkoI0kh3dyMgJUgO7Xfd+3vx/9QwzzPzxDn73Ou65uJ9nXP2Xuu3z5xYe8X9+/dZ28g3yA0z6s2bN2XKlCkyduxYFV0RkiC9umvXrqqoNSMwDLN8VMQPBNB58Pfff7ebqWjRoi6bJflBHb9MgYY27733nlMU5sKFC6Vu3bp+0YGTkAAJkIAjATqwNLsmkKuPj23HndMNGzZImTJlNLOW5pCA9wh07NhRJkyY4DQgihej2DvFmQAKOiPic/Xq1U6/xMstHCL8yDXPlYNoQ8c082zZsqkNEZ3bxZtnhbyrKf5+//rrL5UiBMeVqwLttjNGixZNBg4cKN27d/euIhyNBExAAE0MPv30UztNsUlz7949bRu+4J6AOndwcNtKixYtZMaMGSZYNapIAiSgIwE6sDRbVVfdB9EhCDuqKOJOIQEScE0AUUTosoZoLFtBgVZEEyVNmpToXBAIDg6WtGnTyp07d+x+i49dNI3Quc24bhdEmjRpBClktoLUQceaWLrZbUV7kBrUoUMHuXDhgjx9+vSdCOC8hHMTHUhTp05NZ6YVLxjaLC9fvlQbxHjm2crmzZulZMmS2hIaMWKE9OzZ086+ZMmSOTm1tAVAw0iABAxHgA4swy1J+BSqU6eOLF682G4QFGJdv359+Abm2SRgAQKuUqhgNmrIXblyRetuQ+FZ3mXLlglq4jhKwYIFVTdUnbs0hYebkc6dNWuWfP75504qodskouwo5ieAe9ikSZNUjUzUsHFHEEmJQs7syOoOLR6jOwGkDO7atcvOzFatWql6cLoKOtBiAw8OPFtBA4dChQrpajbtIgESMDABOrAMvDieqobCu3jIPHz40O5UdCXs16+fp8PxeBKwJIEqVaq4TIlDFzZX3QotCcmF0bVr15alS5c6/QZOwfr16xOTgQmgQDEK8jq2iWcnTgMvmpuqoTA/6vYsWLBA4GgOLU0Qw0aOHFl1XMO7g6sCzm5OzcNIQDsC6Dj4ww8/2NmFWpmnTp3Suk5ghgwZnJ4P+K7APYJCAiRAAv4mQAeWv4n7cD6kOeFBio8RW8Fua+XKlX04M4cmAX0IbNmyRUqVKuVkENLkzp49y2iiEJb60qVLkjVrVqf7D1KOkKbEKCzj/o1gfeDActxhR0249u3bG1dxahYiAaQFwmGFLmmOXSXfhQ0pUosWLZLy5cuTLgmQgAOBOXPmSJMmTez+a8KECdUzLn78+NryqlChglMqObM7tF1uGkYChidAB5bhl8h9Bffu3Ssffvih0w4rdtXTpUvn/kA8kgQsTODNmzfSpUsXQYc9R+nbt68qYkxxJoDIjl69eqnuZI7CQvjGvmLatGnjlAKDukc3btxQ6bMU8xBAuk/nzp1l7dq1cuvWLbcVR62z/v37S/bs2bX+EHcbCA8kARcEUCMTGzW2gs6c586d0/o9G6nHjpsZeDagCQSFBEiABPxNgA4sfxP34Xz4sMYLqK2ge8jVq1e17ZDiQ5wc2sIE0MUT0YyOnXdixowp+/btE3RmozgTQBdURPLgZd5WUNAdRaNZL8N4Vw3apGODwzH6qm3btqpeEsUcBJAmGBQUJMuXL3day5AsQFoQirMj/ReOKwoJkMC7CWCDC80u4Ny3ldGjR6uNL10F70KIpsYz3lb279/P+ni6LjrtIgEDE6ADy8CL46lqefPmlcOHD9udhp3YMWPGeDoUjycByxMYN26cimRwFDi28HcWK1YsyzNyBQAf0Wix7SixY8dWHR7hVKcYhwCKDyMCy1ZQA+no0aPKGUkxLgFEWKGgNCJDjx8/7paiceLEkXz58kmnTp2kRo0abp3Dg0iABP6PgKuIVbx/Hzx4UGtMBQoUkAMHDtjZiMYfP/30k9Z20zgSIAHjEaADy3hrEiaNbt++LWhr6yi7d+8WFOKlkAAJeE4AO63Xrl1zOrFevXqqKDLFNQFXBV9xJCKwcE9CehrFGATwfED6ua0kSZJEXfesW2aMNXKlxezZs5Wj+NWrV24pib+5ihUrypIlSyRGjBj8G3SLGg8iAWcCiHbE35Kj3LlzRxInTqwtsu7du8uoUaOcnhWov4soawoJkAAJ+IsAHVj+Iu3jefAx3aBBA7tZEPFw/vx5l44tH6vD4UlACwI7duxQXbgcw+Zh3IwZM1xGGmlheDiNOHbsmIrycPVx3a1bNxk5cmQ4Z+Dp3iCAtM6SJUs61U2cN2+e0/PEG/NxjPARQIOWyZMnq9ROpOm601EwV65cKkIL66zzx3X4yPJsEnCfACKJkXLr+F6A+2mJEiXcH8hkR/7yyy9OUZtwhqO5DdILKSRAAiTgLwJ0YPmLtI/nwQvq4MGD7WZBqg4cWHjAUEiABMJGYNasWYIweUdB4Va80FWpUiVsA2t+1ubNm6VSpUpOHdAiRowo6G6HGkuUwBKoVauW6lRnK/gQQd1ERskFdm1sZ0cXQTiukO55+vTpUBXDM/+TTz5RDnZ0D8PfHIUESMA7BB4+fChJkyZ1erZNnDhR2rVr551JDDgK6n7h+WDrOMdzAg0j2LXUgAtGlUhAYwJ0YGmyuJ9++qmsXLnSzpocOXIIIiEoJEACYSeAoq1wUuElzTHiAS3nt2zZIrlz5w73Bz/GhuPg8ePHEiVKFFVE3uwfnoi2QnFbMLQV1A9D2kGCBAnCvjA8M1wEEB2HTQ6kvdgKa5qEC6vXT753756kTZtW3RdCE0RY4UMSdS/xgU0hARLwDQF0/N6zZ4/d4NWrV1dNFHSWggULCgq320rDhg1l7ty5OptN20iABAxGgA4sgy1IWNXBy6rjh8i0adME7espJEAC4SOAj/2cOXO6jH6AswnRRsWKFQvXJNu2bVMfn8+ePVNdQ5GKsHHjRlM7seC4wku9o3MdoPLkyaNehGErxf8Exo8frwp5O8qRI0cEaWeUwBPAvQD3AccPRkfNEAWBLsRffvmlxI0bN/CKUwMS0JwACpc3b97czkq8CyDNV2eZMmWKU/Q0aiX+888/zPbQeeFpGwkYjAAdWAZbkLCog84n+fPntzsVD5S7d+8KOg5RSIAEwk8AkVblypVzWdcJBUyXLl0qlStXDvNEKJyNv9m3AscO0oUQiWVmQfttRIP+/fffTmbMmTNHGjVqZGbzTKk7onkQ1YPoHlspXbq0cppSAk8gODhYRX5u2rQpRGXef/99Vd8KqaCIBqWQAAn4hwDuoXAWO0Zloxso6mPpKqh3hef5y5cv7UxcvXq1SlumkAAJkIA/CNCB5Q/KPp7DVf0rPEDdbavtY/U4PAloQ2DFihXSpEkTefDggZNNaJqA4tdI5w2LuKo5hA9UdIiDc8vMsmHDBuX8cxR8dMMBnz59ejObZzrdd+3aJcWLF3dK7UQzEHTYpASWAJy91apVEzSRcCWZMmWS1q1bS/v27SV69OiBVZazk4BFCSRPnlxu3bplZ/0PP/wgHTp00JYI3n3wXoKIK1tBYxaUDKCQAAmQgD8I0IHlD8o+nAO7P0WKFHHKxa9bt64sXLjQhzNzaBKwJgE4XFD/wnEHEjQQ+QhnDZwDnhbBDul4XTrCde3aVcaOHeu0Y40i02vWrPGYlzWvPu9YXb9+fafnQ+TIkdXHWMKECb0zCUfxmABSBtevX686fbnqfIqaeGiM8OuvvzL11mO6PIEEvEsAnT23bt1qN2jt2rVl8eLF3p3IYKMhehf1Om2lVatWqskEhQRIgAT8QYAOLH9Q9uEcqM2D6AUURLYVFHHt3LmzD2fm0CRgTQJwGu/cuVNFFCHNx1HgCAgKCpLGjRt7BCgkBxaKo6JIqtkFndRQR+zcuXN2psDunj17ytChQ81uoin0v3DhgmTNmtUpFfabb77hGgRoBeGsmjlzpgwbNkwuXrzo5OR9qxacwIh0YN24AC0UpyUBGwJfffWValJiK3nz5lVRxToLIq2+++47OxNRA3T79u06m03bSIAEDESADiwDLUZYVEE4Lwq4OxaOxAMUD1IKCZCAbwggvQeRjtevX3eaAB+YiDbyJJXAlQMrVapUKoUQ3eJ0EDj+ypYt6+T4y5Ytm5w4cUIHEw1vA4p99+/f307PmDFjKseiLteZ4RfhfwqiyQEcV7169XJKRXK0AR+NcPLCQU4hARIIPIHff/9dKlasaKcI0uLv378r163lAAAgAElEQVSvdUQxUtCLFi3qZDdqKpq9c3LgrypqQAIk4A4BOrDcoWTgY1x1QkmUKJHcvn2bDxIDrxtV04PAoUOHVEqPYx0MWIcXOTixUKfGnZc6Vw4svCgiXVEnQac01AmxFaRBw7lF8T2BZMmSqeeDrWCzA45SOkd8zx8zIOLq8OHDqmtgaNc97guoh4W0JK6Pf9aHs5CAOwQQgZ0gQQJBdLGt4F5asGBBd4Yw5TFwvGPTw9FuNJ3JkiWLKW2i0iRAAuYiQAeWudbLSdvChQurDw9badCggSomTSEBEvA9AURBZsiQwWWXPcw+fPhw6dGjR6iKoAU3UoJtBQXjZ82aFeq5Zjrg6dOnqig9/oWgbhgcgPHjxw+XGXAKoOMhfh4+fKiKzOJFGz+YAx2jUN8JDhz8eFqjLFzKGeRk1C1B/RJHQXOCqlWrGkRLvdXAdVmnTh1V6yo0wTUKB7ijwze08/h7EiAB/xBAJBI2mmylU6dOavNKZ0EjifPnz9uZOGPGDGnRooXOZtM2EiABgxCgA8sgCxEWNfAijGgrfKDZCqKyPv/887AMyXNIgATCQODy5cuqhfSpU6dcnv3111/LqFGj3jly9+7dnY6B4+XatWum70LoaDjuXfv371e1fvAijK5GoQlSNfGhsHv3btVhFekKGOfRo0fqB7vBSN+AkypWrFjq522tIDgGnzx5ohxbcDji3xgxYgg6R8KxBecZUrERiYRNAfzg3qqbIAWtd+/edmaBGVM/fL/S6CzYpk0bWbVqlaBY+7sEa4LaOuhomjhxYt8rxxlIgATCRMBVHaw0adLIpUuXtK5VV6pUKdmyZYsds+rVq8vy5cvDxJEnkQAJkIAnBOjA8oSWwY5FCoKrOle6hy8bbBmoDgkoAtiNRGQF0gpdCZoq4KM0pMgf1IDKnTu3U/cxXYq4e3KZvHVwHThwQHVYxb/4b4h0ww+iiN7+i7pNKVKkUA4nd1Os4OyCQ+HGjRuqhhkckCiefeXKFbWOiFTCmAUKFJBChQpJ/vz51Q+cXmYVOAvRHdMxZY0fHb5dUaTVTJkyRSZPnuxUq9JxZqQjoVA7fpCiQyEBEjA2gfnz5zs1WcHmCZ4pOjuf0VgGtttK9uzZ1eYShQRIgAR8TYAOLF8T9uH4P//8s9SrV89uBnwc3717l63QfcidQ5NASASQCoeaVXh5dSXNmzdXH7KIrHIURAghCuhtat3b3+N4RG7oLIiQ+uuvv1Q6NNIQNmzYoKLO4JxCjTGkt8GB5K/ua3BwoUg/Uus2btyoUhwRtVWjRg2VIoEX9eTJk5sqDRE2wenn2HQA3aQQRUDxHgE4C9EZGA7riRMnOqUGO86ECMCmTZuqIu10XHlvHTgSCfiawJEjRyRPnjx202Aj5ejRo/LBBx/4evqAjY8UyS5dutjNj/cafH/EiRMnYHpxYhIgAWsQoAPLxOvcrFkz1cHIVvLly6eiFSgkQAKBIYDCrihKjhdbR4GDGWlBS5cudemMQTob0uFsRWcHFhxX06dPVx/uiIhCBAo6N+LehpdgRDy5UwDflyuN2lpwKuLFHM6IH3/8UTkk4FwbNmyYcmqZoZ4W+KL2F+yxFXas9e7V8/jxY+VwXrZsmVO3TVczYRMKEVr42zfDdeRdWhyNBMxNAB3AEXHlWL8S0Un169c3t3Hv0P7ly5dqkwkp+baCbqkjR47U1m4aRgIkYAwCdGAZYx081gI7vEhxcex+pvPHrseQeAIJBIgAnB2NGjUStNl2JZ999pkgNdAxEssKDiy86K9cuVKCgoJUlFPGjBmVwwrpbVmzZhUUszeywEGJNIlNmzYpG+BwLFmypLRu3Vo++ugjwzohEGmFjwtbwTMEkUL+imwz8rqGVzeknaJZA2rAOHbncjU2ar/h+ilWrJhhr5nwMuH5JGAFAogQRm07W/n444+dakTpxgKO+qlTp9qZBWceGqmgviSFBEiABHxFgA4sX5H18bj4gMqZM6fdLAhbRnoI0pAoJEACgSWAwth169ZV6XCuBKmGcOTY1snQ2YGFl1p83I8bN04VsS5fvry0bdvWZR2/wK6cZ7PDkYUoMqQaIkXvyy+/lMqVK6uIGqMIGn3AUYjCwrYCpxuifyhhJ4AaV0h7RadARGO8S+AoLFOmjHIkli1bNuyT8kwSIAHDEECnYMfGSYgcxv1A582BNWvWqOY1joI6i4hCp5AACZCArwjQgeUrsj4ed9KkSaq9tq0gpQWFiKNFi+bj2Tk8CZCAOwTgqMFO7L59+1THPUfB3yqKlOfKlUtFYejowEKKwffffy9DhgxRdaOQXoACsDrKiBEjVCdJ1DPDPRpF/bEjHWhBJ0t0xnKUX3/9VaW0UjwjgL/lO3fuyLfffivTpk1zSst0HA1RhenTp1cOXJ3r4nhGkUeTgB4Ezpw5o/6uHZ/xeB9Ply6dHka6sAKR5kgjdBTc59AchEICJEACviJAB5avyPp4XBR8nT17tt0s6EiI1vSBrhnjY9M5PAmYigDSiRo0aKBq4rgS1Hnq1KmTqqekkwMLzjsUB1+4cKGK/kF6c7Zs2SR69OimWj9PlUVKIe7DuEcjXbJjx47yzTffeDqMV49HlBgifxwF0UNZsmTx6ly6D4Zi/ogcXL16tVP9F1e2w4GNqMMcOXJoHY2h+7rTPhIIiQCii5ESjPp3toISAog01lmQhg77baVv374ycOBAnc2mbSRAAgEmQAdWgBcgrNOj64ljkWgWTwwrTZ5HAr4lAGcO0rUcnc62s6KO0q5du5zq55itrh0KniOdasKECco5AicWXuJ1TqVwdfUgfWTJkiUqIgvrj/tzkyZNBKne/pYBAwaoaCFbgeP0/v37jNh1czFQtBjOSNStwv8OTRBViWhDOA4Dseah6cffkwAJeIcAnnmItLp9+7bdgHgOoimJztK5c2floLeVKlWqqPIIFBIgARLwFQE6sHxF1ofj4mGZMGFCpw/d3bt3S+HChX04M4cmARIIKwE4MZCuhVpJqEnkrpjFgYVoo23btilHHT7Y+/fvLyhWb/WIUDiy4MxD2/G0adOql31Ey/qz45yrXfLmzZurjoqU0AmgcyOiJNGF8l0CJy2KsiP6AJFXFBIgAWsQcLWpjDIfuPfrLL/88ovqxGsreN7cuHEjRLPPnTunNgPWrVunamjB0adzqqXO60/bSCBQBOjAChT5cMyL7mWNGze2GwEOLbRJp5AACRibABxYcGTBEe2OmMGBhbS5WrVqKecc6l1hV5ZiTwD1UbAbj6LpLVu2lPHjxzt1ofQVM1fOsqNHjzo1AvHV/OEdF07A0qVLC4oD40Pn0KFDfi2SD4cUHLIhCfgihWjz5s2CWpQUEiABaxFAhC06vdoKnNnbt2/XGsRff/0lqVKlcqr/he8RfJe4Emy07927979foXvv1q1bteZE40iABLxLgA4s7/L0y2iFChVSRaFtBSk6yLenkAAJGJ/A5cuXpV27doIuPqGJkR1YcMqgiDVS1HBfGj16tCpWTXFNAJF3SP1G9BOcfnBiueri5G1+rhxYwcHBpqlHBka2fyupU6dWDUtQHN2XgjUaPHiw6jKIrqKuBM9epGcWLFiQqYK+XAyOTQIGJoBuw+XKlbPTEPfdLl26qE0dXQVp6Igsxr3SVtCcBu8ErgT3bURsvxX8/9A6uOrKj3aRAAmEjQAdWGHjFtCz0O0ExXdt5euvv1a1VigkQAJhJ4DaNqhThe46yZIlk0aNGvnsoxQphXD4DB06VHWtC0nmzJmj9DCaIEUA9x3sMCNCxbGNuNH0NZI+cGQNHz5cpRWiLhYcILFjx/aZimZ2YMFJitQ8xw5fvnTArVq1SjnM5s2bF2Khdny0IZoOH61Wq+/mswuVA5OASQngfoSOs473qZgxYwoaP+h6j8C7C6JPEYllK3D6t2jRwmk1t2zZIqVKlXL67666NJv0UqDaJEACfiBAB5YfIHt7ClcOLHb98DZljmdFAnXq1JHFixf/ZzpS4caMGeNTFEiHqlevnpw9e9blPNi9xS6uP2smhWYwUrlQ3wqpA+jG5qqVdmhj8PciJ06cUO3GsQON1uO+6ghoZgcWItZQX8ZRvOnAwsfT9evXVRpLv379VHRXaIK/2QULFoR2GH9PAiRgEQKu3s1hOqKNdHVgwTZ0F0ZdK1vp0aOH2qSxFXRkzpo1qyAC3VbQmRj3cwoJkAAJuEuADix3SRnoODqwDLQYVEUrAo6h7XjpRGtsvGD5UvDyhp1aV4Ii6EuXLlWOjkALPvQRbYWoMfyLCCxdX8z9xRqReG3atJFFixap6L/atWt7fWp8NJw5c+a/cePGjSt37tzxWw2u8BjUq1cvGTZsmN0QiFZDjZWoUaOGZ2h17qZNm1TNtvPnz7v9ERUtWjS5evWqJE2aNNzzcwASIAE9CCAKCSn0uKe/lfjx46t7lc7NTNCU5PDhw3aLWLduXVm4cKHdf8M98/3333eKUkM5hdAaZOhxhdAKEiABbxGgA8tbJP04Dh1YfoTNqSxFAC+ZjqHs33zzjXLY+FreFWGFNLNZs2b5WoV3jv/gwQP54osvVKfB+fPnq6LaFO8RQLoairwjFRM713CSeEsuXLgglStXVlF+cLoEBQX5pfaWN/R39bwrU6aMrF+/PkxRiUjfRNorOjD+8ccfTtEA79IZaYOILEBNLvxvCgmQAAnYEsA9Fk1a3t5r8dyuUKGC1pCQAYJagbaSM2dOQaMQW+ndu7fTuxTeey5dusT7qdZXCI0jAe8ToAPL+0x9PiIdWD5HzAksSsBVK2zsqCI6w5cpfK46i9ouwaBBg6RPnz4BWxW8YDZr1kxFqCxbtkylDlK8T+DAgQOqm2Px4sVVfazEiRN7fxITjXj79m1Jnjy5k1MZO/vY4XdXkLqyY8cO1fwEjsJjx465e6o6Dl2y0DmyYcOGPr0PeKQUDyYBEiABAxDA/TRXrlx2miBq/Z9//vlvIwa1slKkSOFU7L1atWryyy+/GMAKqkACJGAmAnRgmWm1/qcrHVgmXDSqbAoC2C11VYx83bp1Th2GvGHQ69evVcpYSC9wiAhDeP6uXbt83nEtJHtu3bolaHuNF9QVK1Z4w2yO8Q4CuCby58+vXvzR2SpOnDiW5YXoR8c6KkjzhUPqXQ5l1GVB4WREQaDQOhzE4OquYGykWaZMmVKWLFmiarxQSIAESIAEXBNAqiSitG1l8+bNUrJkSfWf8I5To0YNu9/jPrt79+4QuxWSNQmQAAmERIAOLBNeG3RgmXDRqLIpCKALIeoFORZxxscs0rC8HRHToEGDEAtBw4GBNKkCBQpIjBgxAsIPO6t4AW3VqpXqlOfNtLaAGGSSSVF3DY5UFDBH1BA+DqwmqCODovaom2IraB6Ajrtt27ZV9ekGDBjwX1crdOdF9yt8LKHuDD6oPO1ulS9fPhkyZIj6u0uUKBEjrqx24dFeEiABjwl8+OGHsmfPHrvzbMsvIG3dsSshahiibljChAk9no8nkAAJWJsAHVgmXH86sEy4aFTZNAQQsYGPY0dJly6d+rCtX7++12xBAXTU5HEUFHQfN26ceuHzZeriuwxB9A8cbF27dlU/3iiY7TVwFhgIzhkUyf/9999Vp0erRQGdOnVKUEfFMXIKXQJR8BcOKgj+VipVqiTo5olUV08dVvj7yp07t/q7Rm2rHDlyWODqookkQAIk4BkBRLbivQSbCsmSJVPPp7fvBU2bNlVNSGylaNGiqt4g7rGoOYgamrbC7oOe8efRJEAC/0eADiwTXg10YJlw0aiyaQhcu3ZN3nvvvRA/hFEPZ9WqVV5J7XLlnMqcObOKykIkSKAExa2R2oii4ijQGignWqDsN8q8L168UC/9qN/022+/qYgkKwicuqiNgr8zW8F1+NVXX8l3330Xbgwowo5aY+3btxdED/AaDzdSDkACJKAxAdwrJ02a9J+F2DjAcwmCqNju3bvbWY9NP2xEIHKbDiyNLwyaRgIBIEAHVgCgh3dKOrDCS5Dnk8C7CXz88ceqQ1lIgg9e1KUKr7j6aEbNHRTyDpTcuHFDpVHCcdWtW7dAqcF5bQggnXDTpk2CFDlEHOkuqItSpEgRJzNRGwxRUmhq4Kngby1y5MgSL148+fnnn9lF01OAPJ4ESMDSBBwjxnFPfRtBjojtcuXK2fFBhBVSBJECTweWpS8dGk8CXidAB5bXkfp+QDqwfM+YM1ibALrtIQIENahCkpMnTwr+FsMjRnNgnThxQhD2j3pXX375peCFlRJ4Aiha3qVLF0Ezgb1792pfM8RVbTgUbz98+LCgA6EnDiykITZq1Eg5rN5//32v17EL/NVBDUiABEjA9wRcva+8Tdm+e/euJEmSxEkJpBumSZNGBg4cKP3797f7faxYsVQdQwoJkAAJeEqADixPiRngeDqwDLAIVMESBH799VcVFo9uZo6SKVMmld7VqVOnMBU3R20fRIQ4SqAisM6fP69qCVWtWlVGjBgRsK6HlriwwmAkXvQbN24sN2/elJUrV2rriNm/f7+KvkK9FVvBtYmUQjhXQ3Jg4QMLKbjFihUTpPoikhJOKwoJkAAJ+IPAP//8o6KO8HP79m25d++e+sF/R2fUp0+fypMnT1QnVcf6fki1Q02p2LFjC5w7aB6TIEECtWGBBjKoO5UiRQpJnjy5ILrJ3/IuBxZ0QcdcR4cUol3r1KkjdevWlUWLFjnd09+mIPrbFs5HAiRgbgJ0YJlw/ejAMuGiUWXTEsCLJ6I4UBvLlaRMmVIQjYXUJE8E3eUKFSrkdMrSpUulZs2angwV7mPx0lm2bFm1U7p48eJwj8cBfEMAkYGIkENB959++knLwvqlSpWSLVu22AHExxz+/pCKMnToUOndu7fd7/HRV6FCBfn+++8FjmUKCZAACfiKAGoTvnVMIcJo586dAsf7wYMH5f79+8oBhVRv3LfglIKzKVWqVMoRhXsY/sXvHDew4NjCD945MA4cYGhWgfs+urK+/T26JaO+FFKqCxYsqH4Q/fR2/IgRI/rE9NAcWIhaX7Fihd3cqJs1YcIE1RwDEd62gmcY0uMpJEACJOApATqwPCVmgOPpwDLAIlAFSxG4fv26cu6E1OEML5IotI2XVXcF5+CF11E2b94sJUuWdHeYcB+HXWCkV+HlFHUsXEWFhXsSDuA1AviQyZ49u4qWw4eBToJ6KkgVdOzMCYcuHLsQRDEgAgEfdRBcr/iALFCgAAux63Qx0BYSMBABRIQiOhoNVuBghxMJjixESaH2EyI+S5QooRxLSL1/+wNnUngcSnjnwP0QP3hW4wfPALw7oMPfxo0bVVo5BPdORGrBkYRoXW/fE0NzYLlKE4TjCqnfcOI5RtW+TS800DJTFRIgAZMQoAPLJAtlqyYdWCZcNKpsegKIfHlX4XY4Fb755htp2LChW7bipdbRIYYC1djB9GftqT59+qhoHtiG7osU4xNA9B4ijqZOnSqfffaZ8RV2U8MxY8ZI165d7Y7GRxM6Wdl2YERUwtatW9VHHaIjrdKd0U2MPIwESCCcBJCqvWzZMvn9999VCYGLFy9K3rx51eYSmrggNRnR13AYhcdBFU411elIR4S+iFI9c+aMbNu2TTX9ePTokWTMmFHdI2vUqKEcbZ5ssjnqFpoDCyUXqlevbnca2KAph2O0OaLUoB+FBEiABMJCgA6ssFAL8Dl0YAV4ATi9JQngJRFFSJcvX+6yJtZbKKjB07lzZ/Uih3oVrmTcuHHqGEdB3QxEl/hLVq9eLbVr11YvmLlz5/bXtJzHCwRQWwS77NjdRkqh2QV/X4hewN+AraCOlWNKodltpf4kQALGIvA2qgndh/GMP3bsmHomIj0PTiukNqMelVkEm2NwZiGiGw6tAwcOyK1bt5QTq0qVKioVPUOGDB4530JzYO3Zs0c59xwFad+9evWy+8+418MpSCEBEiCBsBCgAyss1AJ8Dh1YAV4ATm9pAkgbqFy5strhdEx1sgWDlz1Ex8yZM+e/WkV4qUSqIV6IHQu4IuoKtS+wM+kPwY4twvv79eunOg5SzEegSZMmgmgs1F9BTRWzCv4u8HfStGlTJxPmzp3rdlSjWe2n3iRAAv4ngGf5nTt3JCgoSNXPg6RPn146dOigNgeQkqeTXLlyRbB5hmLqeNfAZhs25YoXL67qZ7lyUDm+0zjysI0iRyMYVzUIkV4Jx6CtICILDi8KCZAACYSFAB1YYaEW4HPowArwAnB6yxOA4wovuPPnzw+VBVINUGQagpe9y5cvq/oZjoKdXkRC+SsdASloKDSLNInQXlxDNZIHBIQArqM8efKoAvz4MDGrIOKhVq1aLmvM4aOLqa1mXVnqTQLGI4Boz0mTJsn48eNVxCe6nvbt21dFXCHKyl/P4ECRgf13795VkWboOIwmLviuGDlypHJmhSShRWCh8DwcYY6COoWO9a8QBYZuuhQSIAESCAsBOrDCQi3A59CBFeAF4PQk8L+6E126dJEpU6aEWNzdXVCFCxeW9evXqzbU/hDsNk+ePFmlFoSU5ugPPThH+Akg1QUOLEQRIDLQjDJ48GD1AekoiIa4cOGCGU2iziRAAgYigE0nPO+mT58ua9euVZFCiPgsX768irqyqiAKDRG8qF+FKFg48NA0o23btqrGl62E5sACY3frd6JeKFILKSRAAiQQFgJ0YIWFWoDPoQMrwAvA6UnAhgC6ouEDHJFMYfnYRhQU0sD8VccIOubKlUsWL14sKBpPMT+B7777TnUkPHnypIqqM5sMGjRIpbI6Cj6g8FGFFBR2xzTbqlJfEgg8AUQXoVPf8OHDBSluqGXVrVs3VduKYk8Azqx58+YpJ9+RI0ekUaNG0rp1a1W8Hs6r0BxYGM3daG6kMerUgITXEgmQgH8J0IHlX95emY0OLK9g5CAk4HUCCMlHF8Lg4GC3xsZu5W+//aZ2gf0h2CEtVqyYpE2bVhYuXOiPKTmHHwhgXfPly6c+yqZNm+b2R4QfVHNrimHDhjkV+bU9EXXhWrVqpTpp4WMKtWnetql3awIeRAIkYCkCSK/G8/htXT04yBH1Q3GPAGqD4V0GReCzZs0qv/zyi+po6Ch49tg6rdx1YKGzo6t6We5px6NIgASsToAOLBNeAXRgmXDRqLJlCDx58kRKly4te/fufafNqLeB6BIUUnf3pS+8EGfOnCk9evSQ06dPm6qjUnjttsL5x48fV04sFMt11QnKyAzQ/h0fM+gEFpqgDTzqrOAnbty4HtWrQeetIUOGaFecOTRm/D0JWIUA6kwiIhU1rtAoBXWu0MnUTB0EjbJWcE5dunRJpacjwhfR5o4yduxY6dSp03//2Z13GdQYg4NR91pjRllH6kECOhKgA8uEq0oHlgkXjSpbigBC8VFjCkVNXUmiRIlURAk+xv0lDx48UNErvXv3lhYtWvhrWs7jJwL4cEM3yUOHDqldc7N10Lp69aqgphyiJmw7W3kbHwo2b9my5b/GCt4en+ORAAn4nwCintFUZdSoURIjRgzVSRApcP58xvrfav/NePHiRSlQoIDTO038+PFV6YS3xdvdcWCxgLv/1o0zkYCuBOjAMuHK0oFlwkWjyiQQYALt27cXROls3bo1wJpwel8SSJcunfTs2VPVLjGjvG2M4E40Vljsg2Pv+vXrkiRJkrCcznNIgAQMRABRVoh2xobQo0ePpGvXrtKuXTvWzPPBGiGazTba6u0UiHj76quv1P91x4G1Zs0aqVixog805JAkQAJWIUAHlglXmg4sEy4aVSaBABJAKgB2SBHdgiK2FH0JIHUGaR2oMWJGQfQVIhfxQYSUV29L1KhRBSmLdGB5myzHIwH/EkCdJkTzoIseUoPhvMLfN8U3BBBZ/t5778mtW7fsJkA9QkRo4XehObDixYsnWDezRQj7hihHJQESCCsBOrDCSi6A59GBFUD4nJoETEYADoGqVasKCmEvWLAg1BdMk5lHdR0IoLYIaj3hw65///6m5YPrFt05UYPl8OHDsmfPHvX/0VUsPFKuXDnVOIFdDcNDkeeSQOAI4N6AouxoWFG5cmXVAMJVgfHAaajvzBs2bFDRU4h8s5XMmTOrjZPQOhvPmDGDJQz0vTxoGQn4jQAdWH5D7b2J6MDyHkuORAK6Ezh58qTkypVL1UbKmTOn7ubSPhFZunSpSiFE23jUKNFFEEkIm+DMQtqQ40dUaHbi+m/ZsiWdV6GB4u9JwIAE4Ljatm2bqm+FqJ+BAweqzRmK/wig1hiahaARjKMgugq1NkMSbKLh/p0sWTL/KcyZSIAEtCRAB5YJl5UOLBMuGlUmgQARQG2QM2fOsPZVgPgHYlpEYWXIkEFFJrRp0yYQKnBOEiABEvAaAUReDh06VMaMGaMcWPjfTEPzGl6PBsJmWKFCheTVq1d256H77e7du0McC1FacHyFlmbokTI8mARIwJIE6MAy4bLTgWXCRaPKJBAAAqdOnVIvmqj5g91RinUIbN++XcqXL68KlrOFvHXWnZaSgG4E/vrrLylZsqSKulq5cqWkT5+eTpAALzJSsZFOaCuoP4Y6Wa4Ea4f3kUyZMgVYc05PAiSgAwE6sEy4inRgmXDRqDIJBIBA586d5dixY+pFk7ueAViAAE759OlTwY430myaN28eQE04NQmQAAl4TgARPqNHj1a1/NCdtHv37lqlRHtOxDhn7Ny5U0qUKCFI63ZHJk6cqLpDUkiABEjAGwTowPIGRT+PQQeWn4FzOhIwIYFnz56pwrbo5Fa2bFkTWkCVw0tg3LhxMnfuXFUzKmLEiOEdjueTAAmQgF8I3Lx5Uzp27Khq3U2fPl1Fk1KMRaBx48bq+RKa4NkzYcIEVZeRz6HQaPH3JEAC7hCgA8sdSgY7hg4sgy0I1SEBAxJArZB58+apFuMU6xJIkSKF+sgoU6aMdSHQchIgAdMQQMp7ntsJAO4AACAASURBVDx5BO+6iB6OFi2aaXS3kqJYG6QShiZNmzZVjUVQI2vFihUSI0aM0E7h70mABEjgnQTowDLhBUIHlgkXjSqTgB8JoIg3PgCw4/nll1/6cWZOZTQCX3zxhdy7d0+WLVtmNNWoDwmQAAnYEZgzZ460b99e+vbtq/6NGTMmCRmUANIH69Spo5xT7xLUvYKzq2bNmoJi/KtWrVLR4RQSIAESCCsBOrDCSi6A59GBFUD4nJoETEAAO9hZsmSRkydPStq0aU2gMVX0FQEUc69Vq5agEDLTN3xFmeOSAAmEh8C///4rPXv2VCnvSH2GY4T3q/AQ9c+5ly5dUkX13yVx48aVBw8eCMoaoC7nmjVrZPLkyfLJJ5/4R0nOQgIkoB0BOrBMuKR0YJlw0agyCfiRQNeuXeXq1auyZMkSP87KqYxKIEeOHNKrVy9p0KCBUVWkXiRAAhYl8OjRI0E9pcOHD8vy5cslb968FiVhPrNv374tKVOmlNevX4eoPCLpUAPrrYwYMULwM2PGDKlWrZrqLkkhARIgAU8I0IHlCS2DHEsHlkEWgmqQgAEJIEQ/fvz4sm3bNilSpIgBNaRK/iaAj4fhw4crpyajGvxNn/ORAAmERACROXBYwQFy4MABSZw4MWGZiADSCAsVKqTW7q3gGfO26zEK8Y8cOVKiRIliZ9XGjRtVYf5hw4ap7pIUEiABEvCEAB1YntAyyLF0YBlkIagGCRiQABxXCM1HaD8/Bgy4QAFQ6ejRo+oj4+zZs/Lee+8FQANOSQIkQAL2BC5fvixVq1aVVKlSyeLFiyVOnDhEZEICr169ks2bN0twcLByXBUtWlQSJUoUqiWIuKtQoYLUrl1bJk6cGOrxPIAESIAE3hKgA8uE1wIdWCZcNKpMAn4i8O2338r69esFtY/e7oL6aWpOY1ACz58/V2keqC+DD0YKCZAACQSSwPnz55XzokSJEvLjjz8yjSyQixHAuY8dO6bqnRUsWFCCgoIkcuTIAdSGU5MACZiFAB1YZlkpGz3pwDLholFlEvADARTCRb0j1JeoUqWKH2bkFGYh0L9/f8HHArsRmmXFqCcJ6Eng9OnTqktuixYtGHmj5xJ7ZNWff/4pxYsXl9y5c8vChQvZedIjejyYBKxJgA4sE647HVgmXDSqTAJ+IIAUsQ8//FDu3r3LWkd+4G2mKW7duiXp0qUT/MtUHTOtHHUlAX0IwIkOZ0Xbtm1l8ODBjLjRZ2nDZQmeSzlz5pTChQvLr7/+yveXcNHkySSgPwE6sEy4xnRgmXDRqDIJ+IHA+PHjZcGCBbJr1y4/zMYpzEQAaYQZMmSQn376ScqVK2cm1akrCZCABgROnTql6jPWrFlTvvvuO6a4a7Cm3jQBG29lypQRfOPgPYYlELxJl2ORgF4E6MAy4XrSgWXCRaPKJOAHAnXr1pV48eLJtGnT/DAbpzATAaSXoivlp59+Kr169TKT6tSVBEjA5ASuX7+u7j/Vq1cXbLRQSMAVgWvXrkmlSpVUNBZqNkaNGpWgSIAESMCJAB1YJrwo6MAy4aJRZRLwAwHUkOjTp4989tlnfpiNU5iNAK6NEydOyPLly82mOvUlARIwKYE7d+5IxowZlfN8zpw5JrWCavuLwNWrVyVbtmzy5ZdfqjTTiBEj+mtqzkMCJGASAnRgmWShbNWkA8uEi0aVScDHBBBhEytWLEFr8qRJk/p4Ng5vRgJILW3QoIFcunTJjOpTZxIgAZMRCA4Olo8++kgV5l67dq3EiBHDZBZQ3UAQQD3PQoUKqQ25r7/+OhAqcE4SIAEDE6ADy8CLE5Jq2JlALQFbwQ1+1KhRJrSGKpMACXiDwB9//CEtW7aUM2fOeGM4jqEhgVevXknixInV8yNFihQaWkiTSIAEjESgdu3acvPmTdm0aRPTwYy0MCbQZfv27VKrVi31bdOkSRMTaEwVSYAE/EWADix/kfbiPKVLl5bNmzfbjdisWTMJCgry4iwcigRIwEwEUNfo4sWLqg01hQRCIpA/f37p2bMn00x5iZAACfiMwOvXr+Wrr76SVatWyc6dOxkV7DPSeg+MOljYoMc3D+piUUiABEgABOjAMuF10LlzZxk3bpyd5qgtgNazFBIgAWsSKFiwoGC3u0ePHtYEQKvdIoAUwuTJk8vo0aPdOp4HkQAJkICnBOC4qlatmhw5ckRy5Mjh6ek8ngT+I4DvnW+++UYuXLjAyGFeFyRAAooAHVgmvBBwM4cTy1aKFSsmCLelkAAJWI/A8+fPJV26dKq7E5xYFBIIiQBqiuzYscMpipfESIAESMAbBPAu+sknn8jixYulQoUK3hiSY1iYwLNnz1QKIep7IhU1duzYFqZB00mABOjAMuk1sGLFCrWzZStZs2Z1qotlUvOoNgmQgIcE7t+/LxkyZJCVK1cKnNkUEgiJwI8//qgieA8fPszuTrxMSIAEvErgr7/+kpIlS6oU5YEDB/Ie41W61h3sxYsXgijz4sWLy8SJE60LgpaTAAkoAozAMuGFcOzYMcmVK5ed5kmSJJHbt2+b0BqqTAIkEF4C+GjIlCmTckqgXTmFBEIisH79elXs//z58xI5cmSCIgESIAGvEEAn3IoVK0qUKFFU7SsKCXiTwNWrVyVPnjxqA6Zx48beHJpjkQAJmIwAHVgmWzCo+/jxY4kTJ46d5pEiRZKXL19KhAgRTGgRVSYBEggPgUuXLkmWLFnk1q1bkiBBgvAMxXM1J3DixAn5+OOPBU5PfGhSSIAESMAbBBBxNWnSJDl58qQkTJjQG0NyDBKwIzB37lzp2LGjXLlyReLGjUs6JEACFiVAB5ZJFz5WrFjy9OlTO+2vX78uKVOmNKlFVJsESCCsBI4ePSqFChVS94SIESOGdRieZwEC9+7dk9SpUwvSTqNFi2YBi2kiCZCArwkcPHhQChcuLOvWrZNSpUr5ejqOb1ECb968Ud0t165dK3v27KETy6LXAc0mATqwTHoN4AMEDitbQaviIkWKmNQiqk0CJBBWAqtXr1aNHc6dOxfWIXieRQigvX2MGDHk77//dorktQgCmkkCJOBFAriXFC1aVGrUqCHDhw/34sgcigScCWATJnfu3PLFF19I//79iYgESMCCBOjAMumioy0xUkFsZeHChVK3bl2TWkS1SYAEwkpgypQpsmTJEtmwYUNYh+B5FiKQKlUqda188MEHFrKappIACfiCQJcuXWTjxo2CKCzW1fMFYY7pSODmzZuq3udvv/0mH330EQGRAAlYjAAdWCZd8BIlSghaFdvKiBEjpHv37ia1iGqTAAmElcDgwYPl+PHjAic2hQRCI5AzZ05VCLd06dKhHcrfkwAJkECIBDZv3qwir/bt26caiVBIwF8EkEoIxyma11BIgASsRYAOLJOu96effiorV6600759+/YyYcIEk1pEtUmABMJKoGvXrvL8+XO2lw4rQIudhx3rDh06SJ06dSxmOc0lARLwFoFXr15J9uzZVUe4Pn36eGtYjkMCbhEIDg5WDUmKFSsmo0ePZhMrt6jxIBLQgwAdWCZdxyZNmsicOXPstK9SpYqTU8uk5lFtEiABDwi0adNG4sWLJ4jCpJBAaAQqVKgg9erVk2bNmoV2KH9PAiRAAk4E/v33X0HXQUT9InUQdfUoJOBvAlu2bJFq1arJoUOHJH369P6envORAAkEiAAdWAECH95pUbAZKSC2UrBgQdWVI0KECOEdnueTAAmYiACKmSZLlkyGDBliIq2paqAIYLOjcuXK0rZt20CpwHlJgARMTAA1WHPlyiX79++XvHnzmtgSqm52AogmRirrsWPH2IXZ7ItJ/UnATQJ0YLkJymiH4UPVMWQbdU2wCxEpUiSjqUt9SIAEfEigRYsWgsLc2BGnkEBoBJCCXr58eZVGSCEBEiABTwnACR47dmyZN28e3zk9hcfjvUoAXTBR0H3ixInSoEEDr47NwUiABIxJgA4sY65LqFrNmDFDWrZsaXccbuAnT56UKFGihHo+DyABEtCHQOvWrSVBggRsYa7PkvrUkkqVKknt2rUFjk8KCZAACXhCYPHixdKpUye5cOECUwc9AcdjfUZg2rRpMnLkSDlw4IAqp0AhARLQmwAdWCZd3xUrVqi8b1tJnTq1nD9/XqJFi2ZSq6g2CZBAWAjgYwKpw2PHjg3L6TzHYgTQfRDOq4YNG1rMcppLAiQQHgKvX7+W/Pnzq86D/fv3D89QPJcEvEqgSJEiUrx4cRk1apRXx+VgJEACxiNAB5bx1sQtjXbv3i24WdtKokSJ5M8//+SOmFsEeRAJ6EMAHxKXLl2S2bNn62MULfEZAXyAIg29YsWKPpuDA5MACehHALVXJ0+eLMePH5fIkSPrZyAtMi2B1atXy+effy43b95kWqtpV5GKk4B7BOjAco+T4Y7Cx6pjx43o0aPL3bt3JVasWIbTlwqRAAn4jgA+KtatWyd4gaOQQGgE8OxYsmSJ5MuXL7RD+XsSIAESUAQePXokmTNnVqlajRs3JhUSMBQBdMZEZkqcOHFk7ty5bGhlqNWhMiTgXQJ0YHmXp99Ge/LkiSqg6SinT5+WLFmy+E0PTkQCJBB4AnBGDB48WA4fPhx4ZaiBoQngJR+bHFeuXJEkSZIYWlcqRwIkYBwCiLwaPXq0HD16lJH+xlkWamJDANkppUqVUvWA06VLRzYkQAKaEqADy8QLi4ir58+f21lQq1YttbNOIQESsA6BvXv3Srly5eTBgwfWMZqWhonA48ePJXHixOpaYb3EMCHkSSRgOQKI7k+RIoVs3rxZ1RmikIBRCRQrVkxFF//www9GVZF6kQAJhJMAHVjhBBjI03v27CkjRoywUyFixIhy48YNSZYsWSBV49wkQAJ+JIDmDVmzZlVOCaYQ+xG8Cae6ePGierm/ffu2RI0a1YQWUGUSIAF/E0Ca+nfffSfnzp0TbJ5SSMCoBFALOHv27IJorGzZshlVTepFAiQQDgJ0YIUDXqBPRbvYAgUKOKmBDoVVq1YNtHqcnwRIwE8Erl27pmqTnDlzRtKkSeOnWTmNGQls27ZNGjRooIr+swizGVeQOpOAfwkEBwerDZLx48c7db/2ryacjQRCJ4BOmUgjLFy4MDsSho6LR5CAKQnQgWXKZfv/Sj979kxFWj18+NDOirp168rChQtNbBlVJwES8IQA0jsyZMggmzZtUi3OKSQQEgE8GwYMGKC6iEWKFImgSIAESOCdBJCKNX36dFX7ikICZiCwY8cOQUmVs2fPSty4cc2gMnUkARLwgAAdWB7AMuKho0aNku7du9upFiFCBPn7778lQYIERlSZOpEACXiZwNOnT1XB0h9//FGqVKni5dE5nE4Ehg0bJr/++qvs2rWLXZp0WljaQgI+IoBNEWyMOr5r+mg6DksCXiGAKKyiRYvKkCFDvDIeByEBEjAOATqwjLMWYdIEbY1TpkwpKMxrKwj17tixY5jG5EkkQALmIoDOcug+2rlzZ2nXrp25lKe2fiXQqlUr1fxj1qxZfp2Xk5EACZiPwMGDB1WDEKQcM5LFfOtnZY1/+uknGTp0qIrCwsY+hQRIQB8CdGCZfC3fvHkjBQsWFLxk2ApeONatW2dy66g+CZCAuwS++OILVdNoypQp7p7C4yxIoGTJklKvXj1p06aNBa2nySRAAu4SQC0hdBxEJAscARQSMBMBbPBnypRJli1bpiKxKCRAAvoQoANLg7UcOXKk9OjRw86SmDFjyp07dwT/UkiABPQnsGjRIvn+++9lz549+htLC8NEAJF6qVOnVpsb6NJEIQESIIGQCFy5ckUVb0e6cZ48eQiKBExHAN9HM2bMkFOnTrHmo+lWjwqTQMgE6MDS4OpA/ZtEiRKpou62gh2zb775RgMLaQIJkEBoBJ48eSIJEyZUTR2iRYsW2uH8vQUJXLx4UXWuRY1EplRY8AKgySTgAYEJEybI2LFjVQpWxIgRPTiTh5KAMQicPn1asmXLJidPnlTOWAoJkIAeBOjA0mMdpWbNmrJ8+XI7a9KnT69u2vyY1WSRaQYJhEIAnQhRyB1pYhQScCQwceJEWbp0qepWSSEBEiCBkAhgQxTPE9QRKl++PEGRgCkJvHr1SnLmzCnNmzeXbt26mdIGKk0CJOBMgA4sTa6KmTNnSrNmzeysiR49umD3IW3atJpYSTNIgATeRaBSpUqSL18+dt3hZeJEAOmDuD7wMo/utRQSIAESCInAhg0bpFGjRoKoTZai4HViZgJImW/btq36HooSJYqZTaHuJEAC/yNAB5Yml8Lt27clVapUgt0GW0HL9J49e2piJc0gARJ4F4G+ffvK7t27Zf369QRFAnYEXr58KR988IHgmfDZZ5+RDgmQAAmESAAdbY8fP66eJUw35oVidgIpUqSQ+fPnq4YEFBIgAfMToAPL/Gv4nwUNGzZUN2hbQdtjOLeYRqjRQtMUEgiBwB9//CG4D/z5559kRAJ2BFAjLXny5OqjlFG5vDhIgATeRQD3CBS/RkdrCgmYnQCijzNnzizjxo0zuynUnwRIQETowNLoMti2bZuqffPmzRs7q7Zs2SIff/yxRpbSFBIgAVcEEGWDSMzNmzezyxwvETsC8+bNk9GjR8uBAwdIhgRIgARCJIB3xqZNm8rly5cZfcXrRAsCP//8swwaNEht4FBIgATMT4AOLPOv4X8W3Lt3T9KkSSPoSmgrKFyIVrIUEiAB/QmgWCkkKChIf2NpoVsEsKmRJ08eadOmjbRr186tc3gQCZCANQk0btxYdR2cNWuWNQHQau0IPH/+XEUg79u3TzJmzKidfTSIBKxGgA4szVa8Vq1asmzZMjurcNO+ceMGd9I0W2uaQwKuCKxcuVLwAXLt2jWJHTs2IZGAiqTIlCmTHDt2jK3EeT2QAAmESADNHrJmzSr9+/eXBg0akBQJaEOgbt26kihRIpk0aZI2NtEQErAqATqwNFv5q1evSvr06eX169d2lq1YsUKqVq2qmbU0hwRIwJEAHFe4Bxw5ckQV7aaQwJIlS1Qb8Zs3b7KjGC8HEiCBEAk8e/ZMEiRIIHiXTJIkCUmRgDYEpk+fLt99951KI2Q3Qm2WlYZYlAAdWBoufPbs2eXkyZN2liEyCx8xFBIgAf0JoPBu4cKFZfDgwfobSwtDJYDNCzwXhg8fHuqxPIAESMC6BKZMmSILFiyQrVu3WhcCLdeSACKQS5QooSKS48ePr6WNNIoErEKADiwNV7p9+/ZOIbKpU6dWO2psh6zhgtMkEnAgsGfPHqlQoYJcv35dYsWKRT4WJoD7PlKC7ty5w2vBwtcBTSeB0AggfRD1gbp37y6tW7cO7XD+ngRMRQC1IFOkSCGLFy+Wjz76yFS6U1kSIAF7AnRgaXhFHD16VHLnzu1k2bp169gSWcP1pkkk4EggODhYtYweO3asIPqSYl0CqGWzceNG2b59u3Uh0HISIIFQCdy6dUt94O/fv1/y5csX6vE8gATMRqBr165qM2fOnDlmU536kgAJ2BCgA0vTy6FQoUKq24atwKl18OBB1V2GQgIkoDeBli1byv3795k6rPcyh2odPkRR/6pDhw6hHssDSIAErEsA74wffvihqpXH+lfWvQ50tnzHjh1SsWJFuXv3rkSLFk1nU2kbCWhNgA4sTZd3zJgxgp0GW4kaNapcuHBBkE5IIQES0JsAirnnzJlTDh8+LGnTptXbWFrnksAff/wh6Lx08eJFiREjBimRAAmQQIgEUOQadfLOnz/PchO8TrQkgLIKiE5HlCGb3Gi5xDTKIgTowNJ0oVGsMFeuXE7WLVu2TGrUqKGp1TSLBEjAlkDNmjVVsdKgoCCCsRgBdKLNnz+/VKtWTQYMGGAx62kuCZCApwTg7Ea9PN4vPCXH481C4OnTp/Lee+/JrFmzpHLlymZRm3qSAAk4EKADS9NLAsUK4cA6ceKEnYVILUSBZwoJkID+BNauXSuff/653Lhxg6nD+i+3nYUo3o6d5iNHjkiWLFksZj3NJQES8JRA4sSJZffu3aqQO4UEdCVQrFgx5bzq1auXribSLhLQngAdWBovMaKtXBVwPn78uGqpTiEBEtCbwKtXr1Tb6E8++UT69u2rt7G07j8C6CaG6Lu4ceOqnWYKCZAACbyLAMpLFCxYUO7du0dQJKA1ge+//162bNkiK1eu1NpOGkcCOhOgA0vj1UWnDeykPXz40M5K1Djo0aOHxpbTNBIggbcENm3apLqPoiYWOkxR9CeA+h4ff/yxnDlzhjUP9V9uWkgC4Sbwyy+/SM+ePeX06dPhHosDkICRCZw6dUpKly6tItMjRIhgZFWpGwmQQAgE6MDS+NLALnyePHnk6NGjdlYWKVJEdu7cqbHlNI0ESOAtgRcvXkjy5Mmld+/e8tVXXxGMBQg0btxY/vrrL1m/fj1f0C2w3jSRBMJLYPDgwbJu3TpB4wcKCehOANHJcGSlSpVKd1NpHwloSYAOLC2X9f+McpVGGClSJDl58qSqj0IhARLQnwD+3osWLao6Er7//vv6G2xhC7dt26YadSCSAjVtKCRAAiQQGoEmTZpI9OjRZdq0aaEdyt+TgOkJZMuWTUaOHClVqlQxvS00gASsSIAOLM1XHcXc06RJo0JlbaVNmzYyefJkza2neSRAAm8JlC1bVtKnT88PFM0vCaQO5s6dW8aPH6+5pTSPBEjAWwRKlSoln332mbRr185bQ3IcEjAsgTJlykjFihWlW7duhtWRipEACYRMgA4sC1wdDRs2lPnz59tZmilTJhU+i2gsCgmQgP4E0JEU3XfQZQqt0in6EVi9erU0bdpU1b5KlCiRfgbSIhIgAZ8QQL1UNHzAM4JCAroTwHcRIg5//PFH3U2lfSSgJQE6sLRcVnujQkojRFRW0qRJLUCAJpIACYBA9+7dZdWqVXLkyBGJEiUKoWhE4O7duyo9dOrUqYKXcwoJkAAJuEsgWrRogntInDhx3D2Fx5GAaQn0799f9u7dK2vWrDGtDVScBKxMgA4sC6z+s2fPJG3atHL79m07a1HzgC3WLXAB0EQS+B8B3ANy5swp6ETarFkzctGIQJcuXWTjxo0qwi5mzJgaWUZTSIAEfEng6tWrki9fPuXAopCAFQjg22fSpEmyZ88eK5hLG0lAOwJ0YGm3pK4N6tGjhypYaCtoH3vnzh2mmljkGqCZJAAC6DRVrVo1VdA9S5YshKIBAXQbrF27toqsY5F+DRaUJpCAHwmsXbtWevbsqZ4JFBKwAoGtW7dKixYt5Pz581YwlzaSgHYE6MDSbkldG7Rz506XtQ02bNggKGZIIQESsAYBNHaoVKmSRI0aVZYvXy6RI0e2huGaWhkcHCwFCxaUTz75xGmTQlOTaRYJkIAXCaDhw++//y6ooUchASsQQNQhmp3cv3/fCubSRhLQjgAdWNotqWuD8JETP358efHihd0BSCMKCgqyCAWaSQIkAAK4H+TIkUM+//xz6du3L6GYlMC///4rdevWVenh2IygM9KkC0m1SSCABDp37iz//POPzJw5M4BacGoS8B+B58+fS+zYseXly5f+m5QzkQAJeI0AHVheQ2n8gVC0cODAgXaKolbK5cuXJUmSJMY3gBqSAAl4jcBvv/0mqIO3adMmyZUrl9fG5UD+I4AIOqRB/PHHH8ohSSEBEiABTwkg/Ripx999952np/J4EjAtgQQJEqhu7MmTJzetDVScBKxKgA4sC608QmVTpUqloi9sZdCgQdKnTx8LkaCpJEACIDBgwACZPHmynDhxgrXwTHZJYM2QArFw4UJV/4pCAiRAAmEhUKRIEfn000/lm2++CcvpPIcETEkga9asKurwww8/NKX+VJoErEyADiwLrf7r169VBzLsONhKzZo1ZenSpRYiQVNJgARAAOHz6D6FHUgU8o0UKRLBmIAANiEQNVegQAFZsGCBCTSmiiRAAkYkgDRkRG+2bdtWOnToYEQVqRMJ+IQAHFdw2qKpDYUESMBcBOjAMtd6hVvb+vXrqx17W0H64K1btwRdCSkkQALWInDv3j3l2EY9rCFDhljLeJNai4irmzdvypYtW1j3yqRrSLVJwAgEsLGZLVs26d69u0pHppCAVQiUK1dOGjRoIKgFTCEBEjAXATqwzLVe4db2zz//lAwZMjgVLvzll1+4CxFuuhyABMxJ4NChQ1K5cmXp16+ftGnTxpxGWEBrfGx269ZN1qxZI+vWrZM0adJYwGqaSAIk4CsCiML94IMPBKUksMFJIQGrEKhVq5bqzt61a1ermEw7SUAbAnRgabOU7huCG/bOnTvtTvjoo4/Ubj6jsNznyCNJQCcCS5YskdatW8uqVatUTQjeC4y1um/evJHZs2erl204r5A+SCEBEiCB8BBAZ2rUAho1apTgg55CAlYhgOirzJkzy7fffmsVk2knCWhDgA4sbZbSfUPQiRAdCW0lceLEcuHCBYkbN677A/FIEiABrQggvbhx48ayb98+yZMnj1a2md2YRYsWqa6Re/bsUcXbKSRAAiQQXgLPnz+XLFmyyJgxY6RGjRrhHY7nk4BpCOB5mjp1ahk6dKhpdKaiJEAC/58AHVgWvBL27t0rhQsXtrM8YsSIgv+eP39+CxKhySRAAiCAFLUffvhBRowYIYsXL5bixYsTjAEIzJs3Tzp37iwzZsxQ3cIYHWeARaEKJKABgWfPnikH1oQJE6Rq1aoaWEQTSMA9Aqj5Fj9+fPn+++/dO4FHkQAJGIYAHViGWQr/KYJUlIwZM8qlS5fsJkX9g/nz5/tPEc5EAiRgSAK9e/eWuXPnKidWoUKFDKmjFZRCh7AVK1ZIy5YtZdiwYSyybIVFp40k4EcCbx1Y2LiAc5xCAlYhAAdWvHjxZPTo0VYxmXaSgDYE6MDSZik9M2TkyJHSo0cPp5PQkSxBggSeDcajSYAEtCPQt29fmThxAfrnhAAAIABJREFUouzYsUMV+aX4lwCcVyjWjro0iLxq2LChfxXgbCRAAtoTQAohamDhI54phNovNw20IcAUQl4OJGBeAnRgmXftwqX5sWPHVI0bRGPZCj6YKlasGK6xeTIJkID5CSCdcPLkycrRjSigMmXKmN8oE1kA9mhtjw6xpUqVEqR5U0iABEjAmwTeFnHHpmbt2rW9OTTHIgFDE0ARd6TPOtYENrTSVI4ESEARoAPLohfCkydPJGnSpPL06VM7Ap06dZKxY8dalArNJgESsCUAJ9ZPP/0kvXr1ksGDB0urVq0IyMcEEHnVp08fCQoKUj/YUGDNKx9D5/AkYFECL1++VBG2aO6DD3oKCViFACIOS5QooTr7UkiABMxFgA4sc62XV7Vt06aNTJ061W5MdOS4ePGiRIkSxatzcTASIAHzEliwYIEqIv7ll19Kt27dJGrUqOY1xsCaP3jwQL1Mb9q0SebMmcMi+gZeK6pGAjoQwCZF9uzZ5euvv5YvvvhCB5NoAwm4RaBs2bIqNb9Zs2ZuHc+DSIAEjEOADizjrIXfNUG9qyRJkjilEa5fv15wY6eQAAmQwFsCR48elWLFiknRokVl2bJlEitWLMLxIoE7d+5IyZIl5e7duwLWyZIl8+LoHIoESIAEnAkg4jNnzpzSunVr6dixIxGRgGUIoEFNv379pEqVKpaxmYaSgC4E6MDSZSXDaAeKd545c8bu7M8//1ylDVFIgARIwJbAzZs3Vat1RAqhQ2Hu3LkJyAsEVq9erToNwoE1ffp0Oge9wJRDkAAJuEcAmxL4iEeqOIUErEIA3z+zZ89mp2WrLDjt1IoAHVhaLafnxqALB1JVbCVbtmxy4sQJzwfjGSRAAtoTQNcqFD1FZzx0Kmzbti1TCsO46o8ePZIhQ4aoVG7UoOnQoQPrXYWRJU8jARIIG4E6deoIykegEyGFBKxCIF68eHL+/HmViUIhARIwFwE6sMy1Xl7XFrVWHLuLodvV1atXJVWqVF6fjwOSAAnoQeC3335TNVOwe48Pn/fee08Pw/xkxfHjxxU/RLMtWrRIpfFQSIAESMDfBL766itBCjOiUSgkYAUCwcHBAgcWunBSSIAEzEeADizzrZlXNUb9gzRp0sj169ftxkW3MccC716dmIORAAmYngBe/lAvb9++fSrtuF69eqa3ydcGvHnzRkVdDRgwQJCujftspEiRfD0txycBEiABlwQmTpwoq1atkjVr1pAQCViCAJpVFSxYUP7++29L2EsjSUA3AnRg6baiYbCnU6dOMn78eLszEyZMqKKwWKg5DEB5CglYiMCrV69UUXekv2XKlEnVcEIaMsWZACJe0c0RqYNBQUGq5lWECBGIigRIgAQCRmDDhg3SpUsXOXbsWMB04MQk4E8CeBajE/vZs2f9OS3nIgES8BIBOrC8BNLMw2DnDYWZbSVKlChy5MgR+eCDD8xsGnUnARLwEwGkoPTs2VOWL1+uUuPwQZQiRQo/zW7sadAoY9iwYYK0yxYtWqgaYtGjRze20tSOBEjAEgQQgY8UZnSmppCAFQggYhzRz7t377aCubSRBLQjQAeWdkvquUH3799XLdtfvnxpd/LIkSOlW7dung/IM0iABCxL4PDhw8pJc/r0aRXZWbt2bVVrwooCpx4YjBgxQj7++GOVZoliyRQSIAESMBKBmDFjyo0bNyR+/PhGUou6kIBPCKABzYEDB9SmEoUESMB8BOjAMt+a+UTjRo0aybx58+zGRvQEduaY4uIT5ByUBLQlgNpYBw8elBo1aijHONqzd+3aVVt7HQ1DWiUKI8+cOVMVt1+xYoX6l7WuLHMJ0FASMBWBzJkzq/RvONopJKA7AdTrjBMnjrrmKSRAAuYjQAeW+dbMJxrv2bNHdRNDgWFb2bt3ryp0SCEBEiABTwmg08+vv/6qIpAQ6YmXRtTK0jUK6eTJkzJu3DiVRomUHESwosh95MiRPUXH40mABEjAbwTQjbpatWry5Zdf+m1OTkQCgSJQqlQpVTrFShtrgWLNeUnAFwTowPIFVROOidoHGTJkkH/++cdOe3TLQvQEhQRIgATCSgARSUuXLpVJkybJ0aNHVVph48aNlXM8RowYYR3WEOc9ePBAduzYIT/++KOgMGzx4sVVofbSpUszetUQK0QlSIAEQiPQrFkzdQjSnCkkoDuBrFmzqvT+8uXL624q7SMBLQnQgaXlsobNqCJFijgVNCxWrJhs3749bAPyLBIgARJwIHDlyhVB51N0vooWLZr07t1bmjdvLrFjxzZNpBJSJNFJEHUCJ0yYIGh6Ub9+fYHDHx1cKSRAAiRgJgLDhw8XNPTh+56ZVo26hoXAv//+q9IHL1y4oOr/UkiABMxHgA4s862ZzzR21Y0QNVsuXbokadKk8dm8HJgESMBaBPACiQLnO3fulFGjRgkKv+MegxQWtLZOly6dIYFAz4kTJ8rmzZvlzz//lAoVKqhui3ny5JEECRIYUmcqRQIkQAKhEVi5cqWq23f27NnQDuXvScDUBNBhvUqVKuoZTiEBEjAnATqwzLluPtEa9a9Spkwpt27dshsf3ToGDhzokzk5KAmQgLUJwJmFjyak361du1ZFACRNmlQKFy6sfhAZmitXLokYMaJfQT179kwOHTqknGyoBYg6gYi8Qmog0g7wr661vPwKmpORAAkEnMDly5cld+7cgpRoCgnoTGDo0KGyf/9+WbZsmc5m0jYS0JoAHVhaL6/nxiECAh2zbCVfvnzqZs9uhJ7z5BkkQAKeEXj+/LmsW7dOlixZouploRPq48eP5aOPPhKkNBcqVEg5uBDxFDduXJUKgBS+sAjmQirgw4cPBXUA0UZ+9+7dyokGh1WiRIkkVapUqlZXgwYNlDONnQTDQprnkAAJGJ0ANjBx782RI4fRVaV+JBAmAtgwwztEnTp1VJMVCgmQgDkJ0IFlznXzmdZTp05VKTy2gg9EFHf3dwSEz4zkwCRAAqYggJdNCDoYLly4UHU0RPoeisLDoY7f476UIkUKyZQpk7z//vuqpkX8+PHtalHhuL///ls5qW7fvi3nz5+Xixcvqv/9VhCBinsdoqtq1Kgh1atXl5gxY9Jxb4orhUqSAAmElwAaa8CJha6xFBLQkQA2w/CeMHfuXKlYsaKOJtImErAEATqwLLHM7huJjzx8DL58+dLupJkzZ0rTpk3dH4hHkgAJkIAPCLx+/Vo5tOCMQroLfm7evKmip5D+DGf706dPnVJh4sWLJ7FixVJRVXBy4UMN/yKK663DC/8y0tQHi8YhSYAEDE9gzpw50rNnT1UbiBuWhl8uKhgGAri2M2fOLKiDhX8pJEAC5iRAB5Y5182nWrtKI0ybNq2KWogcObJP5+bgJEACJEACJEACJEAC/iVw4MABlV6FtO3kyZP7d3LORgJ+IIAI7po1a6ro67CWHvCDmpyCBEggFAJ0YPEScSKAVB20hHcUOLAyZMhAYiRAAiRAAiRAAiRAAhoRuHv3rqoviPp/qPtHIQHdCLRv315lmEybNk0302gPCViKAB1Yllpu94yFowr1ZBxl0aJF8tlnn7k3CI8iARIgARIgARIgARIwBQHUCkQBd9RB7dixoyl0ppIk4C4B1LlECQE0KqCD1l1qPI4EjEmADixjrktAtcJNHi8xp06dstMDBQ/XrFkTUN04OQmQAAmQAAmQAAmQgPcJoA7WhAkTVBQWhQR0InDo0CEpXbq0XL58WVATk0ICJGBeAnRgmXftfKr5ggULVNt4W0FRz2vXrqki7xQSIAESIAESIAESIAF9CLx48UJ1cD19+rSkTp1aH8NoieUJTJo0STlnjx49ynq+lr8aCMDsBOjAMvsK+kj/hw8fqpeXR48e2c0wdepUadWqlY9m5bAkQAIkQAIkQAIkQAKBIPA2jfDrr7+WZs2aBUIFzkkCPiFQo0YN1XlwxIgRPhmfg5IACfiPAB1Y/mNtqpnQqj537txy4sQJO73RvWPp0qWmsoXKkgAJkAAJkAAJkAAJhE6gZcuW8vjxY0EkPoUEdCAQHBysGhQgsjBVqlQ6mEQbSMDSBOjAsvTyv9v4gQMHSv/+/e0OSpw4sdy4cYPtZ3ndkAAJkAAJkAAJkIBmBFD/CpuVf/75p6B0BIUEzE5g5syZMn78eDl48KDZTaH+JEACIkIHFi+DEAncuXNHpRGiJoKtsBshLxoSIAESIAESIAES0JMAOlGPGjVKqlevrqeBtMpSBMqWLSt58+ZV1zSFBEjA/ATowDL/GvrUghIlSsj27dvt5vjwww9l586dEiFCBJ/OzcFJgARIgARIgARIgAT8S6Bnz56ybds29f7Hdz3/suds3ieQJEkSWbFihRQpUsT7g3NEEiABvxOgA8vvyM014aBBg6Rfv352SuNBcOHCBYkTJ465jKG2JEACJEACJEACJEAC7yTwxx9/SK1ateTSpUsSO3Zs0iIB0xJA3d4+ffrI8ePHJVKkSKa1g4qTAAn8HwE6sHg1vJPAgQMHpECBAnbHoCbCjh07BJFYFBIgARIgARIgARIgAX0IvHz5UrJmzapSrlAPi0ICZiSAEihIh+3Ro4e0a9fOjCZQZxIgARcE6MDiZREqAdz8z58/b3dclixZ5NSpUwwtD5UeDyABEiABEiABEiABcxEICgqSb7/9Vi5evCiRI0c2l/LUlgREVNRVrly55OzZs5IxY0YyIQES0IQAHViaLKQvzfj+++/l66+/dpri8uXLkjZtWl9OzbFJgARIgARIgARIgAT8TODatWuSOXNm2bJlixQqVMjPs3M6Egg/AThgUfsK2SSs5RZ+nhyBBIxCgA4so6yEgfXYtWuXFC1a1EnDyZMnS5s2bQysOVUjARIgARIgARIgARLwlMCbN2+kXLlykiNHDhk3bpynp/N4EggogXv37qn0wa1bt6prmEICJKAPATqw9FlLn1ny/PlzyZAhg1y/ft1uDoTlHjx4kEURfUaeA5MACZAACZAACZBAYAicOXNG1TtFChYa+FBIwCwEJk2aJBMmTJATJ04w+sosi0Y9ScBNAnRguQnK6of99ttvUqVKFfn333/tUKxdu1YqVKhgdTy0nwRIgARIgARIgAS0I1CkSBGpWLGi9O/fXzvbaJCeBPCtgsyRqlWrSq9evfQ0klaRgIUJ0IFl4cX3xHQ8DNKlSydXrlyxO61GjRqybNkyT4bisSRAAiRAAiRAAiRAAiYggGLuI0aMEERjUUjADAR+//13ad68uVy4cEGiR49uBpWpIwmQgAcE6MDyAJbVD23VqpVMnz7dDkOCBAlUamGMGDGsjof2kwAJkAAJkAAJkIBWBF68eKE6uSGSpUmTJlrZRmP0I/Dq1SspVqyYyg4ZOHCgfgbSIhIgAaEDixeB2wRQAwGFEF++fGl3DsLK0emDQgIkQAIkQAIkQAIkoBcBbF7269dPzp8/L7FixdLLOFqjFYHTp0+rrpmHDh1S9XspJEAC+hGgA0u/NfWpRaiDtXr1ars5EiZMKFevXuVLjU/Jc3ASIAESIAESIAES8D+Bhw8fqiLueP8rW7as/xXgjCTgBgGUO8FGO8qbDB482I0zeAgJkIAZCdCBZcZVC6DOCxculPr169tpEClSJNm5c6fa8aCQAAmQAAmQAAmQAAnoRQDvf127dpVz585xw1KvpdXGmq1bt0qlSpVUvbY0adJoYxcNIQESsCdABxavCI8IPHjwQBVzv3//vt155cuXF3QkjBAhgkfj8WASIAESIAESIAESIAFjE3jy5Il88MEH0rt3b2ndurWxlaV2liPw5s0bFR2YLVs2+eGHH/g9YrkrgAZbiQAdWFZabS/ZOmzYMJdtaU+cOKEeHBQSIAESIAESIAESIAG9CMyaNUsGDBggx48fl5gxY+plHK0xNYGff/5ZRQheu3aNzitTrySVJ4HQCdCBFTojHuFAAPWusmbNKsHBwXa/QSF3FHSnkAAJkAAJkAAJkAAJ6EUANYaKFi0qH374oYwZM0Yv42iNqQnkyZNHatasqZoNUEiABPQmQAeW3uvrE+tev34tRYoUkX379tmNj9RCdKiJGDGiT+bloCRAAiRAAiRAAiRAAoEjgHIRjRo1ksuXL0vs2LEDpwhnJoH/EUBmyPz582XPnj2MDORVQQIWIEAHlgUW2Rcmbtu2TUqWLCnIObeVBQsWSL169XwxJcckARIgARIgARIgARIIMIEGDRrIvXv3ZOXKlRIlSpQAa8PprUzg5s2bkiVLFkF6a/Xq1a2MgraTgGUI0IFlmaX2vqFoVYu6V7aC0PIdO3Z4fzKOSAIkQAIkQAIkQAIkEHAC6ESYPXt22bBhg3z00UcB14cKWJMANtGbNGmiogH/+OMPZoBY8zKg1RYkQAeWBRfdWyajE83QoUPthkNRT+zKRYsWzVvTcBwSIAESIAESIAESIAGDEEAtrKlTp8qgQYPkzJkzTCU0yLpYTY01a9YIogGxmZ4yZUqrmU97ScCyBOjAsuzSh99wdPrIlCmTPHv2zG6wdu3aycSJE8M/AUcgARIgARIgARIgARIwHAHUQ82fP7+UL19eRo4caTj9qJDeBB4/fiyFChVSDixsqEeIEEFvg2kdCZDAfwTowOLFEC4CTZs2ldmzZ9uNgSLut27dksSJE4drbJ5MAiRAAiRAAiRAAiRgTAJo5lOxYkVBJAycCRQS8BeBVq1aycmTJ2X79u3+mpLzkAAJGIQAHVgGWQizqrFx40YpW7ask/qrVq2SypUrm9Us6k0CJEACJEACJEACJBAKgX79+qkOcHAmRI0albxIwOcELly4oGqw7d69W/LkyePz+TgBCZCAsQjQgWWs9TCdNkgfTJ06tfz99992umMnDu1sKSRAAiRAAiRAAiRAAnoSQCpXiRIlJG/evBIUFKSnkbTKMASQ4QHnVf/+/aVjx46G0YuKkAAJ+I8AHVj+Y63tTDNnzpRmzZo52YedkcKFC2trNw0jARIgARIgARIgAasTOHXqlHJgLV68WKpWrWp1HLTfRwRQdw3fG2fPnhVkgMSKFctHM3FYEiABIxOgA8vIq2MS3R48eCDp06dX3QdtpW3btjJp0iSTWEE1SYAESIAESIAESIAEwkIAzXsGDBggqIuVNm3asAzBc0jgnQRwjaHzJVII6bzixUIC1iVAB5Z1195rlqOdcoUKFWT9+vV2YyZJkkQVc2dnEK+h5kAkQAIkQAIkQAIkYEgCNWrUUJuZW7duNaR+VMq8BBB1lStXLlm+fLlUqlTJvIZQcxIggXAToAMr3Ag5AAgcP35ccufOLW/evLEDMmHCBGnfvj0hkQAJkAAJkAAJkAAJaEzg/v37UqZMGSlQoIBMnjxZIkWKpLG1NM1fBIKDg5Xzqnbt2jJs2DB/Tct5SIAEDEqADiyDLowZ1SpWrJjs3LnTTvUPPvhAjhw5IlGiRDGjSdSZBEiABEiABEiABEjATQIHDx5UTiykezVo0MDNs3gYCbgmgCYB1atXl8iRI6voqxgxYhAVCZCAxQnQgWXxC8Cb5o8fP146depkNyQcVxcvXlSdCikkQAIkQAIkQAIkQAJ6E9i8ebMqLbFp0yYpXry43sbSOp8RQFYH6qpNmTJFTpw4IYkTJ/bZXByYBEjAPATowDLPWhle03/++UeSJUsmL168sNO1bt26snDhQsPrTwVJgARIgARIgARIgATCRwCOh6FDhwo2Ng8cOCBp0qQJ34A825IExowZo1IGDx8+LClTprQkAxpNAiTgTIAOLF4VXiXQtWtXwQPHVlDE/dKlS+xK41XSHIwESIAESIAESIAEjEvgiy++kP3798uuXbuY+mXcZTKkZitWrJAWLVrIzJkzpXLlyobUkUqRAAkEhgAdWIHhru2s2CXJmzevk33Tpk2Tli1bams3DSMBEiABEiABEiABEvg/As+ePZNq1arJnTt3BGmF8eLFIx4SCJXAvn37VB2177//nt8OodLiASRgPQJ0YFlvzX1q8evXryVp0qSqjbKtZMuWTXUqRDQWhQRIgARIgARIgARIQH8Cjx49kixZsqjNzV9//VUV46aQQEgETp06JTlz5pRRo0ZJly5dCIoESIAEnAjQgcWLwusEfv/9d6lYsaLTuNOnTxeEk1NIgARIgARIgARIgASsQQCbmoULF5ZChQrJvHnzrGE0rfSYwLlz56R06dJSs2ZNFX1FZ6fHCHkCCViCAB1Yllhm/xqJ4p3vv/++/Pnnn3YT16hRQ5YtW+ZfZTgbCZAACZAACZAACZBAQAlcvXpV1TLKnz+/BAUFScSIEQOqDyc3FgF8M8B5Va5cOZk0aZKxlKM2JEAChiJAB5ahlkMfZT799FNZuXKlnUEJEyaUa9eusZCnPstMS0iABEiABEiABEjALQLnz59XtY3wM3HiRL4PukVN/4NwXRQsWFBFXs2YMYPlRvRfclpIAuEiQAdWuPDx5JAI4GGUKVMmp18PGjRI+vTpQ3AkQAIkQAIkQAIkQAIWI/DXX39JxowZ5ZNPPpFFixbRWWGx9Xc0F98LefLkkdq1azMyz+LXAs0nAXcJ0IHlLike5zEBvJysWbPG7rwUKVIIctxjxYrl8Xg8gQRIgARIgARIgARIwNwEbt68KWXLllXlJpYvXy5RokQxt0HUPkwEduzYIfXq1ZNatWqpmleRIkUK0zg8iQRIwFoE6MCy1nr71dr58+dLw4YN7eZEQcZdu3ZJgQIF/KoLJyMBEiABEiABEiABEjAGATix6tatKy9evJAVK1bIlStXZN++fao2FlLJkiRJYgxFqYXXCfz777+yfv16qV+/vnTs2FG+/fZbr8/BAUmABPQlQAeWvmsbcMseP34syZIlk6dPn9rpUrVqVdVKOUKECAHXkQqQAAmQAAmQAAmQAAn4n8CTJ09U1+ozZ84IOhW+fv1aKREjRgxB0ffEiRP7XynO6FMCWGOkjjZt2lQVa2d3cp/i5uAkoCUBOrC0XFbjGDV48GDp27evnUJwXJ06dUqyZMliHEWpCQmQAAmQAAmQAAmQgF8JPH/+XDJkyCDXr1+3mxcpZV27dvWrLpzM9wS6d+8u06ZNk3Xr1qlsDHaj9D1zzkACuhGgA0u3FTWYPRcvXpRs2bIJXlBsZfjw4dKjRw+DaUt1SIAESIAESIAESIAE/EXgzZs3kjZtWtWl2laGDRsmPXv29JcanMfHBJCV0bhxYzl58qTMnj1bChcu7OMZOTwJkICuBOjA0nVlDWIXQoXz5s0rx44ds9MI0VfHjx8X1MSikAAJkAAJkAAJkAAJWI/A5cuXJXv27E7lJrjRqc+1cPToUalTp44kTZpUUB83derU+hhHS0iABPxOgA4svyO33oRbtmyR0qVLC4o22go6z1SvXt16QGgxCZAACZAACZAACZCANGvWTGbOnOlEAk4tvD+yDpZ5LxK89y9ZsuT/tXcf0FFVWwPHN9JDCR0k9CKKdEiER5MSFi0oTQUpUh5SBVGWoljAggqoKC4sD5UOItKlhV4EKdJ7CNJ7rwnlW/t8b3yBTEIyM5mZO/d/1rorEWfuPed3JsnMvvvsI+3atTMBrJ9++okb19adTnqOgN8IEMDym6kI7I5oxtW+ffvuG6Ruoay7kNAQQAABBBBAAAEE7CWwZcsWqVy5sugywritcePGUrBgQRP8GDlyZLwdre2lZM3R6gZOHTp0kMjISBO40hvWbN5kzbmk1wj4mwABLH+bkQDtz2uvvSaff/75faPLmjWrHD9+XDJlyhSgo2ZYCCCAAAIIIIAAAg8KxMTESNOmTePdyEybNq1s3LhRypQpY2ol9enTR1q3bi1aE0t3tqb5v8Dq1auld+/eou/zdadBnUsaAggg4CkBAliekuQ8iQpER0fL448/LvqGJW7TQu5a54CGAAIIIIAAAgggEPgCt2/flrZt28q0adPiDTYsLEzWrl0rqVOnNv/v/PnzEhERISdOnJCxY8dK9erV2bnOT18imnX1xRdfyLBhw+Sll14S3UnSMY9+2mW6hQACFhQggGXBSbNql/UOmqaDx23p06eXU6dOSXBwsFWHRb8RQAABBBBAAAEEkiCgwat69erJypUr4z1al5idPHnSFPuO23SJ4ahRo6Rfv36mlpIGsvT9I81/BKKioqRSpUpmXpYsWSJly5b1n87REwQQCCgBAlgBNZ3+PZi5c+eau2hxm75Z0TpY+maGhgACCCCAAAIIIBCYApqFrwW9nWVe6YjDw8Nl0aJFCQ5ed6/u3r27HDt2TN59911TAJ7mW4EbN25I3759zQ3q119/XXr27CnZsmXzbae4OgIIBLQAAayAnl7/Gtzly5elSJEicuHChfs6psXc9Q0LxR39a77oDQIIIIAAAggg4AmB2NhY6dKli4wfP97p6Z555hmZNGmSBAUFPfRy33zzjVmmprWV3nvvPQkNDX3oc3iAZwU0cKWByEGDBknx4sVNjbKqVat69iKcDQEEEHAiQACLl4VXBb788kt59dVX411z27ZtpBt7dSa4GAIIIIAAAgggkPICGuxo0KCBaHHvB5vevNT/N3v2bEmXLl2SO3Px4kXp2rWrzJs3z2RlDRw4MN7SwySfjAcmWUCXc27fvl06d+5sMuE+/vhj8z0NAQQQ8JYAASxvSXMdI3DmzBkpUaKEaDZW3EYxd14gCCCAAAIIIIBAYAlcunRJKleuLFojyVlr2LChzJo1K1nBK8d57t27J4cPH5Y2bdrIrl27pFevXiYjKzmBsMDSTtnRaM3aZs2aydatW009srfeesvsNEhDAAEEvClAAMub2lxL9M5N3bp1ZcWKFfdp6NLCgwcPsoyQ1wgCCCCAAAIIIBAAAjt37pQXX3zRBDycNQ08/fzzz24HnHR5opaieP/9982uhboDXv/+/SVTpkwBoOj7Iej8ffrppzJ//nwTLNSaV6VKlfJ9x+gSbiQcAAAgAElEQVQBAgjYUoAAli2n3beDXrVqlTz99NMmmBW3ae0D/cNIQwABBBBAAAEEELCmgGZGrVmzRl544QWzzMxZa9mypal55elsqXHjxslXX30lR44ckbfffluaN28uBQsWtCakD3utu0Vu2rRJ/vOf/8j06dPNZkvvvPOOlCtXzoe94tIIIICACAEsXgU+EahYsaJs2bLlvmvrv23cuFEeeeQRn/SJiyKAAAIIIIAAAgi4LqA3JxcuXChalF0zox5sWvMqJCREDhw4IOnTp3f9Qg95ZmRkpHTs2FFOnz4tPXr0kCFDhpjlbrzHTBxOd4rcu3ev2eFRM+hq164tY8eOlbx586bYXHFiBBBAIDkCBLCSo8VjPSbwwQcfmC2Q4zbdeeb48eMSHBzssetwIgQQQAABBBBAAAHvCGigSN/jaQaPszZgwAD58MMPPZ555exaGozR5W9aF2vlypVmsyDtX3h4uHcwLHSV69evm8y1H374QU6cOCFam1aDWIUKFbLQKOgqAgjYQYAAlh1m2Q/HqKndWsxd31zEbX369DF/QGkIIIAAAggggAAC1hDQgFW3bt3kp59+ctrhtGnTytdffy0vv/yy1wekSxp15zxdsjhx4kTJnDmzWVr43HPPSfny5W1bf1WDVosXL5Zp06aZ+lZPPPGEyVrT5Z05cuTw+jxxQQQQQCApAgSwkqLEY1JEQItsalryg02DWwUKFEiRa3JSBBBAAAEEEEAAAc8J6O50ERERsmHDBqcn1WDIjBkzpFatWp67qItn0kDb1KlTZdSoUbJ7924pVqyYvPLKK1K9enXRDYU00BbITXeF1B0hf/31VxkzZoxkzJhRqlWrJm+++aYJ5tEQQAABfxcggOXvMxTA/dMCnzVq1Ig3Qr1D17t37wAeOUNDAAEEEEAAAQSsLxAdHS0VKlSQy5cvOx2M1rvSmkr+uCOg1uvSXRAHDhwoZ86ckezZs8vrr78u/fr1M4GdQGq7du0yuzRqQXZtGkwcMWKEmTvqggXSTDMWBAJfgABW4M+x347wxo0bJo37wd0ItcimFngvWrSo3/adjiGAAAIIIIAAAnYWWLRokXTo0EE0A8tZa9CggVlSmD9/fr9m0qwszUrSjYQmTJggy5Ytk8KFC5sldY0aNZKmTZuawvNWafq+WrPh5syZIytWrDAF8+/cuSOtW7eWVq1amXFpUXYtqE9DAAEErCZAAMtqMxZg/R06dKjZ5ljrE8RtL774onkTQUMAAQQQQAABBBDwHwEN+Hz66acyePBgpzsNakaPBrZGjhxpdv6zWrt48aIsXbrUBLI2bdok27ZtM8XMq1SpIpUrV5bSpUtL8eLFzb+lSZPGp8O7evWqHDx4UPbt22fqfGkQ7s8//zQ7PGp21VNPPSX169eX0NBQn/fVp1BcHAEEAkaAAFbATKU1B6J3hPQNgWZcxW2pU6eWzZs3S7ly5aw5MHqNAAIIIIAAAggEmIBuvqPBqwd3knYMUwMnffv2Fb1BGShL0zSjKTIyUmbPni3Lly8XDXBpLSltVatWlbCwMBMgKlWqlOiO2hkyZDBLENOlS2cOVx00UKjeN2/eNIeuXNBr686K69evl7Vr15rlmbqaQQOFWsNLM8a0HplmWZFhFWA/fAwHAQSMAAEsXgg+F9BAlQaxHszC0rtbO3bsMG8EaAgggAACCCCAAAK+FWjXrp3Zze/B92zmQ0WqVPLLL7+YZWqB2jSYpYGkW7dumaWTukRPA0la1/XQoUOmCLwGrTQzSw+9IZsvXz7JmTOn5M6d29TZ0oCT/rt+1SDVtWvXTDkNDYppLS79evToUbly5YpZ+hcbG2sep8EsPafe3NWi8zVr1jSBM60v5giYEbQK1Fce40IAAYcAASxeC34h0KVLF/nxxx/v64vesRo/fry0bdvWL/pIJxBAAAEEEEAAATsKaJClRYsWonWvnDW92bh48WKnm/PYxUsDW+fOnZPz58+bQwvbaxDq7Nmz5ns9rl+/bg4NWGlWlb7XVTsNPGn2VnBwsAls6c6NGuzKkiWLZMuWzXyvQTD96utli3aZT8aJAAL+KUAAyz/nxXa90gKTFStWFF3LH7fpH3Nd12+l4pm2mzwGjAACCCCAAAIBK6A7DWrw6sFyD44BFyxYUFavXm1qQtEQQAABBBBISQECWCmpy7mTJfD999/Lyy+/HO85AwYMkM8++yxZ5+LBCCCAAAIIIIAAAu4JaPBK6zydPn3a6Yl0KZvWhSIryD1nno0AAgggkDQBAlhJc+JRXhDQ7CvdtljTruM2LQi6bt06s5sKDQEEEEAAAQQQQCDlBXQHvoYNG5olcM5ax44d5euvvzbL3GgIIIAAAgh4Q4AAljeUuUaSBVatWiX16tWLty2z/pvuAENDAAEEEEAAAQQQSFmBKVOmSKdOnUydpgebZlu99tpr8v7777PRTspOA2dHAAEEEHhAgAAWLwm/E2jSpIn8/vvv9/VLi1wuXLhQ6tev73f9pUMIIIAAAggggEAgCOhud59//rm88cYbToeju929/fbb5qAhgAACCCDgbQECWN4W53oPFThy5IgUKVLE7NASt+mbpuPHj5vdWGgIIIAAAggggAACnhO4d++e1K5dWzQbPqE2e/ZsiYiI8NxFORMCCCCAAALJECCAlQwsHuo9gffee0+GDBly3wV1i+GhQ4cmeFfQe73jSggggAACCCCAQOAI6G7QzZs3lx07djgdlNa5WrRokSnoTkMAAQQQQMBXAgSwfCXPdRMVOHnypJQrV07OnDlz3+PSpUtntnF+4oknEEQAAQQQQAABBBBwU2Dy5MnSp08fOXfunNMz6Xuu6dOn897LTWeejgACCCDgvgABLPcNOUMKCWgdLE1Tf3ApYZs2bWTSpEkpdFVOiwACCCCAAAIIBL7AjRs3ZODAgTJy5MgEB1uyZElZs2aN5M6dO/BBGCECCCCAgN8LEMDy+ymybwdjY2OlbNmysnfv3vsQtKD7/PnzpUGDBvbFYeQIIIAAAggggICLAlpTtEaNGnLo0CHR2lfO2uOPPy7r1q2T4OBgF6/C0xBAAAEEEPCsAAEsz3pyNg8L7N69WypXrix6lzBuK1CggERHR4tu5UxDAAEEEEAAAQQQSJrA1KlTZcCAAaKb5jhrmTJlMjsRdunSRVKnTp20k/IoBBBAAAEEvCBAAMsLyFzCPYGuXbvKmDFj4p2kU6dO8t1330natGnduwDPRgABBBBAAAEEAlzg5s2b8tlnn8mHH34omuXurGnW1bfffmt2I6QhgAACCCDgbwIEsPxtRuhPPAEt5B4SEuL0zZbWwtKaWDQEEEAAAQQQQAAB5wKnT5+WJk2ayMaNG50+QMszaMb7kiVLRHccpCGAAAIIIOCPAgSw/HFW6FM8AU1lf+211+L9e1BQkCxbtkzCwsJQQwABBBBAAAEEEHhAYOnSpdK2bVs5depUgsGrTz75RPr378+SQV49CCCAAAJ+LUAAy6+nh845BGJiYkSXEo4fPz4eihZ61yKjGsyiIYAAAggggAACCIjoksGPPvpIRowYEa+WqMOncOHC8tNPP0mdOnUgQwABBBBAwO8FCGD5/RTRwbhBrCpVqsj27dvjoTRu3FhmzZpFUXdeLggggAACCCBge4GjR49Kz549Zc6cOU4tdMmg1rmaPn26ZM+e3fZeACCAAAIIWEOAAJY15ole/ldA09+LFy8u165di2cybtw4ad++PVYIIIAAAggggIBtBXbu3Ck1atSQixcvOjVIlSqVvPPOOzJ48GDbGjFwBBBAAAFrChDAsua82brXY8eOlZdeeimege5GGBkZKbVq1bK1D4NHAAEEEEAAAfsJ3LlzR95//33RuqHXr193CqAF2mfOnCl169a1HxAjRgABBBCwvAABLMtPof0GcO/ePXn11Vdl5MiR8Qb/2GOPyfLly+XRRx+1HwwjRgABBBBAAAFbChw7dsy8N5o2bVqC4w8PD5eff/5Z8ufPb0sjBo0AAgggYH0BAljWn0NbjuDq1atSvnx5OXjwYLzxN2zYUObNmyda34GGAAIIIIAAAggEqsDdu3dlzZo10rRpU7l8+bLTYWbIkEH69u0rutMgDQEEEEAAASsLEMCy8uzZvO+aHq+755w9e/Y+CWo72PyFwfARQAABBBCwgYDuMti5c2eZOnWqaCArobZ27VqpWrWq6PsjGgIIIIAAAlYWIIBl5dmj7zJjxgxp1apVvDduadKkkUWLFrEtNK8RBBBAAAEEEAg4gYkTJ8p7770nUVFRCY5Na4KOHz9eChUqFHDjZ0AIIIAAAvYUIIBlz3kPqFEPHDjQaVq8BrH0rmNoaGhAjZfBIIAAAggggIA9BaKjo2XQoEEyZcqUBLOutISC1sPSJYP6XoiGAAIIIIBAoAgQwAqUmbTxOGJiYiQsLEy2bt0aTyFfvnzy559/SsGCBW0sxNARQAABBBBAwMoC+l5HC7R37NhRdLfBhFrGjBlNcKtZs2ZWHi59RwABBBBAwKkAASxeGAEhcPz4cSldurRcunQp3nhCQkJkx44dki1btoAYK4NAAAEEEEAAAfsInD9/Xho1aiSbNm1KNHjVsmVL+eKLL6RAgQLUu7LPy4ORIoAAArYSIIBlq+kO7MFOnjxZ2rdv7/TNXZ48eWTZsmUmyEVDAAEEEEAAAQT8XUCLtA8fPtwsBbx27VqC3dUaV5999pm0bt2aHZj9fVLpHwIIIICAWwIEsNzi48n+JvDNN9/IG2+84fSNni4nXLx4sZQpU8bfuk1/EEAAAQQQQAABI3Dv3j3ZvHmz9OjRQzZs2JCgSlBQkNnIZvTo0aLf0xBAAAEEEAh0AQJYgT7DNhzf7Nmz5dlnnzVvAB9suXPnll27dkmuXLlsKMOQEUAAAQQQQMCfBWJjY0U3p/n888+dvo9x9F0zy+fOnctGNf48mfQNAQQQQMDjAgSwPE7KCX0toIGrhQsXSvPmzUXT7x9s+fPnl/Xr15saETQEEEAAAQQQQMAfBEaNGiVffvmlREVFJdid9OnTy9ChQ6Vz584SHBzsD92mDwgggAACCHhNgACW16i5kDcFNIg1adIk6d69u1y9ejXepTNlyiQzZ86U+vXre7NbXAsBBBBAAAEEEPhHQN+vrFixQj799FNz881Z9rjjwXXr1jX1sEJDQxFEAAEEEEDAlgIEsGw57fYZ9Pjx46Vbt25OM7FSpUolw4YNk969e4ve0aQhgAACCCCAAALeEti/f7+89dZb8uuvvyZ6yezZs8u7774rffv2ZXdBb00O10EAAQQQ8EsBAlh+OS10ylMCeifz999/l4iICKd3NTWIVaJECbOkUN8g0hBAAAEEEEAAgZQUuHz5snTs2FHmzZsnWvMqsVarVi2ZP38+RdpTckI4NwIIIICAZQQIYFlmquioqwIaxJozZ47ZqSehN4pa3P2jjz6Sf//7365ehuchgAACCCCAAAIJCmjgatCgQTJ58mQ5e/ZsolJp0qSRCRMmSIsWLSRt2rSoIoAAAggggICIEMDiZWAbAd3RR1Pwr127luCY27ZtawqoakCLhgACCCCAAAIIuCtw4cIFGTdunAwePFj0+8Ra1qxZTdBKb6rppjM0BBBAAAEEEPifAAEsXg22Ejh69Kg0btxYduzYkWChVL3TGRkZKdWrV5fUqVPbyofBIoAAAggggIBnBHQn5AULFkiXLl3k/PnziZ5Ua3HWrl3bBLry5s3rmQ5wFgQQQAABBAJMgABWgE0ow3m4wK1bt+T777+X/v37y+3bt50+IV26dKLZWD/++CMFUx9OyiMQQAABBBBAII6ABq569Oghhw8flrt37yZqU7NmTRO4KliwIDfOeBUhgAACCCCQiAABLF4ethVYu3at2dFn48aNCRqULVtWxowZw5bVtn2VMHAEEEAAAQSSLrBw4UL55JNPZPny5Q99kmZc6S6E4eHh3Cx7qBYPQAABBBBAgBpYvAZsLqAFVTWINWnSJImJiUlQo1OnTtK5c2cpX768ZMmSxeZqDB8BBBBAAAEEHAKaYbV582b5+OOPZebMmQmWKNDH6+7H5cqVkwEDBkibNm3kkUceARIBBBBAAAEEkihABlYSoXhYYAusXr1aIiIi5OLFi4kOVOtj9erVS9544w3JlSuX6C5BNAQQQAABBBCwp8DVq1flxRdflNmzZz8UICgoyJQmeP755x/6WB6AAAIIIIAAAvEFCGDxqkDgvwInTpwwdbGmTJnyUBMttlqkSBFp0KCBvP7661KoUKGHPocHIIAAAggggEBgCJw7d85kcM+ZM0c0mzuxlj17dhk2bJi0bNlSsmXLFhgAjAIBBBBAAAEfCBDA8gE6l/RfgdjYWHN3VGtSPGzHIMcoNP2/atWqJoNLj9KlS1PLwn+nmJ4hgAACCCDgsoC+Nxg5cqSMHj1azpw5k+h5smbNKn369JGePXtK/vz5Xb4mT0QAAQQQQACB/xcggMUrAQEnAlFRUdK4cWPZv39/orUsnOGFhoZKv379pHr16mZHIepb8BJDAAEEEEDA2gJaYmDWrFkmGHX9+vWHBq70PYTueEzdTGvPO71HAAEEEPAvAQJY/jUf9MaPBG7fvi1nz541uwl9++23cuvWrWT1TutlFShQQD744ANp27YtWVnJ0uPBCCCAAAII+IfAtGnTpFu3bg+tk6m9bdSokYwdO9bUydSC7TQEEEAAAQQQ8JwAASzPWXKmABa4dOmSbNmyxdS6GDNmTJLexMblyJEjh1SsWFFeeOEFc2TOnDmAtRgaAggggAAC1hf47bff5MMPP5StW7eK7jSYWNPA1eDBg6VSpUqSOnVq6w+eESCAAAIIIOCHAgSw/HBS6JJ/C9y8eVPmzp0rM2bMkBUrVsixY8eS1eHg4GBp0aKFNG3aVGrVqmXu0tIQQAABBBBAwPcCGqhatmyZDB06VJYsWZJoh7REgJYLePPNN03ZARoCCCCAAAIIpKwAAayU9eXsAS5w7949s3X28OHDZceOHcnOzEqTJo20a9fO7GSo9bK04CsNAQQQQAABBLwroIGrAwcOSK9evSQyMvKhgSvdiXjEiBHy7LPPerejXA0BBBBAAAEbCxDAsvHkM3TPCegbXy3wunnzZnnnnXdk3bp1yTq5LjfQZYb16tUzOyCWLVs2Wc/nwQgggAACCCDgmsDOnTulffv2smfPHrlx40aiJ8mYMaNMmDBBGjZsKEFBQa5dkGchgAACCCCAgEsCBLBcYuNJCCQsoFlZ+/btM0sQpkyZIqtXr5Y7d+4kiyxPnjxSs2ZNqVatmtStW9fUz6IhgAACCCCAgGcENFg1fvx4mT9/fpJqXOXLl88sFezUqRPZ0p6ZAs6CAAIIIIBAsgUIYCWbjCcgkDyBqKgo+fHHH2XRokWyffv2ZO9mqFfLmTOnqa8RHh4uTz75pJQoUYI30MmbBh6NAAIIIGBzgSNHjsiaNWvkhx9+kOXLlz+0MLtyaXZ0hw4dZNCgQeZvMQ0BBBBAAAEEfCdAAMt39lzZhgKXL182uxTpm+fr168nOzMrLlmdOnWke/fuJrCVLl06SZs2LVt22/A1xZARQAABBBIWiImJkUOHDknv3r1l8eLFSabSv6nPPPOMTJ06VbRYOw0BBBBAAAEEfC9AAMv3c0APbCigwavo6GizxHD06NFy7tw5lxXSp08vurRBC8o2a9ZMnnvuOSlQoIDL5+OJCCCAAAIIWF1g7969ZidBXc6vmVe6vD+prVWrVvLRRx9JyZIluTGUVDQehwACCCCAgBcECGB5AZlLIJCYgAazVq5cKbNmzTKFYa9eveo2mL7pDgsLM4fW0SpfvrzJ0qIhgAACCCAQqAK6ZH/GjBny22+/yfr165O0RNBh8eijj0pERIRodrPeCCLrKlBfJYwLAQQQQMDKAgSwrDx79D0gBfQN+LRp00xh2cOHD8vx48dFl0C40zJnzmx2TGrevLmUK1dOQkJCJHv27O6ckucigAACCCDgc4EzZ87IX3/9JSNHjpSFCxcma2l+tmzZpEyZMvLyyy+boBU3enw+nXQAAQQQQACBRAUIYPECQcBPBXS5g+5eqBlac+fOlREjRsjmzZvd7q3eVU6TJo0pBt+nTx95/vnn2QrcbVVOgAACCCDgTYGjR49Kz549ZcGCBXL79u1kLRHMmjWrDB8+XDp27Ej9SG9OGtdCAAEEEEDATQECWG4C8nQEvClw8eJFOXjwoOzatUt+//13mTdvnmhheHeaFqotXLiwFCtWTJ5++mlTR0uDWzQEEEAAAQT8SeDAgQMyatQoiYyMNH8Hk1PXKm/evNKrVy9p0qSJyUTWGzk0BBBAAAEEELCWAAEsa80XvUXgPoHY2FjZsmWLeTOv2Vm6jEKXILrbtAi8BrNq1KghFSpUMAEtXYZIQwABBBBAwJsCf//9t1ka+Msvv8jy5cuTtURQg1b169cXLcru2LHXm33nWggggAACCCDgWQECWJ715GwI+Fzg1KlTMnHiRJk8ebLoEovz58+7XUNLdzrUDwHt27eXqlWrmvpZugSDhgACCCCAgKcFLl26JHv27JGPP/7YLKG/e/duki+hN1t0V97+/fubv1lkWiWZjgcigAACCCDg9wIEsPx+iuggAq4J6NKKa9eumSWGq1atku+//16WLl3q2sniPEuL3GrwqlChQtKpUydT+DZPnjxun5cTIIAAAgjYW+DYsWPy6quvmr9VFy5cSFbgKjg4WIYMGSJt2rSRHDlySOrUqe2NyegRQAABBBAIQAECWAE4qQwJgYQErly5YuqG6LLD1atXm50Oz5075xaY3t0uWrSolC5dWqpVqybh4eFSqVIlt87JkxFAAAEE7CGgy97Hjh1r/h5t3LgxWYPOly+fybKKiIgwf3/ItkoWHw9GAAEEEEDAcgIEsCw3ZXQYAc8JaJbWtm3bZM6cObJ27VrZv3+/HDp0yOzo5E7LmTOnNGrUSOrVq2e2KC9ZsqTo3XEaAggggIC9BXQzkt27d8sff/whX375pRw5ciRZIFrXSoNVHTp0kKZNm5pdBGkIIIAAAgggYA8BAlj2mGdGiUCSBfTDhdbP+uabb+Tw4cNy48YNtwNaevHatWtL9+7dpWHDhpIhQwbRulqpUqVKcr94IAIIIICA9QT0hoj+HdHsqhEjRphMq+TUtNIR69J1DVxpTSxdIsjyQOu9DugxAggggAACnhAggOUJRc6BQAAKaHaWFtI9efKkWXKoQa0FCxZ4pCC8fhApXLiwNGvWTFq3bm2+pyGAAAIIBI6A7oo7ZswYU8/q+PHj5u9Jclvu3Lll0KBBJtNK6y6yRDC5gjweAQQQQACBwBIggBVY88loEEhRgevXr8vWrVtl/fr15m76ihUrzE6H7jTNwipWrJiEhoZKWFiYVK9eXSpUqGDuuNMQQAABBKwhsHfvXlm2bJmsXLlS1qxZYzJ4XWkhISHSokULeeaZZ+Tpp58m28oVRJ6DAAIIIIBAgAoQwArQiWVYCHhLYN++ffLrr7/KwoULTS0TDWjFxsa6dfksWbJI48aNzQeYsmXLSoECBSRbtmxunZMnI4AAAgh4TuDMmTNy8OBBiYyMlPHjx4sGsFxtuqz8qaeekh49epjgFXWtXJXkeQgggAACCAS2AAGswJ5fRoeAVwW0rsm1a9dk5syZMmzYMNm+fbvb19cMrUceecRkZb3yyivy/PPPm/pZNAQQQAAB7wrozYnZs2fL8OHDZcOGDaaWlS43d6Xp7/aqVavKkCFD/sm0oi6iK5I8BwEEEEAAAfsIEMCyz1wzUgS8LnDhwgWJjo6WXbt2mZ0OtXjvlStX3OqHLi3UWii67LBu3bqmjtYTTzzh1jl5MgIIIIBAfAEtwL569WqZOHGiWTauGVeXL192iUoLr+sy8ZYtW5pNPYoXLy7Zs2d36Vw8CQEEEEAAAQTsKUAAy57zzqgR8InArVu3TA2tJUuWyObNm82hH4jcbRrQ0g9E//rXv6RixYpSpkwZyZQpk7un5fkIIICArQTu3LljMmfXrVtn6lnp8sDz58+7ZKCZsyVKlDBZVnXq1DE3HPR3NQ0BBBBAAAEEEHBVgACWq3I8DwEEPCKgu1Pp3f1ffvlFjh07JmfPnnW7hpbWU2nQoIG0a9dOqlSpIjlz5pSsWbN6pL+cBAEEEAgUAV0CqAEq/d07YcIEGTdunJw+fdql4enyv+DgYMmXL5/ZNbBnz55StGhRl87FkxBAAAEEEEAAAWcCBLB4XSCAgF8IaB0V3eXw6tWr5s7/6NGjzW5W7jZdcqjZWPpBqmvXrvLcc8+ZgBYNAQQQsKvApUuXTLDq22+/NRtv6O9dDWa50rTguv5e7devn8m40k04dLkgDQEEEEAAAQQQ8LQAASxPi3I+BBDwmIDWWtH6Wdu2bZMVK1bIggULXF7O4uiUftjSYJbWzdIlh5qppQXiaQgggECgCujvUt0pdu7cuWaJ4M6dOyUmJsal4WbMmNEUXdcsq9DQULNkW/+NhgACCCCAAAIIpLQAAayUFub8CCDgMQHNENAaWvohbP369bJnzx45dOiQaN0Wd1qePHmkYcOGpk6Lfhh77LHHWHLoDijPRQABnwrobrAa/Nc6g7or7NKlS10OWOmuryVLlpTKlStLo0aNpEmTJpI5c2afjo+LI4AAAggggIA9BQhg2XPeGTUCASOg9Vu0htZ3330nR44cMcsQdecsd5oWH9ZgVrdu3aR+/foSFBQk+iGOLd7dUeW5CCCQUgIaxNfffXv37pWvv/5apk6dKrpphitNf/9pRlVISIj5Hdi9e3c2xXAFkucggAACCCCAgMcFCGB5nJQTIoCALwS0hpYukzl16pRs2rTJBLV0yYy7wSwNXGmGVuHChaVFixbSqlUrKViwoC+GyDURQACB+wSio6Nl7NixMn36dDlx4oScO9PsQZEAAA9iSURBVHfOZaFHH31UOnbs+M/vuNy5cxO0d1mTJyKAAAIIIIBASggQwEoJVc6JAAJ+IaAZCVu2bJE///xTNmzYYIrD64c8d5pmJxQvXtwspwkLC5OaNWuaGlpp0qRx57Q8FwEEEHiogO7aqoH5VatWmWXUukzQ1aabWWgtK80yrVq1qpQvX56AlauYPA8BBBBAAAEEvCJAAMsrzFwEAQT8RcBRE0aDWYcPHxb9QOhulpYGtZ566ikJDw83X3Ubec1eyJUrF8WN/WXi6QcCFhDQOn+6Q6Aujdbj5MmTZhMLzSpdsmSJyTJ1tWXNmlWKFStmglVt2rSRWrVquXoqnocAAggggAACCPhEgACWT9i5KAII+IOALjt0bCf/1VdfSVRUlMe6pfWy9ChXrpwpehwREWGCWzQEEEDAIaDB87/++stkh2qAas2aNaaWlf5u8lSrXr26vPXWW6YAO3X8PKXKeRBAAAEEEEDAFwIEsHyhzjURQMAvBc6ePSt///23WXbo2LlLP0x6qqVLl85kZumhWVqVKlUy2RAa2NI6WzQEEAg8gdOnT5vfKRqo0q+a+enIsLpw4YLExsZ6dNC6vFkzrGrXrm0yrnLkyOHR83MyBBBAAAEEEEDAVwIEsHwlz3URQMDvBXQr+o0bN5p6M/pVlx/qToeebpoVoQWUS5cubY7HH3/c1NnSo1ChQpI2bVpPX5LzIYCAhwRiYmLk6NGjJjClx6FDh2T//v1y4MABc2hgPKWa/u7Q3xPVqlUzAStdxqy/M2gIIIAAAggggEAgChDACsRZZUwIIJBiAvv27ZNJkybJ3LlzzYdV/XDqyeU+D3Y8Q4YMEhoaaj6cas0a3Q1Ra9noERQUlGLj5MQIIPA/Ac3EvHr1qjk0a2rr1q2miLpuELFz506PZ1ElZq+/E4oWLSpNmzaVrl27ymOPPcZUIYAAAggggAACthAggGWLaWaQCCDgaQEttqwZWnrs2bNHFi1aZHYH0yytlGy622H69OnNoUsRGzRoIHXr1jWZF5kyZUrJS3NuBGwjoMFpDVA56lLpZg+aaaWHLvlLyaB1XGTdIKJEiRImeK3LjfVnXYPXwcHB7Hxqm1cjA0UAAQQQQAABhwABLF4LCCCAgAcF9AOuLjM8duyYREdHy44dO0y2hi5B1MyNlGr6QTdv3rwSEhIiBQsWlFKlSkmFChVE6+HoB2AaAgj8T0ADz7t37xbNqNSfz4MHD5od/xyHZlp5q2lASrOodMMHXUKs2VVaI09/nvPnz89Opt6aCK6DAAIIIIAAAn4vQADL76eIDiKAQCAIaMaGBrYcwSz98KxZHZrpceLECdHdyFKqaWaWFozXgJYeugxRA116ZMmSJaUuy3kR8JmA/rxpoXT9GdOglNao2rt3rwlYbdu2zdSpunPnjlf6p8HlXLlymTp3GpTSnz+tc/fkk0+ar/rfNAQQQAABBBBAAIGHCxDAergRj0AAAQRSVODmzZuybt06WbBggVmGqB+2b926Jfrvnt6hLO5A9IO1foDWZUmNGzc2QS5dmqg1dvSrFoimIeCvAhqA0p8TzXrUrxoUXrFihalLtXz5cvHkDqIPM3As7dWdRjNnzmyyqbR2XZ06dcwuo/rzREMAAQQQQAABBBBwT4AAlnt+PBsBBBDwuMCNGzfkypUrcvnyZbOb2cqVK80Hc12GmJIBLf0Qrh++tb6OZmZpZkjNmjWlTJkyJlukSJEiHh8rJ0TAmYD+DDiW8506dcp87/iqy3M1c1EDvLrUTwNV+rPirYwq7a/+bISFhZnglAaqdMmf/uzooZsr6M8SDQEEEEAAAQQQQMCzAgSwPOvJ2RBAAIEUE9BMk7///luioqJMzR4tHq87oO3atct8uE/pwtKaXeKozaNLofR7rdGjNbccR6FChcyHeJo9BTSIdPHixX+OS5cu3fff+v/03zRAq4cGoBzfx/1vDU75smkQqnjx4lKyZElzFCtWTPS1rYe+1ll668vZ4doIIIAAAgggYFcBAlh2nXnGjQACASWgdbR01zQ9dCdEDWidOXNGzp49a5ZYebPlyZPHFKV2HFpEXv9NM7schxau1iWMNP8R0KBRYocWPj937px5Telry/H6ivt9Sm5U4EkpXR6bLVs2yZEjh+TMmdPUpipbtqypEVe+fHmz8QGvT0+Kcy4EEEAAAQQQQMB9AQJY7htyBgQQQMBvBbQ4/B9//CHz5s2TuXPnmqwtzdRyHL7quAYQtE5QlSpVzE6JugxLlyk6agXp/6cGV9JnJ2723YPf37171wQ0tbaa49ANBeL+t36vjwu05ngd6VcNTGlNqnr16kmNGjXIogq0yWY8CCCAAAIIIBDwAgSwAn6KGSACCCDwPwGtF6QZNHpoLSHN2NIC8hs2bDB1hHzZNONFlx9qdpbj0N3bNJOrVKlS5tDvdemiXYJbuqxOM5xOnz79T9aTfq/z5/g3zYxyFP139lX/LRCDUw++VjWTqmLFiv8cWrMte/bsJstKv6ZNm9aXL2+ujQACCCCAAAIIIOCmAAEsNwF5OgIIIBAIAlq7SOtraT0tDWbpUjBdlqjFsx1fNVBCQ8AbAhrMdAQxtd6UHvrfcb9mypTJFFPXpX+65C937ty2CWx6Yw64BgIIIIAAAggg4G8CBLD8bUboDwIIIOCHArosTYNZjqLxGujSQ2siaVaXHhrg0t3j7JDt44dT5Ddd0mL/mu3k7Kv+W8aMGU2wSetOPXhodp3WS9NsKhoCCCCAAAIIIIAAAnEFCGDxekAAAQQQcFlAM7e0zpbj0OVqu3fvli1btshff/1lDv3v2NhYl6/BE/1DQLOiNPAUEhJidp9M6Gvq1KlNAXTH8eB/UxzdP+aTXiCAAAIIIIAAAlYTIIBltRmjvwgggIDFBDTIdfHiRTl//rzJ2NKvWr8pKipKDh48aA79Xus6xS1AbrFh+nV3tbaYZjXp4dh578Hv9TFBQUEJHpo5RfDJr6eZziGAAAIIIIAAAgEtQAAroKeXwSGAAALWEdCC5VqHKzo6Wg4dOmS+Hj9+/J+i847v7RTk0mL1jhpQWvPJ2aG1oTQo5ShW7ux7XbpHQwABBBBAAAEEEEDAygIEsKw8e/QdAQQQQAABBBBAAAEEEEAAAQQQsIEAASwbTDJDRAABBBBAAAEEEEAAAQQQQAABBKwsQADLyrNH3xFAAAEEEEAAAQQQQAABBBBAAAEbCBDAssEkM0QEEEAAAQQQQAABBBBAAAEEEEDAygIEsKw8e/QdAQQQQAABBBBAAAEEEEAAAQQQsIEAASwbTDJDRAABBBBAAAEEEEAAAQQQQAABBKwsQADLyrNH3xFAAAEEEEAAAQQQQAABBBBAAAEbCBDAssEkM0QEEEAAAQQQQAABBBBAAAEEEEDAygIEsKw8e/QdAQQQQAABBBBAAAEEEEAAAQQQsIEAASwbTDJDRAABBBBAAAEEEEAAAQQQQAABBKwsQADLyrNH3xFAAAEEEEAAAQQQQAABBBBAAAEbCBDAssEkM0QEEEAAAQQQQAABBBBAAAEEEEDAygIEsKw8e/QdAQQQQAABBBBAAAEEEEAAAQQQsIEAASwbTDJDRAABBBBAAAEEEEAAAQQQQAABBKwsQADLyrNH3xFAAAEEEEAAAQQQQAABBBBAAAEbCBDAssEkM0QEEEAAAQQQQAABBBBAAAEEEEDAygIEsKw8e/QdAQQQQAABBBBAAAEEEEAAAQQQsIEAASwbTDJDRAABBBBAAAEEEEAAAQQQQAABBKwsQADLyrNH3xFAAAEEEEAAAQQQQAABBBBAAAEbCBDAssEkM0QEEEAAAQQQQAABBBBAAAEEEEDAygIEsKw8e/QdAQQQQAABBBBAAAEEEEAAAQQQsIEAASwbTDJDRAABBBBAAAEEEEAAAQQQQAABBKwsQADLyrNH3xFAAAEEEEAAAQQQQAABBBBAAAEbCBDAssEkM0QEEEAAAQQQQAABBBBAAAEEEEDAygIEsKw8e/QdAQQQQAABBBBAAAEEEEAAAQQQsIEAASwbTDJDRAABBBBAAAEEEEAAAQQQQAABBKwsQADLyrNH3xFAAAEEEEAAAQQQQAABBBBAAAEbCBDAssEkM0QEEEAAAQQQQAABBBBAAAEEEEDAygIEsKw8e/QdAQQQQAABBBBAAAEEEEAAAQQQsIEAASwbTDJDRAABBBBAAAEEEEAAAQQQQAABBKwsQADLyrNH3xFAAAEEEEAAAQQQQAABBBBAAAEbCBDAssEkM0QEEEAAAQQQQAABBBBAAAEEEEDAygIEsKw8e/QdAQQQQAABBBBAAAEEEEAAAQQQsIEAASwbTDJDRAABBBBAAAEEEEAAAQQQQAABBKwsQADLyrNH3xFAAAEEEEAAAQQQQAABBBBAAAEbCBDAssEkM0QEEEAAAQQQQAABBBBAAAEEEEDAygIEsKw8e/QdAQQQQAABBBBAAAEEEEAAAQQQsIEAASwbTDJDRAABBBBAAAEEEEAAAQQQQAABBKwsQADLyrNH3xFAAAEEEEAAAQQQQAABBBBAAAEbCBDAssEkM0QEEEAAAQQQQAABBBBAAAEEEEDAygIEsKw8e/QdAQQQQAABBBBAAAEEEEAAAQQQsIEAASwbTDJDRAABBBBAAAEEEEAAAQQQQAABBKwsQADLyrNH3xFAAAEEEEAAAQQQQAABBBBAAAEbCBDAssEkM0QEEEAAAQQQQAABBBBAAAEEEEDAygIEsKw8e/QdAQQQQAABBBBAAAEEEEAAAQQQsIEAASwbTDJDRAABBBBAAAEEEEAAAQQQQAABBKwsQADLyrNH3xFAAAEEEEAAAQQQQAABBBBAAAEbCBDAssEkM0QEEEAAAQQQQAABBBBAAAEEEEDAygIEsKw8e/QdAQQQQAABBBBAAAEEEEAAAQQQsIEAASwbTDJDRAABBBBAAAEEEEAAAQQQQAABBKwsQADLyrNH3xFAAAEEEEAAAQQQQAABBBBAAAEbCBDAssEkM0QEEEAAAQQQQAABBBBAAAEEEEDAygIEsKw8e/QdAQQQQAABBBBAAAEEEEAAAQQQsIEAASwbTDJDRAABBBBAAAEEEEAAAQQQQAABBKwsQADLyrNH3xFAAAEEEEAAAQQQQAABBBBAAAEbCBDAssEkM0QEEEAAAQQQQAABBBBAAAEEEEDAygIEsKw8e/QdAQQQQAABBBBAAAEEEEAAAQQQsIEAASwbTDJDRAABBBBAAAEEEEAAAQQQQAABBKws8H9PisRyaE+AZAAAAABJRU5ErkJggg==;" vertex="1" parent="1">
          <mxGeometry x="410" y="30" width="437.86" height="293" as="geometry" />
        </mxCell>
      </root>
    </mxGraphModel>
  </diagram>
</mxfile>
